<?xml version="1.0" encoding="UTF-8"?>
<svg width="25px" height="25px" viewBox="0 0 25 25" version="1.1" xmlns="http://www.w3.org/2000/svg" xmlns:xlink="http://www.w3.org/1999/xlink">
    <!-- Generator: Sketch 53.2 (72643) - https://sketchapp.com -->
    <title>goal-icon-2</title>
    <desc>Created with Sketch.</desc>
    <g id="Designs" stroke="none" stroke-width="1" fill="none" fill-rule="evenodd" stroke-linecap="round" stroke-linejoin="round">
        <g id="Desktop-HD" transform="translate(-184.000000, -2264.000000)" stroke="#3717E8">
            <g id="Group-13" transform="translate(180.000000, 2084.000000)">
                <g id="goal-icon-2" transform="translate(4.000000, 180.000000)">
                    <g id="file-code-share">
                        <circle id="Oval" cx="13.781" cy="18.254" r="2.25"></circle>
                        <circle id="Oval" cx="21.281" cy="21.254" r="2.25"></circle>
                        <circle id="Oval" cx="21.281" cy="13.754" r="2.25"></circle>
                        <path d="M15.706,17.099 L19.356,14.909" id="Path"></path>
                        <path d="M15.869,19.089 L19.194,20.419" id="Path"></path>
                        <path d="M11.531,23.5 L1.531,23.5 C0.97871525,23.5 0.531,23.0522847 0.531,22.5 L0.531,1.5 C0.531,0.94771525 0.97871525,0.5 1.531,0.5 L14.824,0.5 C15.0902038,0.501908204 15.3446594,0.609880867 15.531,0.8 L19.238,4.5 C19.4255494,4.68749273 19.5309434,4.94180519 19.531,5.207 L19.531,8.5" id="Path"></path>
                        <path d="M3.531,5.504 L3.531,9.504" id="Path"></path>
                        <path d="M12.531,5.504 L12.531,9.504" id="Path"></path>
                        <path d="M9.531,12.504 L9.531,16.504" id="Path"></path>
                        <path d="M15.531,5.504 L15.531,9.504" id="Path"></path>
                        <path d="M8.031,5.5 C8.85942712,5.5 9.531,6.17157288 9.531,7 L9.531,8 C9.531,8.82842712 8.85942712,9.5 8.031,9.5 C7.20257288,9.5 6.531,8.82842712 6.531,8 L6.531,7 C6.531,6.17157288 7.20257288,5.5 8.031,5.5 Z" id="Path"></path>
                        <path d="M5.031,12.5 C5.85942712,12.5 6.531,13.1715729 6.531,14 L6.531,15 C6.531,15.8284271 5.85942712,16.5 5.031,16.5 C4.20257288,16.5 3.531,15.8284271 3.531,15 L3.531,14 C3.531,13.1715729 4.20257288,12.5 5.031,12.5 L5.031,12.5 Z" id="Path"></path>
                    </g>
                </g>
            </g>
        </g>
    </g>
</svg>