<?xml version="1.0" encoding="UTF-8"?>
<svg width="158px" height="69px" viewBox="0 0 158 69" version="1.1" xmlns="http://www.w3.org/2000/svg" xmlns:xlink="http://www.w3.org/1999/xlink">
    <!-- Generator: Sketch 53.2 (72643) - https://sketchapp.com -->
    <title>Logo</title>
    <desc>Created with Sketch.</desc>
    <defs>
        <linearGradient x1="55.8569656%" y1="29.7866177%" x2="39.4973539%" y2="134.497147%" id="linearGradient-1">
            <stop stop-color="#FFFFFF" offset="0%"></stop>
            <stop stop-color="#000000" offset="100%"></stop>
        </linearGradient>
        <path d="M53.2657239,75.2594071 C58.9499366,71.0389028 65.9857225,68.5380435 73.6007769,68.5291336 C92.4601363,68.5070674 107.73078,83.7777107 107.708713,102.63707 C107.686647,121.496429 92.3802275,136.802849 73.5208681,136.824915 C54.6615087,136.846982 39.3908654,121.576338 39.4129316,102.716979 C39.413839,101.94146 39.4405915,101.171949 39.4923733,100.409261 L39.2212794,100.409261 L39.2212794,58.6799797 L11.7765647,58.6799797 L11.7765647,44.6026316 L43.1115528,44.6026316 L53.2607439,34.4296627 L63.1916658,44.383851 L53.2657239,54.3330476 L53.2657239,75.2594071 Z M14.3581986,25.4170237 L38.9359764,25.4170237 L38.9359764,39.4943718 L8.84073833,39.4943718 C4.13141503,39.4943718 0.3137542,35.6677669 0.3137542,30.9474105 L0.3137542,0.781664613 L14.3581986,0.781664613 L14.3581986,25.4170237 Z M73.5373199,122.764019 C84.6310607,122.751039 93.634837,113.747263 93.6478172,102.653522 C93.6607973,91.5597811 84.6780659,82.5770497 73.5843251,82.5900298 C62.4905843,82.6030099 53.486808,91.6067862 53.4738279,102.700527 C53.4608477,113.794268 62.4435791,122.776999 73.5373199,122.764019 Z" id="path-2"></path>
    </defs>
    <g id="Designs" stroke="none" stroke-width="1" fill="none" fill-rule="evenodd">
        <g id="Desktop-HD" transform="translate(-180.000000, -89.000000)">
            <g id="Logo" transform="translate(165.000000, 46.000000)">
                <g id="Group-4" transform="translate(87.106333, 87.523061) rotate(135.000000) translate(-87.106333, -87.523061) translate(33.106333, 19.023061)">
                    <circle id="Oval" fill="#5222F3" cx="24.0068438" cy="15.2760007" r="3.5"></circle>
                    <mask id="mask-3" fill="white">
                        <use xlink:href="#path-2"></use>
                    </mask>
                    <g id="Combined-Shape" fill-rule="nonzero">
                        <use fill="#3717E8" xlink:href="#path-2"></use>
                        <use fill-opacity="0.5" fill="url(#linearGradient-1)" style="mix-blend-mode: overlay;" xlink:href="#path-2"></use>
                    </g>
                    <path d="M51.2999595,128.624525 C41.6581787,122.584188 35.2443782,111.849034 35.2443782,99.6123475 C35.2443782,80.7309219 50.5150215,65.4245022 69.3523147,65.4245022 C77.7297624,65.4245022 85.4017915,68.4518343 91.3389317,73.4746167 C86.171518,70.3296324 80.0991918,68.5215302 73.6007769,68.5291336 C54.7414175,68.5511998 39.4349978,83.8576195 39.4129316,102.716979 C39.4007993,113.086098 44.0115652,122.37037 51.2999636,128.624527 Z M59.6976238,117.245628 C62.5619337,118.824626 65.8524743,119.722845 69.3523147,119.722845 C80.4330754,119.722845 89.4158068,110.719068 89.4158068,99.6123475 C89.4158068,93.8481091 86.996335,88.6502925 83.1197864,84.9835475 C89.3973457,88.3717531 93.6567583,95.0118136 93.6478172,102.653522 C93.634837,113.747263 84.6310607,122.751039 73.5373199,122.764019 C68.1700765,122.770299 63.2969579,120.670949 59.6976238,117.245628 Z" id="Combined-Shape" fill="#000000" fill-rule="nonzero" opacity="0.25" mask="url(#mask-3)"></path>
                </g>
            </g>
        </g>
    </g>
</svg>