<?xml version="1.0" encoding="UTF-8"?>
<svg width="695px" height="469px" viewBox="0 0 695 469" version="1.1" xmlns="http://www.w3.org/2000/svg" xmlns:xlink="http://www.w3.org/1999/xlink">
    <!-- Generator: Sketch 53.2 (72643) - https://sketchapp.com -->
    <title>pattern</title>
    <desc>Created with Sketch.</desc>
    <g id="Designs" stroke="none" stroke-width="1" fill="none" fill-rule="evenodd">
        <g id="Desktop-HD" transform="translate(-677.000000, -80.000000)" fill-rule="nonzero">
            <g id="pattern" transform="translate(668.000000, 62.000000)">
                <path d="M516.536548,419.934822 C499.471361,419.934822 485.637294,406.116701 485.637294,389.071185 C485.637294,372.02567 499.471361,358.207549 516.536548,358.207549 C533.601735,358.207549 547.435802,372.02567 547.435802,389.071185 C547.435802,406.116701 533.601735,419.934822 516.536548,419.934822 Z M516.536548,410.518797 C528.395406,410.518797 538.008911,400.916374 538.008911,389.071185 C538.008911,377.225997 528.395406,367.623574 516.536548,367.623574 C504.67769,367.623574 495.064185,377.225997 495.064185,389.071185 C495.064185,400.916374 504.67769,410.518797 516.536548,410.518797 Z" id="Oval" fill="#471DEE" opacity="0.88" transform="translate(516.536548, 389.071185) rotate(-115.000000) translate(-516.536548, -389.071185) "></path>
                <path d="M349.07255,229.383796 C329.569479,229.383796 313.759117,213.591658 313.759117,194.111069 C313.759117,174.63048 329.569479,158.838342 349.07255,158.838342 C368.57562,158.838342 384.385982,174.63048 384.385982,194.111069 C384.385982,213.591658 368.57562,229.383796 349.07255,229.383796 Z M349.07255,218.622625 C362.625531,218.622625 373.612393,207.648428 373.612393,194.111069 C373.612393,180.57371 362.625531,169.599513 349.07255,169.599513 C335.519568,169.599513 324.532706,180.57371 324.532706,194.111069 C324.532706,207.648428 335.519568,218.622625 349.07255,218.622625 Z" id="Oval" fill="#471DEE" opacity="0.88" transform="translate(349.072550, 194.111069) rotate(-273.000000) translate(-349.072550, -194.111069) "></path>
                <path d="M565.966729,300.555438 L537.59342,272.267427 L547.642936,262.248123 L573.153577,287.682072 L599.603713,262.163946 L609.48148,272.351605 L580.178891,300.626022 L580.178891,336.488621 L565.966729,336.488621 L565.966729,300.555438 Z" id="Combined-Shape" fill="#EBE7FC" opacity="0.95" transform="translate(573.537450, 299.326283) rotate(-234.000000) translate(-573.537450, -299.326283) "></path>
                <path d="M416.920432,309.305489 L394.022674,286.770972 L402.132809,278.789492 L422.720345,299.050435 L444.066068,278.722435 L452.037599,286.838029 L428.389896,309.361717 L428.389896,337.930228 L416.920432,337.930228 L416.920432,309.305489 Z" id="Combined-Shape" fill="#EBE7FC" opacity="0.78" transform="translate(423.030136, 308.326332) rotate(-261.000000) translate(-423.030136, -308.326332) "></path>
                <path d="M177.883873,158.726054 L155.981669,137.150453 L163.73919,129.508611 L183.431615,148.907386 L203.849264,129.444407 L211.474207,137.214656 L188.854664,158.779889 L188.854664,186.132719 L177.883873,186.132719 L177.883873,158.726054 Z" id="Combined-Shape" fill="#EBE7FC" opacity="0.92" transform="translate(183.727938, 157.788563) rotate(-47.000000) translate(-183.727938, -157.788563) "></path>
                <path d="M30.1337062,36.5356104 L9.72483464,16.3983825 L16.9534338,9.2659965 L35.3031935,27.3715196 L54.3287298,9.20607336 L61.4337899,16.4583056 L40.3564891,36.5858566 L40.3564891,62.1151643 L30.1337062,62.1151643 L30.1337062,36.5356104 Z" id="Combined-Shape" fill="#EBE7FC" opacity="0.76" transform="translate(35.579312, 35.660619) rotate(-243.000000) translate(-35.579312, -35.660619) "></path>
                <path d="M664.063842,191.40943 L650.442947,191.40943 L650.442947,134.267612 C650.442947,128.256459 655.321573,123.383456 661.339663,123.383456 L718.547424,123.383456 L718.547424,136.988651 L664.063842,136.988651 L664.063842,191.40943 Z" id="Path" fill="#B9EEF1" opacity="0.92" transform="translate(684.495186, 157.396443) rotate(-59.000000) translate(-684.495186, -157.396443) "></path>
                <path d="M591.628019,91.614305 L578.76384,91.614305 L578.76384,37.6470323 C578.76384,31.969832 583.371431,27.3675518 589.055183,27.3675518 L643.084736,27.3675518 L643.084736,40.2169024 L591.628019,40.2169024 L591.628019,91.614305 Z" id="Path" fill="#B9EEF1" opacity="0.73" transform="translate(610.924288, 59.490928) rotate(-185.000000) translate(-610.924288, -59.490928) "></path>
                <path d="M272.837858,489.558004 L261.487112,489.558004 L261.487112,441.939823 C261.487112,436.930528 265.552634,432.869693 270.567709,432.869693 L318.240844,432.869693 L318.240844,444.207355 L272.837858,444.207355 L272.837858,489.558004 Z" id="Path" fill="#B9EEF1" opacity="0.89" transform="translate(289.863978, 461.213849) rotate(-352.000000) translate(-289.863978, -461.213849) "></path>
                <path d="M288.435975,112.222388 L276.328512,112.222388 L276.328512,61.429661 C276.328512,56.0864137 280.665069,51.7548559 286.014482,51.7548559 L336.865826,51.7548559 L336.865826,63.8483623 L288.435975,63.8483623 L288.435975,112.222388 Z" id="Path" fill="#B9EEF1" opacity="0.94" transform="translate(306.597169, 81.988622) rotate(-225.000000) translate(-306.597169, -81.988622) "></path>
            </g>
        </g>
    </g>
</svg>