<?xml version="1.0" encoding="UTF-8"?>
<svg width="38px" height="28px" viewBox="0 0 38 28" version="1.1" xmlns="http://www.w3.org/2000/svg" xmlns:xlink="http://www.w3.org/1999/xlink">
    <!-- Generator: Sketch 53.2 (72643) - https://sketchapp.com -->
    <title>“</title>
    <desc>Created with Sketch.</desc>
    <g id="Designs" stroke="none" stroke-width="1" fill="none" fill-rule="evenodd" opacity="0.95">
        <g id="Desktop-HD" transform="translate(-179.000000, -3462.000000)" fill="#3717E8" fill-rule="nonzero">
            <g id="Group-13" transform="translate(179.000000, 3357.000000)">
                <path d="M37.4108527,125.031008 C37.4108527,125.882003 37.2472023,126.732985 36.9198966,127.583979 C36.592591,128.434974 36.1016398,129.204131 35.4470284,129.891473 C34.7924171,130.578815 33.9905302,131.135226 33.0413437,131.560724 C32.0921572,131.986221 31.0284297,132.198966 29.8501292,132.198966 C28.5409065,132.198966 27.2807985,131.953491 26.0697674,131.462532 C24.8587364,130.971574 23.827739,130.267877 22.9767442,129.351421 C22.2566717,128.500426 21.7002604,127.485794 21.3074935,126.307494 C20.9147267,125.129193 20.7183463,123.88545 20.7183463,122.576227 C20.7183463,120.088704 21.1602023,117.797599 22.0439276,115.702842 C22.927653,113.608086 24.187761,111.742472 25.8242894,110.105943 C26.5443619,109.385871 27.3626139,108.714904 28.2790698,108.093023 C29.1955257,107.471142 30.0628727,106.947461 30.881137,106.521964 C31.6994012,106.096466 32.4030978,105.752801 32.9922481,105.490956 C33.5813983,105.229112 33.9414291,105.065461 34.0723514,105 L38,110.793282 C37.2799275,111.055126 36.4780406,111.398792 35.5943152,111.824289 C34.7105899,112.249787 33.8759729,112.773468 33.0904393,113.395349 C32.3049056,114.01723 31.6503041,114.753656 31.126615,115.604651 C30.6029259,116.455646 30.3083552,117.437548 30.2428941,118.550388 C32.141267,118.550388 33.810501,119.106799 35.250646,120.219638 C36.690791,121.332478 37.4108527,122.936251 37.4108527,125.031008 Z M16.6925065,125.031008 C16.6925065,125.882003 16.5288561,126.732985 16.2015504,127.583979 C15.8742447,128.434974 15.3832935,129.204131 14.7286822,129.891473 C14.0740708,130.578815 13.2721839,131.135226 12.3229974,131.560724 C11.3738109,131.986221 10.3100834,132.198966 9.13178295,132.198966 C7.82256021,132.198966 6.56245222,131.953491 5.35142119,131.462532 C4.14039016,130.971574 3.10939271,130.267877 2.25839793,129.351421 C1.53832543,128.500426 0.981914109,127.485794 0.589147287,126.307494 C0.196380465,125.129193 0,123.88545 0,122.576227 C0,120.088704 0.441856047,117.797599 1.3255814,115.702842 C2.20930674,113.608086 3.46941473,111.742472 5.10594315,110.105943 C5.82601566,109.385871 6.6442676,108.714904 7.56072351,108.093023 C8.47717943,107.471142 9.34452649,106.947461 10.1627907,106.521964 C10.9810549,106.096466 11.6847516,105.752801 12.2739018,105.490956 C12.863052,105.229112 13.2230829,105.065461 13.3540052,105 L17.2816537,110.793282 C16.5615812,111.055126 15.7596943,111.398792 14.875969,111.824289 C13.9922436,112.249787 13.1576267,112.773468 12.372093,113.395349 C11.5865594,114.01723 10.9319578,114.753656 10.4082687,115.604651 C9.88457964,116.455646 9.59000894,117.437548 9.5245478,118.550388 C11.4229208,118.550388 13.0921547,119.106799 14.5322997,120.219638 C15.9724448,121.332478 16.6925065,122.936251 16.6925065,125.031008 Z" id="“"></path>
            </g>
        </g>
    </g>
</svg>