<?xml version="1.0" encoding="UTF-8"?>
<svg width="24px" height="20px" viewBox="0 0 24 20" version="1.1" xmlns="http://www.w3.org/2000/svg" xmlns:xlink="http://www.w3.org/1999/xlink">
    <!-- Generator: Sketch 53.2 (72643) - https://sketchapp.com -->
    <title>twitter-icon</title>
    <desc>Created with Sketch.</desc>
    <g id="Designs" stroke="none" stroke-width="1" fill="none" fill-rule="evenodd">
        <g id="Desktop-HD" transform="translate(-462.000000, -2950.000000)" fill="#FFFFFF" fill-rule="nonzero">
            <g id="Group-18" transform="translate(180.000000, 2691.000000)">
                <g id="Group-16" transform="translate(0.000000, 105.000000)">
                    <g id="social-24px-glyph-1-logo-github" transform="translate(246.000000, 152.000000)">
                        <g id="social-24px-glyph-1-logo-twitter" transform="translate(36.000000, 2.000000)">
                            <path d="M24,2.55671 C23.11699,2.94832 22.16806,3.21305 21.17196,3.33204 C22.18862,2.72268 22.96936,1.75771 23.33697,0.6079 C22.38563,1.17218 21.33185,1.58196 20.21025,1.8028 C19.31207,0.8458 18.03238,0.24784 16.61622,0.24784 C13.89679,0.24784 11.69219,2.45246 11.69219,5.17162 C11.69219,5.55757 11.73574,5.93332 11.81967,6.29373 C7.72747,6.0884 4.09932,4.12812 1.67078,1.14911 C1.24693,1.87636 1.00415,2.72216 1.00415,3.62454 C1.00415,5.33278 1.87344,6.83991 3.19462,7.72292 C2.38748,7.69738 1.62825,7.47585 0.96437,7.10704 C0.96403,7.12762 0.96395,7.14819 0.96395,7.16894 C0.96395,9.55466 2.66121,11.54478 4.91375,11.99709 C4.50054,12.10956 4.06555,12.16975 3.6165,12.16975 C3.29921,12.16975 2.99076,12.13888 2.6901,12.08145 C3.3167,14.03762 5.1351,15.46124 7.28974,15.50102 C5.60456,16.8216 3.48147,17.60876 1.17458,17.60876 C0.77713,17.60876 0.38518,17.58544 0,17.54001 C2.17907,18.93705 4.76724,19.75217 7.54787,19.75217 C16.60474,19.75217 21.55732,12.24931 21.55732,5.74259 C21.55732,5.52912 21.55253,5.31677 21.54309,5.10562 C22.50505,4.41137 23.33989,3.54413 24,2.55671 Z" id="twitter-icon"></path>
                        </g>
                    </g>
                </g>
            </g>
        </g>
    </g>
</svg>