<?xml version="1.0" encoding="UTF-8"?>
<svg width="180px" height="152px" viewBox="0 0 180 152" version="1.1" xmlns="http://www.w3.org/2000/svg" xmlns:xlink="http://www.w3.org/1999/xlink">
    <!-- Generator: Sketch 53.2 (72643) - https://sketchapp.com -->
    <title>marginalia-page-under-construction</title>
    <desc>Created with Sketch.</desc>
    <defs>
        <linearGradient x1="50%" y1="23.2076522%" x2="50%" y2="96.6019671%" id="linearGradient-1">
            <stop stop-color="#FFD8A1" offset="0%"></stop>
            <stop stop-color="#FFFFFF" offset="99.58%"></stop>
        </linearGradient>
        <linearGradient x1="50%" y1="98.7015258%" x2="50%" y2="-7.62257732%" id="linearGradient-2">
            <stop stop-color="#6B9C83" offset="0%"></stop>
            <stop stop-color="#A6A6A4" offset="40.1%"></stop>
            <stop stop-color="#9F9FC8" offset="50.11%"></stop>
            <stop stop-color="#9FCCEC" offset="59.08%"></stop>
            <stop stop-color="#FFE7B0" offset="100%"></stop>
        </linearGradient>
        <path d="M61.9077758,45.4074074 L73.5664557,133.925926 L60.79566,135.222222 C60.4990958,134.333333 60.2396022,133.444444 59.9615732,132.555556 C59.6835443,131.666667 59.4425859,130.777778 59.1830922,129.87037 L58.7938517,128.537037 C58.6641049,128.092593 58.5528933,127.648148 58.4416817,127.185185 L57.7188065,124.5 L57.3666365,123.148148 L57.0330018,121.796296 C56.8105787,120.907407 56.5696203,120 56.3657324,119.111111 L55.7169982,116.407407 L55.0867993,113.703704 C53.4371609,106.5 51.9914105,99.2777778 50.6754069,92.037037 L50.1934901,89.3148148 C50.1008137,88.8703704 50.045208,88.4074074 49.9896022,87.9444444 C49.9154611,87.4814815 49.8598553,87.037037 49.8042495,86.5740741 C49.5632911,84.7592593 49.3037975,82.9444444 49.0813743,81.1111111 L48.7477396,78.3703704 L48.4511754,75.6296296 L48.3028933,74.2592593 L48.1731465,72.8888889 C48.0804702,71.9814815 47.9877939,71.0555556 47.9136528,70.1481481 C47.5985533,66.5 47.3390597,62.8333333 47.1722423,59.1666667 C47.079566,57.3333333 47.0239602,55.5 47.005425,53.6666667 L46.9868897,50.9074074 C46.9868897,50.4444444 47.005425,49.9814815 47.005425,49.5185185 C47.005425,49.0555556 47.0239602,48.5925926 47.0424955,48.1296296 L61.9077758,45.4074074 Z" id="path-3"></path>
        <linearGradient x1="50%" y1="97.2072965%" x2="50%" y2="-7.05763391%" id="linearGradient-4">
            <stop stop-color="#6B9C83" offset="0%"></stop>
            <stop stop-color="#A6A6A4" offset="40.1%"></stop>
            <stop stop-color="#9F9FC8" offset="50.11%"></stop>
            <stop stop-color="#9FCCEC" offset="59.08%"></stop>
            <stop stop-color="#FFE7B0" offset="100%"></stop>
        </linearGradient>
        <path d="M60.7585895,52.5185185 L51.0831826,78.7037037 L23.2988246,133.537037 L11.0099458,134.259259 C11.0840868,133.314815 27.6546112,84.1296296 29.0076854,80.6666667 C29.0076854,80.6666667 37.3485533,60.2407407 38.6274864,56.7592593 C39.9249548,53.2777778 41.2780289,49.8333333 42.834991,46.4444444 L60.7585895,52.5185185 Z" id="path-5"></path>
        <linearGradient x1="50.0000486%" y1="987.681474%" x2="50.0000486%" y2="-56.8218947%" id="linearGradient-6">
            <stop stop-color="#6B9C83" offset="0%"></stop>
            <stop stop-color="#A6A6A4" offset="40.1%"></stop>
            <stop stop-color="#9F9FC8" offset="50.11%"></stop>
            <stop stop-color="#9FCCEC" offset="59.08%"></stop>
            <stop stop-color="#FFE7B0" offset="100%"></stop>
        </linearGradient>
        <linearGradient x1="50.0000713%" y1="17.8790872%" x2="50.0000713%" y2="96.7064859%" id="linearGradient-7">
            <stop stop-color="#FFD8A1" offset="0%"></stop>
            <stop stop-color="#FFFFFF" offset="99.58%"></stop>
        </linearGradient>
        <linearGradient x1="49.9999951%" y1="3.61775738%" x2="49.9999951%" y2="105.860299%" id="linearGradient-8">
            <stop stop-color="#FFD8A1" offset="0%"></stop>
            <stop stop-color="#FFFFFF" offset="99.58%"></stop>
        </linearGradient>
    </defs>
    <g id="Versions" stroke="none" stroke-width="1" fill="none" fill-rule="evenodd">
        <g id="0.2" transform="translate(-181.000000, -970.000000)" fill-rule="nonzero">
            <g id="Group-10" transform="translate(180.000000, 843.000000)">
                <g id="marginalia-page-under-construction" transform="translate(0.000000, 128.000000)">
                    <g id="Group" opacity="0.3" transform="translate(0.901447, 0.259259)">
                        <g fill="#C4ECFE" id="Shape">
                            <path d="M176.40009,0.685185185 L176.40009,149.62963 L0.704339964,149.62963 L0.704339964,0.685185185 L176.40009,0.685185185 L176.40009,0.685185185 Z M176.974684,0.111111111 L0.129746835,0.111111111 L0.129746835,150.203704 L176.974684,150.203704 L176.974684,0.111111111 L176.974684,0.111111111 Z"></path>
                        </g>
                        <path d="M0.129746835,77.462963 C0.129746835,70.8333333 8.06283906,67.4814815 12.863472,72.0740741 C28.8594033,87.3518519 39.8878843,81.2592593 52.7698915,99.5925926 C68.784358,122.407407 73.3254973,144.037037 124.464286,150.62963 L0.129746835,149.814815 L0.129746835,77.462963 Z" id="Path" fill="url(#linearGradient-1)"></path>
                        <g transform="translate(20.388788, 0.000000)" fill="#C4ECFE" id="Rectangle">
                            <g>
                                <rect x="22.5203436" y="0.111111111" width="1" height="150.092593"></rect>
                                <rect x="45.0221519" y="0.111111111" width="1" height="150.092593"></rect>
                                <rect x="22.5203436" y="0.111111111" width="1" height="150.092593"></rect>
                                <rect x="0.0185352622" y="0.111111111" width="1" height="150.092593"></rect>
                                <rect x="67.5239602" y="0.111111111" width="1" height="150.092593"></rect>
                                <rect x="90.0257685" y="0.111111111" width="1" height="150.092593"></rect>
                                <rect x="112.249548" y="0.111111111" width="1" height="150.092593"></rect>
                                <rect x="134.473327" y="0.111111111" width="1" height="150.092593"></rect>
                            </g>
                        </g>
                    </g>
                    <g id="Group" transform="translate(7.203436, 8.407407)" fill="#BFD9FF">
                        <ellipse id="Oval" cx="30.0085895" cy="61.2777778" rx="1" ry="1"></ellipse>
                        <ellipse id="Oval" cx="158.254069" cy="86.8148148" rx="1" ry="1"></ellipse>
                        <ellipse id="Oval" cx="157.494123" cy="6.48148148" rx="1" ry="1"></ellipse>
                        <ellipse id="Oval" cx="69.1735986" cy="0.796296296" rx="1" ry="1"></ellipse>
                        <ellipse id="Oval" cx="0.889692586" cy="5.2962963" rx="1" ry="1"></ellipse>
                        <ellipse id="Oval" cx="117.068716" cy="105.462963" rx="1" ry="1"></ellipse>
                        <ellipse id="Oval" transform="translate(3.502249, 85.965357) rotate(-11.308809) translate(-3.502249, -85.965357) " cx="3.50224892" cy="85.9653574" rx="1" ry="1"></ellipse>
                    </g>
                    <g id="Group" transform="translate(0.716094, 9.333333)">
                        <path d="M150.395118,111.981481 L16.0700723,111.981481 L16.0700723,22.037037 C16.0700723,18.962963 18.5537975,16.4814815 21.630651,16.4814815 L144.834539,16.4814815 C147.911392,16.4814815 150.395118,18.962963 150.395118,22.037037 L150.395118,111.981481 Z" id="Path" fill="#FFFFFF"></path>
                        <g transform="translate(15.940325, 2.777778)" fill="#2B2B2B" id="Path">
                            <path d="M130.451175,3.05555556 L4.11482821,3.05555556 C3.96654611,3.05555556 3.83679928,2.92592593 3.83679928,2.77777778 C3.83679928,2.62962963 3.96654611,2.5 4.11482821,2.5 L130.451175,2.5 C130.599458,2.5 130.729204,2.62962963 130.729204,2.77777778 C130.729204,2.92592593 130.599458,3.05555556 130.451175,3.05555556 Z"></path>
                            <polygon points="4.93037975 5.55555556 0.129746835 2.77777778 4.93037975 0"></polygon>
                            <polygon points="129.654159 5.55555556 134.454792 2.77777778 129.654159 0"></polygon>
                        </g>
                        <path d="M16.0700723,21.7777778 C15.9217902,21.7777778 15.7920434,21.6481481 15.7920434,21.5 L15.7920434,0.407407407 C15.7920434,0.259259259 15.9217902,0.12962963 16.0700723,0.12962963 C16.2183544,0.12962963 16.3481013,0.259259259 16.3481013,0.407407407 L16.3481013,21.5 C16.3481013,21.6481481 16.2183544,21.7777778 16.0700723,21.7777778 Z" id="Path" fill="#2B2B2B"></path>
                        <path d="M150.395118,21.7777778 C150.246835,21.7777778 150.117089,21.6481481 150.117089,21.5 L150.117089,0.407407407 C150.117089,0.259259259 150.246835,0.12962963 150.395118,0.12962963 C150.5434,0.12962963 150.673146,0.259259259 150.673146,0.407407407 L150.673146,21.5 C150.673146,21.6481481 150.5434,21.7777778 150.395118,21.7777778 Z" id="Path" fill="#2B2B2B"></path>
                        <g transform="translate(0.000000, 16.111111)" fill="#2B2B2B" id="Path">
                            <path d="M18.8688969,0.648148148 L0.315099458,0.648148148 C0.16681736,0.648148148 0.0370705244,0.518518519 0.0370705244,0.37037037 C0.0370705244,0.222222222 0.16681736,0.0925925926 0.315099458,0.0925925926 L18.8688969,0.0925925926 C19.017179,0.0925925926 19.1469259,0.222222222 19.1469259,0.37037037 C19.1469259,0.518518519 19.017179,0.648148148 18.8688969,0.648148148 Z"></path>
                            <path d="M21.0931284,124.907407 L0.315099458,124.907407 C0.16681736,124.907407 0.0370705244,124.777778 0.0370705244,124.62963 C0.0370705244,124.481481 0.16681736,124.351852 0.315099458,124.351852 L21.0931284,124.351852 C21.2414105,124.351852 21.3711573,124.481481 21.3711573,124.62963 C21.3711573,124.777778 21.2414105,124.907407 21.0931284,124.907407 Z"></path>
                            <g transform="translate(4.448463, 0.370370)">
                                <path d="M2.92857143,120.555556 C2.78028933,120.555556 2.6505425,120.425926 2.6505425,120.277778 L2.6505425,3.98148148 C2.6505425,3.83333333 2.78028933,3.7037037 2.92857143,3.7037037 C3.07685353,3.7037037 3.20660036,3.83333333 3.20660036,3.98148148 L3.20660036,120.277778 C3.20660036,120.425926 3.07685353,120.555556 2.92857143,120.555556 Z"></path>
                                <polygon points="5.70886076 119.462963 2.92857143 124.259259 0.16681736 119.462963"></polygon>
                                <polygon points="5.70886076 4.7962963 2.92857143 0 0.16681736 4.7962963"></polygon>
                            </g>
                        </g>
                        <g transform="translate(15.013562, 15.925926)">
                            <path d="M130.358499,125.240741 L6.079566,125.240741 C2.81735986,125.240741 0.16681736,122.592593 0.16681736,119.333333 L0.16681736,67.5185185 L1.94620253,67.5185185 L1.94620253,119.333333 C1.94620253,121.611111 3.79972875,123.462963 6.079566,123.462963 L130.358499,123.462963 C132.638336,123.462963 134.491863,121.611111 134.491863,119.333333 L134.491863,31.2222222 L136.271248,31.2222222 L136.271248,119.333333 C136.271248,122.592593 133.620705,125.240741 130.358499,125.240741 Z" id="Path" fill="#EBE7FC"></path>
                            <path d="M135.381555,32.1111111 C134.899638,32.1111111 134.491863,31.7222222 134.491863,31.2222222 L134.491863,30.7407407 C134.491863,30.2592593 134.881103,29.8518519 135.381555,29.8518519 C135.882007,29.8518519 136.271248,30.2407407 136.271248,30.7407407 L136.271248,31.2222222 C136.271248,31.7037037 135.863472,32.1111111 135.381555,32.1111111 Z M135.381555,27.2037037 C134.899638,27.2037037 134.491863,26.8148148 134.491863,26.3148148 L134.491863,24.1851852 C134.491863,23.7037037 134.881103,23.2962963 135.381555,23.2962963 C135.882007,23.2962963 136.271248,23.6851852 136.271248,24.1851852 L136.271248,26.3148148 C136.271248,26.8148148 135.863472,27.2037037 135.381555,27.2037037 Z M135.381555,20.6481481 C134.899638,20.6481481 134.491863,20.2592593 134.491863,19.7592593 L134.491863,17.6296296 C134.491863,17.1481481 134.881103,16.7407407 135.381555,16.7407407 C135.882007,16.7407407 136.271248,17.1296296 136.271248,17.6296296 L136.271248,19.7592593 C136.271248,20.2592593 135.863472,20.6481481 135.381555,20.6481481 Z" id="Shape" fill="#EBE7FC"></path>
                            <path d="M1.09312839,67.9814815 C0.813128391,67.9814815 0.593128391,67.7777778 0.593128391,67.5185185 L0.593128391,65.3888889 C0.593128391,65.1296296 0.813128391,64.9259259 1.09312839,64.9259259 C1.37312839,64.9259259 1.59312839,65.1296296 1.59312839,65.3888889 L1.59312839,67.5185185 C1.59312839,67.7777778 1.37312839,67.9814815 1.09312839,67.9814815 Z M1.09312839,61.4444444 C0.813128391,61.4444444 0.593128391,61.2407407 0.593128391,60.9814815 L0.593128391,58.8518519 C0.593128391,58.5925926 0.813128391,58.3888889 1.09312839,58.3888889 C1.37312839,58.3888889 1.59312839,58.5925926 1.59312839,58.8518519 L1.59312839,60.9814815 C1.59312839,61.2222222 1.37312839,61.4444444 1.09312839,61.4444444 Z M1.09312839,54.8888889 C0.813128391,54.8888889 0.593128391,54.6851852 0.593128391,54.4259259 L0.593128391,52.2962963 C0.593128391,52.037037 0.813128391,51.8333333 1.09312839,51.8333333 C1.37312839,51.8333333 1.59312839,52.037037 1.59312839,52.2962963 L1.59312839,54.4259259 C1.59312839,54.6851852 1.37312839,54.8888889 1.09312839,54.8888889 Z M1.09312839,48.3518519 C0.813128391,48.3518519 0.593128391,48.1481481 0.593128391,47.8888889 L0.593128391,45.7592593 C0.593128391,45.5 0.813128391,45.2962963 1.09312839,45.2962963 C1.37312839,45.2962963 1.59312839,45.5 1.59312839,45.7592593 L1.59312839,47.8888889 C1.59312839,48.1296296 1.37312839,48.3518519 1.09312839,48.3518519 Z M1.09312839,41.7962963 C0.813128391,41.7962963 0.593128391,41.5925926 0.593128391,41.3333333 L0.593128391,39.2037037 C0.593128391,38.9444444 0.813128391,38.7407407 1.09312839,38.7407407 C1.37312839,38.7407407 1.59312839,38.9444444 1.59312839,39.2037037 L1.59312839,41.3333333 C1.59312839,41.5925926 1.37312839,41.7962963 1.09312839,41.7962963 Z M1.09312839,35.2592593 C0.813128391,35.2592593 0.593128391,35.0555556 0.593128391,34.7962963 L0.593128391,32.6666667 C0.593128391,32.4074074 0.813128391,32.2037037 1.09312839,32.2037037 C1.37312839,32.2037037 1.59312839,32.4074074 1.59312839,32.6666667 L1.59312839,34.7962963 C1.59312839,35.037037 1.37312839,35.2592593 1.09312839,35.2592593 Z M1.09312839,28.7037037 C0.813128391,28.7037037 0.593128391,28.5 0.593128391,28.2407407 L0.593128391,26.1111111 C0.593128391,25.8518519 0.813128391,25.6481481 1.09312839,25.6481481 C1.37312839,25.6481481 1.59312839,25.8518519 1.59312839,26.1111111 L1.59312839,28.2407407 C1.59312839,28.5 1.37312839,28.7037037 1.09312839,28.7037037 Z M1.09312839,22.1666667 C0.813128391,22.1666667 0.593128391,21.962963 0.593128391,21.7037037 L0.593128391,19.5740741 C0.593128391,19.3148148 0.813128391,19.1111111 1.09312839,19.1111111 C1.37312839,19.1111111 1.59312839,19.3148148 1.59312839,19.5740741 L1.59312839,21.7037037 C1.59312839,21.9444444 1.37312839,22.1666667 1.09312839,22.1666667 Z" id="Shape" fill="#21415A"></path>
                            <path d="M135.381555,18.1111111 L133.25,18.1111111 C132.990506,18.1111111 132.786618,17.9074074 132.786618,17.6481481 C132.786618,17.3888889 132.990506,17.1851852 133.25,17.1851852 L135.381555,17.1851852 C135.641049,17.1851852 135.844937,17.3888889 135.844937,17.6481481 C135.844937,17.9074074 135.641049,18.1111111 135.381555,18.1111111 Z M128.838608,18.1111111 L126.707052,18.1111111 C126.447559,18.1111111 126.243671,17.9074074 126.243671,17.6481481 C126.243671,17.3888889 126.447559,17.1851852 126.707052,17.1851852 L128.838608,17.1851852 C129.098101,17.1851852 129.301989,17.3888889 129.301989,17.6481481 C129.301989,17.9074074 129.079566,18.1111111 128.838608,18.1111111 Z M122.277125,18.1111111 L120.14557,18.1111111 C119.886076,18.1111111 119.682188,17.9074074 119.682188,17.6481481 C119.682188,17.3888889 119.886076,17.1851852 120.14557,17.1851852 L122.277125,17.1851852 C122.536618,17.1851852 122.740506,17.3888889 122.740506,17.6481481 C122.740506,17.9074074 122.536618,18.1111111 122.277125,18.1111111 Z M115.734177,18.1111111 L113.602622,18.1111111 C113.343128,18.1111111 113.139241,17.9074074 113.139241,17.6481481 C113.139241,17.3888889 113.343128,17.1851852 113.602622,17.1851852 L115.734177,17.1851852 C115.993671,17.1851852 116.197559,17.3888889 116.197559,17.6481481 C116.197559,17.9074074 115.975136,18.1111111 115.734177,18.1111111 Z M109.172694,18.1111111 L107.041139,18.1111111 C106.781646,18.1111111 106.577758,17.9074074 106.577758,17.6481481 C106.577758,17.3888889 106.781646,17.1851852 107.041139,17.1851852 L109.172694,17.1851852 C109.432188,17.1851852 109.636076,17.3888889 109.636076,17.6481481 C109.636076,17.9074074 109.432188,18.1111111 109.172694,18.1111111 Z M102.629747,18.1111111 L100.498192,18.1111111 C100.238698,18.1111111 100.03481,17.9074074 100.03481,17.6481481 C100.03481,17.3888889 100.238698,17.1851852 100.498192,17.1851852 L102.629747,17.1851852 C102.889241,17.1851852 103.093128,17.3888889 103.093128,17.6481481 C103.093128,17.9074074 102.870705,18.1111111 102.629747,18.1111111 Z M96.068264,18.1111111 L93.9367089,18.1111111 C93.6772152,18.1111111 93.4733273,17.9074074 93.4733273,17.6481481 C93.4733273,17.3888889 93.6772152,17.1851852 93.9367089,17.1851852 L96.068264,17.1851852 C96.3277577,17.1851852 96.5316456,17.3888889 96.5316456,17.6481481 C96.5316456,17.9074074 96.3277577,18.1111111 96.068264,18.1111111 Z M89.5253165,18.1111111 L87.3937613,18.1111111 C87.1342676,18.1111111 86.9303797,17.9074074 86.9303797,17.6481481 C86.9303797,17.3888889 87.1342676,17.1851852 87.3937613,17.1851852 L89.5253165,17.1851852 C89.7848101,17.1851852 89.988698,17.3888889 89.988698,17.6481481 C89.988698,17.9074074 89.7662749,18.1111111 89.5253165,18.1111111 Z M82.9638336,18.1111111 L80.8322785,18.1111111 C80.5727848,18.1111111 80.3688969,17.9074074 80.3688969,17.6481481 C80.3688969,17.3888889 80.5727848,17.1851852 80.8322785,17.1851852 L82.9638336,17.1851852 C83.2233273,17.1851852 83.4272152,17.3888889 83.4272152,17.6481481 C83.4272152,17.9074074 83.2233273,18.1111111 82.9638336,18.1111111 Z M76.4208861,18.1111111 L74.2893309,18.1111111 C74.0298373,18.1111111 73.8259494,17.9074074 73.8259494,17.6481481 C73.8259494,17.3888889 74.0298373,17.1851852 74.2893309,17.1851852 L76.4208861,17.1851852 C76.6803797,17.1851852 76.8842676,17.3888889 76.8842676,17.6481481 C76.8842676,17.9074074 76.6618445,18.1111111 76.4208861,18.1111111 Z M69.8594033,18.1111111 L67.7278481,18.1111111 C67.4683544,18.1111111 67.2644665,17.9074074 67.2644665,17.6481481 C67.2644665,17.3888889 67.4683544,17.1851852 67.7278481,17.1851852 L69.8594033,17.1851852 C70.1188969,17.1851852 70.3227848,17.3888889 70.3227848,17.6481481 C70.3227848,17.9074074 70.1188969,18.1111111 69.8594033,18.1111111 Z M63.3164557,18.1111111 L61.1849005,18.1111111 C60.9254069,18.1111111 60.721519,17.9074074 60.721519,17.6481481 C60.721519,17.3888889 60.9254069,17.1851852 61.1849005,17.1851852 L63.3164557,17.1851852 C63.5759494,17.1851852 63.7798373,17.3888889 63.7798373,17.6481481 C63.7798373,17.9074074 63.5574141,18.1111111 63.3164557,18.1111111 Z M56.7549729,18.1111111 L54.6234177,18.1111111 C54.3639241,18.1111111 54.1600362,17.9074074 54.1600362,17.6481481 C54.1600362,17.3888889 54.3639241,17.1851852 54.6234177,17.1851852 L56.7549729,17.1851852 C57.0144665,17.1851852 57.2183544,17.3888889 57.2183544,17.6481481 C57.2183544,17.9074074 57.0144665,18.1111111 56.7549729,18.1111111 Z M50.2120253,18.1111111 L48.0804702,18.1111111 C47.8209765,18.1111111 47.6170886,17.9074074 47.6170886,17.6481481 C47.6170886,17.3888889 47.8209765,17.1851852 48.0804702,17.1851852 L50.2120253,17.1851852 C50.471519,17.1851852 50.6754069,17.3888889 50.6754069,17.6481481 C50.6754069,17.9074074 50.4529837,18.1111111 50.2120253,18.1111111 Z M43.6505425,18.1111111 L41.5189873,18.1111111 C41.2594937,18.1111111 41.0556058,17.9074074 41.0556058,17.6481481 C41.0556058,17.3888889 41.2594937,17.1851852 41.5189873,17.1851852 L43.6505425,17.1851852 C43.9100362,17.1851852 44.1139241,17.3888889 44.1139241,17.6481481 C44.1139241,17.9074074 43.9100362,18.1111111 43.6505425,18.1111111 Z M37.1075949,18.1111111 L34.9760398,18.1111111 C34.7165461,18.1111111 34.5126582,17.9074074 34.5126582,17.6481481 C34.5126582,17.3888889 34.7165461,17.1851852 34.9760398,17.1851852 L37.1075949,17.1851852 C37.3670886,17.1851852 37.5709765,17.3888889 37.5709765,17.6481481 C37.5709765,17.9074074 37.3485533,18.1111111 37.1075949,18.1111111 Z M30.5461121,18.1111111 L28.414557,18.1111111 C28.1550633,18.1111111 27.9511754,17.9074074 27.9511754,17.6481481 C27.9511754,17.3888889 28.1550633,17.1851852 28.414557,17.1851852 L30.5461121,17.1851852 C30.8056058,17.1851852 31.0094937,17.3888889 31.0094937,17.6481481 C31.0094937,17.9074074 30.8056058,18.1111111 30.5461121,18.1111111 Z M24.0031646,18.1111111 L21.8716094,18.1111111 C21.6121157,18.1111111 21.4082278,17.9074074 21.4082278,17.6481481 C21.4082278,17.3888889 21.6121157,17.1851852 21.8716094,17.1851852 L24.0031646,17.1851852 C24.2626582,17.1851852 24.4665461,17.3888889 24.4665461,17.6481481 C24.4665461,17.9074074 24.244123,18.1111111 24.0031646,18.1111111 Z M17.4416817,18.1111111 L15.3101266,18.1111111 C15.0506329,18.1111111 14.846745,17.9074074 14.846745,17.6481481 C14.846745,17.3888889 15.0506329,17.1851852 15.3101266,17.1851852 L17.4416817,17.1851852 C17.7011754,17.1851852 17.9050633,17.3888889 17.9050633,17.6481481 C17.9050633,17.9074074 17.7011754,18.1111111 17.4416817,18.1111111 Z M10.8987342,18.1111111 L8.76717902,18.1111111 C8.50768535,18.1111111 8.30379747,17.9074074 8.30379747,17.6481481 C8.30379747,17.3888889 8.50768535,17.1851852 8.76717902,17.1851852 L10.8987342,17.1851852 C11.1582278,17.1851852 11.3621157,17.3888889 11.3621157,17.6481481 C11.3621157,17.9074074 11.1396926,18.1111111 10.8987342,18.1111111 Z M4.33725136,18.1111111 L2.2056962,18.1111111 C1.94620253,18.1111111 1.74231465,17.9074074 1.74231465,17.6481481 C1.74231465,17.3888889 1.94620253,17.1851852 2.2056962,17.1851852 L4.33725136,17.1851852 C4.59674503,17.1851852 4.80063291,17.3888889 4.80063291,17.6481481 C4.80063291,17.9074074 4.59674503,18.1111111 4.33725136,18.1111111 Z M135.381555,16.5185185 C135.122061,16.5185185 134.918174,16.3148148 134.918174,16.0555556 L134.918174,13.9259259 C134.918174,13.6666667 135.122061,13.462963 135.381555,13.462963 C135.641049,13.462963 135.844937,13.6666667 135.844937,13.9259259 L135.844937,16.0555556 C135.844937,16.3148148 135.641049,16.5185185 135.381555,16.5185185 Z M1.05650995,14.8518519 C0.797016275,14.8518519 0.593128391,14.6481481 0.593128391,14.3888889 L0.593128391,12.2592593 C0.593128391,12 0.797016275,11.7962963 1.05650995,11.7962963 C1.31600362,11.7962963 1.5198915,12 1.5198915,12.2592593 L1.5198915,14.3888889 C1.5198915,14.6296296 1.31600362,14.8518519 1.05650995,14.8518519 Z M135.381555,9.96296296 C135.122061,9.96296296 134.918174,9.75925926 134.918174,9.5 L134.918174,7.37037037 C134.918174,7.11111111 135.122061,6.90740741 135.381555,6.90740741 C135.641049,6.90740741 135.844937,7.11111111 135.844937,7.37037037 L135.844937,9.5 C135.844937,9.75925926 135.641049,9.96296296 135.381555,9.96296296 Z M1.05650995,8.2962963 C0.797016275,8.2962963 0.593128391,8.09259259 0.593128391,7.83333333 L0.593128391,5.7037037 C0.593128391,5.44444444 0.797016275,5.24074074 1.05650995,5.24074074 C1.31600362,5.24074074 1.5198915,5.44444444 1.5198915,5.7037037 L1.5198915,7.83333333 C1.5198915,8.09259259 1.31600362,8.2962963 1.05650995,8.2962963 Z M134.714286,3.53703704 C134.547468,3.53703704 134.399186,3.44444444 134.30651,3.2962963 C133.99141,2.74074074 133.546564,2.24074074 133.027577,1.87037037 C132.823689,1.72222222 132.768083,1.42592593 132.916365,1.22222222 C133.064647,1.01851852 133.361212,0.962962963 133.565099,1.11111111 C134.195298,1.55555556 134.714286,2.14814815 135.103526,2.81481481 C135.233273,3.03703704 135.159132,3.31481481 134.936709,3.44444444 C134.881103,3.51851852 134.806962,3.53703704 134.714286,3.53703704 Z M2.78028933,2.25925926 C2.6505425,2.25925926 2.52079566,2.2037037 2.42811935,2.09259259 C2.26130199,1.90740741 2.27983725,1.61111111 2.46518987,1.44444444 C3.05831826,0.925925926 3.7255877,0.555555556 4.48553345,0.333333333 C4.72649186,0.259259259 4.98598553,0.388888889 5.06012658,0.648148148 C5.13426763,0.888888889 5.0045208,1.14814815 4.74502712,1.22222222 C4.13336347,1.40740741 3.55877034,1.72222222 3.07685353,2.14814815 C2.98417722,2.22222222 2.8915009,2.25925926 2.78028933,2.25925926 Z M129.079566,1.01851852 L126.966546,1.01851852 C126.707052,1.01851852 126.503165,0.814814815 126.503165,0.555555556 C126.503165,0.296296296 126.707052,0.0925925926 126.966546,0.0925925926 L129.098101,0.0925925926 C129.357595,0.0925925926 129.561483,0.296296296 129.561483,0.555555556 C129.561483,0.814814815 129.33906,1.01851852 129.079566,1.01851852 Z M122.536618,1.01851852 L120.405063,1.01851852 C120.14557,1.01851852 119.941682,0.814814815 119.941682,0.555555556 C119.941682,0.296296296 120.14557,0.0925925926 120.405063,0.0925925926 L122.536618,0.0925925926 C122.796112,0.0925925926 123,0.296296296 123,0.555555556 C123,0.814814815 122.796112,1.01851852 122.536618,1.01851852 Z M115.975136,1.01851852 L113.84358,1.01851852 C113.584087,1.01851852 113.380199,0.814814815 113.380199,0.555555556 C113.380199,0.296296296 113.584087,0.0925925926 113.84358,0.0925925926 L115.975136,0.0925925926 C116.234629,0.0925925926 116.438517,0.296296296 116.438517,0.555555556 C116.438517,0.814814815 116.234629,1.01851852 115.975136,1.01851852 Z M109.432188,1.01851852 L107.300633,1.01851852 C107.041139,1.01851852 106.837251,0.814814815 106.837251,0.555555556 C106.837251,0.296296296 107.041139,0.0925925926 107.300633,0.0925925926 L109.432188,0.0925925926 C109.691682,0.0925925926 109.89557,0.296296296 109.89557,0.555555556 C109.89557,0.814814815 109.691682,1.01851852 109.432188,1.01851852 Z M102.870705,1.01851852 L100.73915,1.01851852 C100.479656,1.01851852 100.275769,0.814814815 100.275769,0.555555556 C100.275769,0.296296296 100.479656,0.0925925926 100.73915,0.0925925926 L102.870705,0.0925925926 C103.130199,0.0925925926 103.334087,0.296296296 103.334087,0.555555556 C103.334087,0.814814815 103.130199,1.01851852 102.870705,1.01851852 Z M96.3277577,1.01851852 L94.1962025,1.01851852 C93.9367089,1.01851852 93.732821,0.814814815 93.732821,0.555555556 C93.732821,0.296296296 93.9367089,0.0925925926 94.1962025,0.0925925926 L96.3277577,0.0925925926 C96.5872514,0.0925925926 96.7911392,0.296296296 96.7911392,0.555555556 C96.7911392,0.814814815 96.5872514,1.01851852 96.3277577,1.01851852 Z M89.7662749,1.01851852 L87.6347197,1.01851852 C87.375226,1.01851852 87.1713382,0.814814815 87.1713382,0.555555556 C87.1713382,0.296296296 87.375226,0.0925925926 87.6347197,0.0925925926 L89.7662749,0.0925925926 C90.0257685,0.0925925926 90.2296564,0.296296296 90.2296564,0.555555556 C90.2296564,0.814814815 90.0257685,1.01851852 89.7662749,1.01851852 Z M83.2233273,1.01851852 L81.0917722,1.01851852 C80.8322785,1.01851852 80.6283906,0.814814815 80.6283906,0.555555556 C80.6283906,0.296296296 80.8322785,0.0925925926 81.0917722,0.0925925926 L83.2233273,0.0925925926 C83.482821,0.0925925926 83.6867089,0.296296296 83.6867089,0.555555556 C83.6867089,0.814814815 83.482821,1.01851852 83.2233273,1.01851852 Z M76.6618445,1.01851852 L74.5302893,1.01851852 C74.2707957,1.01851852 74.0669078,0.814814815 74.0669078,0.555555556 C74.0669078,0.296296296 74.2707957,0.0925925926 74.5302893,0.0925925926 L76.6618445,0.0925925926 C76.9213382,0.0925925926 77.125226,0.296296296 77.125226,0.555555556 C77.125226,0.814814815 76.9213382,1.01851852 76.6618445,1.01851852 Z M70.1188969,1.01851852 L67.9873418,1.01851852 C67.7278481,1.01851852 67.5239602,0.814814815 67.5239602,0.555555556 C67.5239602,0.296296296 67.7278481,0.0925925926 67.9873418,0.0925925926 L70.1188969,0.0925925926 C70.3783906,0.0925925926 70.5822785,0.296296296 70.5822785,0.555555556 C70.5822785,0.814814815 70.3783906,1.01851852 70.1188969,1.01851852 Z M63.5574141,1.01851852 L61.425859,1.01851852 C61.1663653,1.01851852 60.9624774,0.814814815 60.9624774,0.555555556 C60.9624774,0.296296296 61.1663653,0.0925925926 61.425859,0.0925925926 L63.5574141,0.0925925926 C63.8169078,0.0925925926 64.0207957,0.296296296 64.0207957,0.555555556 C64.0207957,0.814814815 63.8169078,1.01851852 63.5574141,1.01851852 Z M57.0144665,1.01851852 L54.8829114,1.01851852 C54.6234177,1.01851852 54.4195298,0.814814815 54.4195298,0.555555556 C54.4195298,0.296296296 54.6234177,0.0925925926 54.8829114,0.0925925926 L57.0144665,0.0925925926 C57.2739602,0.0925925926 57.4778481,0.296296296 57.4778481,0.555555556 C57.4778481,0.814814815 57.2739602,1.01851852 57.0144665,1.01851852 Z M50.4529837,1.01851852 L48.3214286,1.01851852 C48.0619349,1.01851852 47.858047,0.814814815 47.858047,0.555555556 C47.858047,0.296296296 48.0619349,0.0925925926 48.3214286,0.0925925926 L50.4529837,0.0925925926 C50.7124774,0.0925925926 50.9163653,0.296296296 50.9163653,0.555555556 C50.9163653,0.814814815 50.7124774,1.01851852 50.4529837,1.01851852 Z M43.9100362,1.01851852 L41.778481,1.01851852 C41.5189873,1.01851852 41.3150995,0.814814815 41.3150995,0.555555556 C41.3150995,0.296296296 41.5189873,0.0925925926 41.778481,0.0925925926 L43.9100362,0.0925925926 C44.1695298,0.0925925926 44.3734177,0.296296296 44.3734177,0.555555556 C44.3734177,0.814814815 44.1695298,1.01851852 43.9100362,1.01851852 Z M37.3670886,1.01851852 L35.2355335,1.01851852 C34.9760398,1.01851852 34.7721519,0.814814815 34.7721519,0.555555556 C34.7721519,0.296296296 34.9760398,0.0925925926 35.2355335,0.0925925926 L37.3670886,0.0925925926 C37.6265823,0.0925925926 37.8304702,0.296296296 37.8304702,0.555555556 C37.8304702,0.814814815 37.608047,1.01851852 37.3670886,1.01851852 Z M30.8056058,1.01851852 L28.6740506,1.01851852 C28.414557,1.01851852 28.2106691,0.814814815 28.2106691,0.555555556 C28.2106691,0.296296296 28.414557,0.0925925926 28.6740506,0.0925925926 L30.8056058,0.0925925926 C31.0650995,0.0925925926 31.2689873,0.296296296 31.2689873,0.555555556 C31.2689873,0.814814815 31.0650995,1.01851852 30.8056058,1.01851852 Z M24.2626582,1.01851852 L22.1311031,1.01851852 C21.8716094,1.01851852 21.6677215,0.814814815 21.6677215,0.555555556 C21.6677215,0.296296296 21.8716094,0.0925925926 22.1311031,0.0925925926 L24.2626582,0.0925925926 C24.5221519,0.0925925926 24.7260398,0.296296296 24.7260398,0.555555556 C24.7260398,0.814814815 24.5036166,1.01851852 24.2626582,1.01851852 Z M17.7011754,1.01851852 L15.5696203,1.01851852 C15.3101266,1.01851852 15.1062387,0.814814815 15.1062387,0.555555556 C15.1062387,0.296296296 15.3101266,0.0925925926 15.5696203,0.0925925926 L17.7011754,0.0925925926 C17.9606691,0.0925925926 18.164557,0.296296296 18.164557,0.555555556 C18.164557,0.814814815 17.9606691,1.01851852 17.7011754,1.01851852 Z M11.1582278,1.01851852 L9.02667269,1.01851852 C8.76717902,1.01851852 8.56329114,0.814814815 8.56329114,0.555555556 C8.56329114,0.296296296 8.76717902,0.0925925926 9.02667269,0.0925925926 L11.1582278,0.0925925926 C11.4177215,0.0925925926 11.6216094,0.296296296 11.6216094,0.555555556 C11.6216094,0.814814815 11.3991863,1.01851852 11.1582278,1.01851852 Z" id="Shape" fill="#21415A"></path>
                            <g transform="translate(6.487342, 5.185185)" fill="#21415A" id="Shape">
                                <path d="M3.7255877,7.62962963 C3.7255877,7.62962963 3.7255877,7.62962963 3.7255877,7.62962963 C3.42902351,7.61111111 3.15099458,7.57407407 2.87296564,7.5 C2.63200723,7.42592593 2.48372514,7.18518519 2.53933092,6.92592593 C2.61347197,6.68518519 2.85443038,6.53703704 3.11392405,6.59259259 C3.31781193,6.64814815 3.52169982,6.68518519 3.74412297,6.68518519 C4.00361664,6.7037037 4.20750452,6.90740741 4.18896926,7.16666667 C4.18896926,7.42592593 3.98508137,7.62962963 3.7255877,7.62962963 Z M5.50497288,7.18518519 C5.33815552,7.18518519 5.18987342,7.11111111 5.09719711,6.96296296 C4.96745027,6.74074074 5.04159132,6.46296296 5.26401447,6.33333333 C5.44936709,6.22222222 5.61618445,6.09259259 5.76446655,5.94444444 C5.94981917,5.77777778 6.24638336,5.77777778 6.41320072,5.96296296 C6.58001808,6.14814815 6.58001808,6.44444444 6.39466546,6.61111111 C6.19077758,6.7962963 5.96835443,6.98148148 5.72739602,7.11111111 C5.67179024,7.16666667 5.57911392,7.18518519 5.50497288,7.18518519 Z M1.44575045,6.55555556 C1.31600362,6.55555556 1.18625678,6.5 1.09358047,6.40740741 C0.908227848,6.2037037 0.741410488,5.96296296 0.593128391,5.72222222 C0.463381555,5.5 0.556057866,5.22222222 0.778481013,5.09259259 C1.00090416,4.96296296 1.27893309,5.05555556 1.40867993,5.27777778 C1.5198915,5.46296296 1.63110307,5.62962963 1.77938517,5.7962963 C1.94620253,5.98148148 1.94620253,6.27777778 1.74231465,6.44444444 C1.6681736,6.51851852 1.55696203,6.55555556 1.44575045,6.55555556 Z M7.02486438,5.16666667 C6.98779385,5.16666667 6.95072333,5.16666667 6.9136528,5.14814815 C6.67269439,5.09259259 6.50587703,4.83333333 6.58001808,4.59259259 C6.63562387,4.38888889 6.65415913,4.18518519 6.67269439,3.96296296 C6.67269439,3.7037037 6.89511754,3.5 7.13607595,3.5 C7.39556962,3.5 7.5994575,3.72222222 7.5994575,3.96296296 C7.5994575,4.24074074 7.56238698,4.51851852 7.48824593,4.7962963 C7.41410488,5.01851852 7.22875226,5.16666667 7.02486438,5.16666667 Z M0.593128391,4.18518519 C0.593128391,4.18518519 0.574593128,4.18518519 0.574593128,4.18518519 C0.315099458,4.16666667 0.129746835,3.94444444 0.129746835,3.7037037 C0.148282098,3.42592593 0.185352622,3.14814815 0.278028933,2.87037037 C0.352169982,2.62962963 0.611663653,2.48148148 0.852622061,2.55555556 C1.09358047,2.62962963 1.24186257,2.88888889 1.16772152,3.12962963 C1.11211573,3.33333333 1.07504521,3.53703704 1.05650995,3.75925926 C1.03797468,3.98148148 0.834086799,4.18518519 0.593128391,4.18518519 Z M6.63562387,2.66666667 C6.48734177,2.66666667 6.32052441,2.59259259 6.24638336,2.44444444 C6.13517179,2.25925926 6.00542495,2.09259259 5.85714286,1.94444444 C5.67179024,1.75925926 5.67179024,1.46296296 5.85714286,1.2962963 C6.04249548,1.11111111 6.33905967,1.11111111 6.50587703,1.2962963 C6.70976492,1.5 6.87658228,1.72222222 7.02486438,1.96296296 C7.15461121,2.18518519 7.09900542,2.46296296 6.87658228,2.59259259 C6.80244123,2.64814815 6.72830018,2.66666667 6.63562387,2.66666667 Z M1.70524412,1.90740741 C1.57549729,1.90740741 1.44575045,1.85185185 1.35307414,1.74074074 C1.18625678,1.55555556 1.20479204,1.25925926 1.39014467,1.09259259 C1.59403255,0.907407407 1.83499096,0.740740741 2.07594937,0.611111111 C2.29837251,0.481481481 2.57640145,0.574074074 2.70614828,0.796296296 C2.83589512,1.01851852 2.74321881,1.2962963 2.52079566,1.42592593 C2.33544304,1.51851852 2.15009042,1.64814815 2.00180832,1.77777778 C1.92766727,1.87037037 1.8164557,1.90740741 1.70524412,1.90740741 Z M4.59674503,1.18518519 C4.5596745,1.18518519 4.52260398,1.18518519 4.48553345,1.16666667 C4.28164557,1.11111111 4.05922242,1.09259259 3.85533454,1.09259259 C3.59584087,1.09259259 3.39195298,0.888888889 3.39195298,0.62962963 C3.39195298,0.37037037 3.59584087,0.166666667 3.85533454,0.166666667 C4.13336347,0.166666667 4.42992767,0.203703704 4.68942134,0.259259259 C4.93037975,0.314814815 5.09719711,0.574074074 5.04159132,0.814814815 C4.98598553,1.05555556 4.80063291,1.18518519 4.59674503,1.18518519 Z"></path>
                                <path d="M14.8652803,7.62962963 C14.8652803,7.62962963 14.8652803,7.62962963 14.8652803,7.62962963 C14.5687161,7.61111111 14.2906872,7.57407407 14.0126582,7.5 C13.7716998,7.42592593 13.6234177,7.18518519 13.6790235,6.92592593 C13.7531646,6.68518519 13.994123,6.53703704 14.2536166,6.59259259 C14.4575045,6.64814815 14.6613924,6.68518519 14.8838156,6.68518519 C15.1433092,6.7037037 15.3471971,6.90740741 15.3286618,7.16666667 C15.3286618,7.42592593 15.124774,7.62962963 14.8652803,7.62962963 Z M16.6446655,7.18518519 C16.4778481,7.18518519 16.329566,7.11111111 16.2368897,6.96296296 C16.1071429,6.74074074 16.1812839,6.46296296 16.4037071,6.33333333 C16.5890597,6.22222222 16.755877,6.09259259 16.9041591,5.94444444 C17.0895118,5.77777778 17.3860759,5.77777778 17.5528933,5.96296296 C17.7197107,6.14814815 17.7197107,6.44444444 17.534358,6.61111111 C17.3304702,6.7962963 17.108047,6.98148148 16.8670886,7.11111111 C16.8114828,7.16666667 16.7188065,7.18518519 16.6446655,7.18518519 Z M12.585443,6.55555556 C12.4556962,6.55555556 12.3259494,6.5 12.2332731,6.40740741 C12.0479204,6.2037037 11.8811031,5.96296296 11.732821,5.72222222 C11.6030741,5.5 11.6957505,5.22222222 11.9181736,5.09259259 C12.1405967,4.96296296 12.4186257,5.05555556 12.5483725,5.27777778 C12.6595841,5.46296296 12.7707957,5.62962963 12.9190778,5.7962963 C13.0858951,5.98148148 13.0858951,6.27777778 12.8820072,6.44444444 C12.8078662,6.51851852 12.6966546,6.55555556 12.585443,6.55555556 Z M18.164557,5.16666667 C18.1274864,5.16666667 18.0904159,5.16666667 18.0533454,5.14814815 C17.812387,5.09259259 17.6455696,4.83333333 17.7197107,4.59259259 C17.7753165,4.38888889 17.7938517,4.18518519 17.812387,3.96296296 C17.812387,3.7037037 18.0348101,3.5 18.2757685,3.5 C18.5352622,3.5 18.7391501,3.72222222 18.7391501,3.96296296 C18.7391501,4.24074074 18.7020796,4.51851852 18.6279385,4.7962963 C18.5537975,5.01851852 18.3684448,5.16666667 18.164557,5.16666667 Z M11.732821,4.18518519 C11.732821,4.18518519 11.7142857,4.18518519 11.7142857,4.18518519 C11.454792,4.16666667 11.2694394,3.94444444 11.2694394,3.7037037 C11.2879747,3.42592593 11.3250452,3.14814815 11.4177215,2.87037037 C11.4918626,2.62962963 11.7513562,2.48148148 11.9923146,2.55555556 C12.2332731,2.62962963 12.3815552,2.88888889 12.3074141,3.12962963 C12.2518083,3.33333333 12.2147378,3.53703704 12.1962025,3.75925926 C12.1776673,3.98148148 11.9737794,4.18518519 11.732821,4.18518519 Z M17.7753165,2.66666667 C17.6270344,2.66666667 17.460217,2.59259259 17.3860759,2.44444444 C17.2748644,2.25925926 17.1451175,2.09259259 16.9968354,1.94444444 C16.8114828,1.75925926 16.8114828,1.46296296 16.9968354,1.2962963 C17.1821881,1.11111111 17.4787523,1.11111111 17.6455696,1.2962963 C17.8494575,1.5 18.0162749,1.72222222 18.164557,1.96296296 C18.2943038,2.18518519 18.238698,2.46296296 18.0162749,2.59259259 C17.9421338,2.64814815 17.8679928,2.66666667 17.7753165,2.66666667 Z M12.8449367,1.90740741 C12.7151899,1.90740741 12.585443,1.85185185 12.4927667,1.74074074 C12.3259494,1.55555556 12.3444846,1.25925926 12.5298373,1.09259259 C12.7337251,0.907407407 12.9746835,0.740740741 13.215642,0.611111111 C13.4380651,0.481481481 13.716094,0.574074074 13.8458409,0.796296296 C13.9755877,1.01851852 13.8829114,1.2962963 13.6604882,1.42592593 C13.4751356,1.51851852 13.289783,1.64814815 13.1415009,1.77777778 C13.0673599,1.87037037 12.9561483,1.90740741 12.8449367,1.90740741 Z M15.7364376,1.18518519 C15.6993671,1.18518519 15.6622966,1.18518519 15.625226,1.16666667 C15.4213382,1.11111111 15.198915,1.09259259 14.9950271,1.09259259 C14.7355335,1.09259259 14.5316456,0.888888889 14.5316456,0.62962963 C14.5316456,0.37037037 14.7355335,0.166666667 14.9950271,0.166666667 C15.2730561,0.166666667 15.5696203,0.203703704 15.8291139,0.259259259 C16.0700723,0.314814815 16.2368897,0.574074074 16.1812839,0.814814815 C16.1256781,1.05555556 15.9403255,1.18518519 15.7364376,1.18518519 Z"></path>
                                <path d="M26.0049729,7.62962963 C26.0049729,7.62962963 26.0049729,7.62962963 26.0049729,7.62962963 C25.7084087,7.61111111 25.4303797,7.57407407 25.1523508,7.5 C24.9113924,7.42592593 24.7631103,7.18518519 24.8187161,6.92592593 C24.8928571,6.68518519 25.1338156,6.53703704 25.3933092,6.59259259 C25.5971971,6.64814815 25.801085,6.68518519 26.0235081,6.68518519 C26.2830018,6.7037037 26.4868897,6.90740741 26.4683544,7.16666667 C26.4683544,7.42592593 26.2644665,7.62962963 26.0049729,7.62962963 Z M27.784358,7.18518519 C27.6175407,7.18518519 27.4692586,7.11111111 27.3765823,6.96296296 C27.2468354,6.74074074 27.3209765,6.46296296 27.5433996,6.33333333 C27.7287523,6.22222222 27.8955696,6.09259259 28.0438517,5.94444444 C28.2292043,5.77777778 28.5257685,5.77777778 28.6925859,5.96296296 C28.8594033,6.14814815 28.8594033,6.44444444 28.6740506,6.61111111 C28.4701627,6.7962963 28.2477396,6.98148148 28.0067812,7.11111111 C27.9511754,7.16666667 27.8584991,7.18518519 27.784358,7.18518519 Z M23.7251356,6.55555556 C23.5953888,6.55555556 23.465642,6.5 23.3729656,6.40740741 C23.187613,6.2037037 23.0207957,5.96296296 22.8725136,5.72222222 C22.7427667,5.5 22.835443,5.22222222 23.0578662,5.09259259 C23.2802893,4.96296296 23.5583183,5.05555556 23.6880651,5.27777778 C23.7992767,5.46296296 23.9104882,5.62962963 24.0587703,5.7962963 C24.2255877,5.98148148 24.2255877,6.27777778 24.0216998,6.44444444 C23.9475588,6.51851852 23.8363472,6.55555556 23.7251356,6.55555556 Z M29.3042495,5.16666667 C29.267179,5.16666667 29.2301085,5.16666667 29.193038,5.14814815 C28.9520796,5.09259259 28.7852622,4.83333333 28.8594033,4.59259259 C28.915009,4.38888889 28.9335443,4.18518519 28.9520796,3.96296296 C28.9520796,3.7037037 29.1745027,3.5 29.4154611,3.5 C29.6749548,3.5 29.8788427,3.72222222 29.8788427,3.96296296 C29.8788427,4.24074074 29.8417722,4.51851852 29.7676311,4.7962963 C29.6934901,5.01851852 29.5081374,5.16666667 29.3042495,5.16666667 Z M22.8725136,4.18518519 C22.8725136,4.18518519 22.8539783,4.18518519 22.8539783,4.18518519 C22.5944846,4.16666667 22.409132,3.94444444 22.409132,3.7037037 C22.4276673,3.42592593 22.4647378,3.14814815 22.5574141,2.87037037 C22.6315552,2.62962963 22.8910488,2.48148148 23.1320072,2.55555556 C23.3729656,2.62962963 23.5212477,2.88888889 23.4471067,3.12962963 C23.3915009,3.33333333 23.3544304,3.53703704 23.3358951,3.75925926 C23.3173599,3.98148148 23.113472,4.18518519 22.8725136,4.18518519 Z M28.915009,2.66666667 C28.7667269,2.66666667 28.5999096,2.59259259 28.5257685,2.44444444 C28.414557,2.25925926 28.2848101,2.09259259 28.136528,1.94444444 C27.9511754,1.75925926 27.9511754,1.46296296 28.136528,1.2962963 C28.3218807,1.11111111 28.6184448,1.11111111 28.7852622,1.2962963 C28.9891501,1.5 29.1559675,1.72222222 29.3042495,1.96296296 C29.4339964,2.18518519 29.3783906,2.46296296 29.1559675,2.59259259 C29.0818264,2.64814815 29.0076854,2.66666667 28.915009,2.66666667 Z M23.9846293,1.90740741 C23.8548825,1.90740741 23.7251356,1.85185185 23.6324593,1.74074074 C23.465642,1.55555556 23.4841772,1.25925926 23.6695298,1.09259259 C23.8734177,0.907407407 24.1143761,0.740740741 24.3553345,0.611111111 C24.5777577,0.481481481 24.8557866,0.574074074 24.9855335,0.796296296 C25.1152803,1.01851852 25.022604,1.2962963 24.8001808,1.42592593 C24.6148282,1.51851852 24.4294756,1.64814815 24.2811935,1.77777778 C24.2070524,1.87037037 24.0958409,1.90740741 23.9846293,1.90740741 Z M26.8761302,1.18518519 C26.8390597,1.18518519 26.8019892,1.18518519 26.7649186,1.16666667 C26.5610307,1.11111111 26.3386076,1.09259259 26.1347197,1.09259259 C25.875226,1.09259259 25.6713382,0.888888889 25.6713382,0.62962963 C25.6713382,0.37037037 25.875226,0.166666667 26.1347197,0.166666667 C26.4127486,0.166666667 26.7093128,0.203703704 26.9688065,0.259259259 C27.2097649,0.314814815 27.3765823,0.574074074 27.3209765,0.814814815 C27.2653707,1.05555556 27.0800181,1.18518519 26.8761302,1.18518519 Z"></path>
                            </g>
                        </g>
                        <g transform="translate(15.940325, 114.444444)">
                            <g id="Path">
                                <path d="M0.129746835,0.685185185 L8.50768535,0.685185185 C11.2879747,0.685185185 13.5492767,2.94444444 13.5492767,5.72222222 L13.5492767,8.24074074 C13.5492767,11.0185185 11.2879747,13.2777778 8.50768535,13.2777778 L0.129746835,13.2777778" fill="#FFFFFF"></path>
                                <path d="M8.50768535,13.8333333 L0.129746835,13.8333333 L0.129746835,12.7222222 L8.50768535,12.7222222 C10.9728752,12.7222222 12.9932188,10.7037037 12.9932188,8.24074074 L12.9932188,5.72222222 C12.9932188,3.25925926 10.9728752,1.24074074 8.50768535,1.24074074 L0.129746835,1.24074074 L0.129746835,0.12962963 L8.50768535,0.12962963 C11.6030741,0.12962963 14.1053345,2.62962963 14.1053345,5.72222222 L14.1053345,8.24074074 C14.1053345,11.3333333 11.6030741,13.8333333 8.50768535,13.8333333 Z" fill="#EBE7FC"></path>
                            </g>
                            <g transform="translate(12.974684, 0.000000)">
                                <path d="M22.3535262,13.2592593 L5.59764919,13.2592593 C2.81735986,13.2592593 0.556057866,11 0.556057866,8.22222222 L0.556057866,5.7037037 C0.556057866,2.92592593 2.81735986,0.666666667 5.59764919,0.666666667 L22.3535262,0.666666667 C25.1338156,0.666666667 27.3951175,2.92592593 27.3951175,5.7037037 L27.3951175,8.22222222 C27.3951175,11 25.1338156,13.2592593 22.3535262,13.2592593 Z" id="Path" fill="#FFFFFF"></path>
                                <path d="M22.3535262,13.8148148 L5.59764919,13.8148148 C2.5022604,13.8148148 5.68434189e-14,11.3148148 5.68434189e-14,8.22222222 L5.68434189e-14,5.7037037 C5.68434189e-14,2.61111111 2.5022604,0.111111111 5.59764919,0.111111111 L22.3535262,0.111111111 C25.448915,0.111111111 27.9511754,2.61111111 27.9511754,5.7037037 L27.9511754,8.22222222 C27.9511754,11.3148148 25.448915,13.8148148 22.3535262,13.8148148 Z M5.59764919,1.22222222 C3.13245931,1.22222222 1.11211573,3.24074074 1.11211573,5.7037037 L1.11211573,8.22222222 C1.11211573,10.6851852 3.13245931,12.7037037 5.59764919,12.7037037 L22.3535262,12.7037037 C24.8187161,12.7037037 26.8390597,10.6851852 26.8390597,8.22222222 L26.8390597,5.7037037 C26.8390597,3.24074074 24.8187161,1.22222222 22.3535262,1.22222222 L5.59764919,1.22222222 Z" id="Shape" fill="#EBE7FC"></path>
                            </g>
                            <g transform="translate(39.665461, 0.000000)">
                                <path d="M22.4832731,13.2592593 L5.72739602,13.2592593 C2.94710669,13.2592593 0.685804702,11 0.685804702,8.22222222 L0.685804702,5.7037037 C0.685804702,2.92592593 2.94710669,0.666666667 5.72739602,0.666666667 L22.4832731,0.666666667 C25.2635624,0.666666667 27.5248644,2.92592593 27.5248644,5.7037037 L27.5248644,8.22222222 C27.5248644,11 25.2635624,13.2592593 22.4832731,13.2592593 Z" id="Path" fill="#FFFFFF"></path>
                                <path d="M22.4832731,13.8148148 L5.72739602,13.8148148 C2.63200723,13.8148148 0.129746835,11.3148148 0.129746835,8.22222222 L0.129746835,5.7037037 C0.129746835,2.61111111 2.63200723,0.111111111 5.72739602,0.111111111 L22.4832731,0.111111111 C25.5786618,0.111111111 28.0809222,2.61111111 28.0809222,5.7037037 L28.0809222,8.22222222 C28.0809222,11.3148148 25.5786618,13.8148148 22.4832731,13.8148148 Z M5.72739602,1.22222222 C3.26220615,1.22222222 1.24186257,3.24074074 1.24186257,5.7037037 L1.24186257,8.22222222 C1.24186257,10.6851852 3.26220615,12.7037037 5.72739602,12.7037037 L22.4832731,12.7037037 C24.9484629,12.7037037 26.9688065,10.6851852 26.9688065,8.22222222 L26.9688065,5.7037037 C26.9688065,3.24074074 24.9484629,1.22222222 22.4832731,1.22222222 L5.72739602,1.22222222 Z" id="Shape" fill="#EBE7FC"></path>
                            </g>
                            <g transform="translate(66.541591, 0.000000)">
                                <path d="M22.4462025,13.2592593 L5.6903255,13.2592593 C2.91003617,13.2592593 0.648734177,11 0.648734177,8.22222222 L0.648734177,5.7037037 C0.648734177,2.92592593 2.91003617,0.666666667 5.6903255,0.666666667 L22.4462025,0.666666667 C25.2264919,0.666666667 27.4877939,2.92592593 27.4877939,5.7037037 L27.4877939,8.22222222 C27.4692586,11 25.2264919,13.2592593 22.4462025,13.2592593 Z" id="Path" fill="#FFFFFF"></path>
                                <path d="M22.4462025,13.8148148 L5.6903255,13.8148148 C2.59493671,13.8148148 0.092676311,11.3148148 0.092676311,8.22222222 L0.092676311,5.7037037 C0.092676311,2.61111111 2.59493671,0.111111111 5.6903255,0.111111111 L22.4462025,0.111111111 C25.5415913,0.111111111 28.0438517,2.61111111 28.0438517,5.7037037 L28.0438517,8.22222222 C28.0253165,11.3148148 25.5045208,13.8148148 22.4462025,13.8148148 Z M5.6903255,1.22222222 C3.22513562,1.22222222 1.20479204,3.24074074 1.20479204,5.7037037 L1.20479204,8.22222222 C1.20479204,10.6851852 3.22513562,12.7037037 5.6903255,12.7037037 L22.4462025,12.7037037 C24.9113924,12.7037037 26.9132007,10.6851852 26.931736,8.22222222 L26.931736,5.7037037 C26.931736,3.24074074 24.9113924,1.22222222 22.4462025,1.22222222 L5.6903255,1.22222222 Z" id="Shape" fill="#EBE7FC"></path>
                            </g>
                            <g transform="translate(93.417722, 0.000000)">
                                <path d="M22.3905967,13.2592593 L5.63471971,13.2592593 C2.85443038,13.2592593 0.593128391,11 0.593128391,8.22222222 L0.593128391,5.7037037 C0.593128391,2.92592593 2.85443038,0.666666667 5.63471971,0.666666667 L22.3905967,0.666666667 C25.1708861,0.666666667 27.4321881,2.92592593 27.4321881,5.7037037 L27.4321881,8.22222222 C27.4321881,11 25.1708861,13.2592593 22.3905967,13.2592593 Z" id="Path" fill="#FFFFFF"></path>
                                <path d="M22.3905967,13.8148148 L5.63471971,13.8148148 C2.53933092,13.8148148 0.0370705244,11.3148148 0.0370705244,8.22222222 L0.0370705244,5.7037037 C0.0370705244,2.61111111 2.53933092,0.111111111 5.63471971,0.111111111 L22.3905967,0.111111111 C25.4859855,0.111111111 27.9882459,2.61111111 27.9882459,5.7037037 L27.9882459,8.22222222 C27.9882459,11.3148148 25.4859855,13.8148148 22.3905967,13.8148148 Z M5.63471971,1.22222222 C3.16952984,1.22222222 1.14918626,3.24074074 1.14918626,5.7037037 L1.14918626,8.22222222 C1.14918626,10.6851852 3.16952984,12.7037037 5.63471971,12.7037037 L22.3905967,12.7037037 C24.8557866,12.7037037 26.8761302,10.6851852 26.8761302,8.22222222 L26.8761302,5.7037037 C26.8761302,3.24074074 24.8557866,1.22222222 22.3905967,1.22222222 L5.63471971,1.22222222 Z" id="Shape" fill="#EBE7FC"></path>
                            </g>
                            <g transform="translate(120.108499, 0.000000)" id="Path">
                                <path d="M14.1424051,13.2592593 L5.76446655,13.2592593 C2.98417722,13.2592593 0.722875226,11 0.722875226,8.22222222 L0.722875226,5.7037037 C0.722875226,2.92592593 2.98417722,0.666666667 5.76446655,0.666666667 L14.3462929,0.666666667" fill="#FFFFFF"></path>
                                <path d="M14.1424051,13.8148148 L5.76446655,13.8148148 C2.66907776,13.8148148 0.16681736,11.3148148 0.16681736,8.22222222 L0.16681736,5.7037037 C0.16681736,2.61111111 2.66907776,0.111111111 5.76446655,0.111111111 L14.3462929,0.111111111 L14.3462929,1.22222222 L5.76446655,1.22222222 C3.29927667,1.22222222 1.27893309,3.24074074 1.27893309,5.7037037 L1.27893309,8.22222222 C1.27893309,10.6851852 3.29927667,12.7037037 5.76446655,12.7037037 L14.1424051,12.7037037 L14.1424051,13.8148148 Z" fill="#F9D5FF"></path>
                            </g>
                        </g>
                        <g transform="translate(15.384268, 127.037037)">
                            <g>
                                <path d="M22.4832731,13.2407407 L5.72739602,13.2407407 C2.94710669,13.2407407 0.685804702,10.9814815 0.685804702,8.2037037 L0.685804702,5.68518519 C0.685804702,2.90740741 2.94710669,0.648148148 5.72739602,0.648148148 L22.4832731,0.648148148 C25.2635624,0.648148148 27.5248644,2.90740741 27.5248644,5.68518519 L27.5248644,8.2037037 C27.5063291,10.9814815 25.2635624,13.2407407 22.4832731,13.2407407 Z" id="Path" fill="#FFFFFF"></path>
                                <path d="M22.4832731,13.7962963 L5.72739602,13.7962963 C2.63200723,13.7962963 0.129746835,11.2962963 0.129746835,8.2037037 L0.129746835,5.68518519 C0.129746835,2.59259259 2.63200723,0.0925925926 5.72739602,0.0925925926 L22.4832731,0.0925925926 C25.5786618,0.0925925926 28.0809222,2.59259259 28.0809222,5.68518519 L28.0809222,8.2037037 C28.062387,11.2962963 25.5415913,13.7962963 22.4832731,13.7962963 Z M5.72739602,1.2037037 C3.26220615,1.2037037 1.24186257,3.22222222 1.24186257,5.68518519 L1.24186257,8.2037037 C1.24186257,10.6666667 3.26220615,12.6851852 5.72739602,12.6851852 L22.4832731,12.6851852 C24.9484629,12.6851852 26.9502712,10.6666667 26.9688065,8.2037037 L26.9688065,5.68518519 C26.9688065,3.22222222 24.9484629,1.2037037 22.4832731,1.2037037 L5.72739602,1.2037037 Z" id="Shape" fill="#EBE7FC"></path>
                            </g>
                            <g transform="translate(26.876130, 0.000000)">
                                <path d="M22.4276673,13.2407407 L5.67179024,13.2407407 C2.8915009,13.2407407 0.630198915,10.9814815 0.630198915,8.2037037 L0.630198915,5.68518519 C0.630198915,2.90740741 2.8915009,0.648148148 5.67179024,0.648148148 L22.4276673,0.648148148 C25.2079566,0.648148148 27.4692586,2.90740741 27.4692586,5.68518519 L27.4692586,8.2037037 C27.4507233,10.9814815 25.2079566,13.2407407 22.4276673,13.2407407 Z" id="Path" fill="#FFFFFF"></path>
                                <path d="M22.4276673,13.7962963 L5.67179024,13.7962963 C2.57640145,13.7962963 0.0741410488,11.2962963 0.0741410488,8.2037037 L0.0741410488,5.68518519 C0.0741410488,2.59259259 2.57640145,0.0925925926 5.67179024,0.0925925926 L22.4276673,0.0925925926 C25.5230561,0.0925925926 28.0253165,2.59259259 28.0253165,5.68518519 L28.0253165,8.2037037 C28.0067812,11.2962963 25.4859855,13.7962963 22.4276673,13.7962963 Z M5.67179024,1.2037037 C3.20660036,1.2037037 1.18625678,3.22222222 1.18625678,5.68518519 L1.18625678,8.2037037 C1.18625678,10.6666667 3.20660036,12.6851852 5.67179024,12.6851852 L22.4276673,12.6851852 C24.8928571,12.6851852 26.8946655,10.6666667 26.9132007,8.2037037 L26.9132007,5.68518519 C26.9132007,3.22222222 24.8928571,1.2037037 22.4276673,1.2037037 L5.67179024,1.2037037 Z" id="Shape" fill="#EBE7FC"></path>
                            </g>
                            <g transform="translate(53.752260, 0.000000)">
                                <path d="M22.3720615,13.2407407 L5.61618445,13.2407407 C2.83589512,13.2407407 0.574593128,10.9814815 0.574593128,8.2037037 L0.574593128,5.68518519 C0.574593128,2.90740741 2.83589512,0.648148148 5.61618445,0.648148148 L22.3720615,0.648148148 C25.1523508,0.648148148 27.4136528,2.90740741 27.4136528,5.68518519 L27.4136528,8.2037037 C27.4136528,10.9814815 25.1523508,13.2407407 22.3720615,13.2407407 Z" id="Path" fill="#FFFFFF"></path>
                                <path d="M22.3720615,13.7962963 L5.61618445,13.7962963 C2.52079566,13.7962963 0.0185352622,11.2962963 0.0185352622,8.2037037 L0.0185352622,5.68518519 C0.0185352622,2.59259259 2.52079566,0.0925925926 5.61618445,0.0925925926 L22.3720615,0.0925925926 C25.4674503,0.0925925926 27.9697107,2.59259259 27.9697107,5.68518519 L27.9697107,8.2037037 C27.9697107,11.2962963 25.4674503,13.7962963 22.3720615,13.7962963 Z M5.61618445,1.2037037 C3.15099458,1.2037037 1.13065099,3.22222222 1.13065099,5.68518519 L1.13065099,8.2037037 C1.13065099,10.6666667 3.15099458,12.6851852 5.61618445,12.6851852 L22.3720615,12.6851852 C24.8372514,12.6851852 26.8575949,10.6666667 26.8575949,8.2037037 L26.8575949,5.68518519 C26.8575949,3.22222222 24.8372514,1.2037037 22.3720615,1.2037037 L5.61618445,1.2037037 Z" id="Shape" fill="#EBE7FC"></path>
                            </g>
                            <g transform="translate(80.443038, 0.000000)">
                                <path d="M22.5018083,13.2407407 L5.74593128,13.2407407 C2.96564195,13.2407407 0.704339964,10.9814815 0.704339964,8.2037037 L0.704339964,5.68518519 C0.704339964,2.90740741 2.96564195,0.648148148 5.74593128,0.648148148 L22.5018083,0.648148148 C25.2820976,0.648148148 27.5433996,2.90740741 27.5433996,5.68518519 L27.5433996,8.2037037 C27.5433996,10.9814815 25.2820976,13.2407407 22.5018083,13.2407407 Z" id="Path" fill="#FFFFFF"></path>
                                <path d="M22.5018083,13.7962963 L5.74593128,13.7962963 C2.6505425,13.7962963 0.148282098,11.2962963 0.148282098,8.2037037 L0.148282098,5.68518519 C0.148282098,2.59259259 2.6505425,0.0925925926 5.74593128,0.0925925926 L22.5018083,0.0925925926 C25.5971971,0.0925925926 28.0994575,2.59259259 28.0994575,5.68518519 L28.0994575,8.2037037 C28.0994575,11.2962963 25.5971971,13.7962963 22.5018083,13.7962963 Z M5.74593128,1.2037037 C3.28074141,1.2037037 1.26039783,3.22222222 1.26039783,5.68518519 L1.26039783,8.2037037 C1.26039783,10.6666667 3.28074141,12.6851852 5.74593128,12.6851852 L22.5018083,12.6851852 C24.9669982,12.6851852 26.9873418,10.6666667 26.9873418,8.2037037 L26.9873418,5.68518519 C26.9873418,3.22222222 24.9669982,1.2037037 22.5018083,1.2037037 L5.74593128,1.2037037 Z" id="Shape" fill="#EBE7FC"></path>
                            </g>
                            <g transform="translate(107.319168, 0.000000)">
                                <path d="M22.4647378,13.2407407 L5.70886076,13.2407407 C2.92857143,13.2407407 0.667269439,10.9814815 0.667269439,8.2037037 L0.667269439,5.68518519 C0.667269439,2.90740741 2.92857143,0.648148148 5.70886076,0.648148148 L22.4647378,0.648148148 C25.2450271,0.648148148 27.5063291,2.90740741 27.5063291,5.68518519 L27.5063291,8.2037037 C27.4877939,10.9814815 25.2450271,13.2407407 22.4647378,13.2407407 Z" id="Path" fill="#FFFFFF"></path>
                                <path d="M22.4647378,13.7962963 L5.70886076,13.7962963 C2.61347197,13.7962963 0.111211573,11.2962963 0.111211573,8.2037037 L0.111211573,5.68518519 C0.111211573,2.59259259 2.61347197,0.0925925926 5.70886076,0.0925925926 L22.4647378,0.0925925926 C25.5601266,0.0925925926 28.062387,2.59259259 28.062387,5.68518519 L28.062387,8.2037037 C28.0438517,11.2962963 25.5230561,13.7962963 22.4647378,13.7962963 Z M5.70886076,1.2037037 C3.24367089,1.2037037 1.22332731,3.22222222 1.22332731,5.68518519 L1.22332731,8.2037037 C1.22332731,10.6666667 3.24367089,12.6851852 5.70886076,12.6851852 L22.4647378,12.6851852 C24.9299277,12.6851852 26.931736,10.6666667 26.9502712,8.2037037 L26.9502712,5.68518519 C26.9502712,3.22222222 24.9299277,1.2037037 22.4647378,1.2037037 L5.70886076,1.2037037 Z" id="Shape" fill="#EBE7FC"></path>
                            </g>
                        </g>
                        <g transform="translate(15.940325, 89.259259)">
                            <g transform="translate(0.000000, 0.185185)" id="Path">
                                <path d="M0.129746835,0.555555556 L8.50768535,0.555555556 C11.2879747,0.555555556 13.5492767,2.81481481 13.5492767,5.59259259 L13.5492767,8.11111111 C13.5492767,10.8888889 11.2879747,13.1481481 8.50768535,13.1481481 L0.129746835,13.1481481" fill="#FFFFFF"></path>
                                <path d="M8.50768535,13.7037037 L0.129746835,13.7037037 L0.129746835,12.5925926 L8.50768535,12.5925926 C10.9728752,12.5925926 12.9932188,10.5740741 12.9932188,8.11111111 L12.9932188,5.59259259 C12.9932188,3.12962963 10.9728752,1.11111111 8.50768535,1.11111111 L0.129746835,1.11111111 L0.129746835,-1.13686838e-13 L8.50768535,-1.13686838e-13 C11.6030741,-1.13686838e-13 14.1053345,2.5 14.1053345,5.59259259 L14.1053345,8.11111111 C14.1053345,11.2037037 11.6030741,13.7037037 8.50768535,13.7037037 Z" fill="#EBE7FC"></path>
                            </g>
                            <g transform="translate(12.974684, 0.000000)">
                                <path d="M22.3535262,13.3148148 L5.59764919,13.3148148 C2.81735986,13.3148148 0.556057866,11.0555556 0.556057866,8.27777778 L0.556057866,5.75925926 C0.556057866,2.98148148 2.81735986,0.722222222 5.59764919,0.722222222 L22.3535262,0.722222222 C25.1338156,0.722222222 27.3951175,2.98148148 27.3951175,5.75925926 L27.3951175,8.27777778 C27.3951175,11.0555556 25.1338156,13.3148148 22.3535262,13.3148148 Z" id="Path" fill="#FFFFFF"></path>
                                <path d="M22.3535262,13.8703704 L5.59764919,13.8703704 C2.5022604,13.8703704 5.68434189e-14,11.3703704 5.68434189e-14,8.27777778 L5.68434189e-14,5.75925926 C5.68434189e-14,2.66666667 2.5022604,0.166666667 5.59764919,0.166666667 L22.3535262,0.166666667 C25.448915,0.166666667 27.9511754,2.66666667 27.9511754,5.75925926 L27.9511754,8.27777778 C27.9511754,11.3703704 25.448915,13.8703704 22.3535262,13.8703704 Z M5.59764919,1.27777778 C3.13245931,1.27777778 1.11211573,3.2962963 1.11211573,5.75925926 L1.11211573,8.27777778 C1.11211573,10.7407407 3.13245931,12.7592593 5.59764919,12.7592593 L22.3535262,12.7592593 C24.8187161,12.7592593 26.8390597,10.7407407 26.8390597,8.27777778 L26.8390597,5.75925926 C26.8390597,3.2962963 24.8187161,1.27777778 22.3535262,1.27777778 L5.59764919,1.27777778 Z" id="Shape" fill="#EBE7FC"></path>
                            </g>
                            <g transform="translate(39.665461, 0.000000)">
                                <path d="M22.4832731,13.3148148 L5.72739602,13.3148148 C2.94710669,13.3148148 0.685804702,11.0555556 0.685804702,8.27777778 L0.685804702,5.75925926 C0.685804702,2.98148148 2.94710669,0.722222222 5.72739602,0.722222222 L22.4832731,0.722222222 C25.2635624,0.722222222 27.5248644,2.98148148 27.5248644,5.75925926 L27.5248644,8.27777778 C27.5248644,11.0555556 25.2635624,13.3148148 22.4832731,13.3148148 Z" id="Path" fill="#FFFFFF"></path>
                                <path d="M22.4832731,13.8703704 L5.72739602,13.8703704 C2.63200723,13.8703704 0.129746835,11.3703704 0.129746835,8.27777778 L0.129746835,5.75925926 C0.129746835,2.66666667 2.63200723,0.166666667 5.72739602,0.166666667 L22.4832731,0.166666667 C25.5786618,0.166666667 28.0809222,2.66666667 28.0809222,5.75925926 L28.0809222,8.27777778 C28.0809222,11.3703704 25.5786618,13.8703704 22.4832731,13.8703704 Z M5.72739602,1.27777778 C3.26220615,1.27777778 1.24186257,3.2962963 1.24186257,5.75925926 L1.24186257,8.27777778 C1.24186257,10.7407407 3.26220615,12.7592593 5.72739602,12.7592593 L22.4832731,12.7592593 C24.9484629,12.7592593 26.9688065,10.7407407 26.9688065,8.27777778 L26.9688065,5.75925926 C26.9688065,3.2962963 24.9484629,1.27777778 22.4832731,1.27777778 L5.72739602,1.27777778 Z" id="Shape" fill="#EBE7FC"></path>
                            </g>
                            <g transform="translate(66.541591, 0.000000)">
                                <path d="M22.4462025,13.3148148 L5.6903255,13.3148148 C2.91003617,13.3148148 0.648734177,11.0555556 0.648734177,8.27777778 L0.648734177,5.75925926 C0.648734177,2.98148148 2.91003617,0.722222222 5.6903255,0.722222222 L22.4462025,0.722222222 C25.2264919,0.722222222 27.4877939,2.98148148 27.4877939,5.75925926 L27.4877939,8.27777778 C27.4692586,11.0555556 25.2264919,13.3148148 22.4462025,13.3148148 Z" id="Path" fill="#FFFFFF"></path>
                                <path d="M22.4462025,13.8703704 L5.6903255,13.8703704 C2.59493671,13.8703704 0.092676311,11.3703704 0.092676311,8.27777778 L0.092676311,5.75925926 C0.092676311,2.66666667 2.59493671,0.166666667 5.6903255,0.166666667 L22.4462025,0.166666667 C25.5415913,0.166666667 28.0438517,2.66666667 28.0438517,5.75925926 L28.0438517,8.27777778 C28.0253165,11.3703704 25.5045208,13.8703704 22.4462025,13.8703704 Z M5.6903255,1.27777778 C3.22513562,1.27777778 1.20479204,3.2962963 1.20479204,5.75925926 L1.20479204,8.27777778 C1.20479204,10.7407407 3.22513562,12.7592593 5.6903255,12.7592593 L22.4462025,12.7592593 C24.9113924,12.7592593 26.9132007,10.7407407 26.931736,8.27777778 L26.931736,5.75925926 C26.931736,3.2962963 24.9113924,1.27777778 22.4462025,1.27777778 L5.6903255,1.27777778 Z" id="Shape" fill="#EBE7FC"></path>
                            </g>
                            <g transform="translate(93.417722, 0.000000)">
                                <path d="M22.3905967,13.3148148 L5.63471971,13.3148148 C2.85443038,13.3148148 0.593128391,11.0555556 0.593128391,8.27777778 L0.593128391,5.75925926 C0.593128391,2.98148148 2.85443038,0.722222222 5.63471971,0.722222222 L22.3905967,0.722222222 C25.1708861,0.722222222 27.4321881,2.98148148 27.4321881,5.75925926 L27.4321881,8.27777778 C27.4321881,11.0555556 25.1708861,13.3148148 22.3905967,13.3148148 Z" id="Path" fill="#FFFFFF"></path>
                                <path d="M22.3905967,13.8703704 L5.63471971,13.8703704 C2.53933092,13.8703704 0.0370705244,11.3703704 0.0370705244,8.27777778 L0.0370705244,5.75925926 C0.0370705244,2.66666667 2.53933092,0.166666667 5.63471971,0.166666667 L22.3905967,0.166666667 C25.4859855,0.166666667 27.9882459,2.66666667 27.9882459,5.75925926 L27.9882459,8.27777778 C27.9882459,11.3703704 25.4859855,13.8703704 22.3905967,13.8703704 Z M5.63471971,1.27777778 C3.16952984,1.27777778 1.14918626,3.2962963 1.14918626,5.75925926 L1.14918626,8.27777778 C1.14918626,10.7407407 3.16952984,12.7592593 5.63471971,12.7592593 L22.3905967,12.7592593 C24.8557866,12.7592593 26.8761302,10.7407407 26.8761302,8.27777778 L26.8761302,5.75925926 C26.8761302,3.2962963 24.8557866,1.27777778 22.3905967,1.27777778 L5.63471971,1.27777778 Z" id="Shape" fill="#EBE7FC"></path>
                            </g>
                            <g transform="translate(120.108499, 0.000000)" id="Path">
                                <path d="M14.1424051,13.3148148 L5.76446655,13.3148148 C2.98417722,13.3148148 0.722875226,11.0555556 0.722875226,8.27777778 L0.722875226,5.75925926 C0.722875226,2.98148148 2.98417722,0.722222222 5.76446655,0.722222222 L14.3462929,0.722222222" fill="#FFFFFF"></path>
                                <path d="M14.1424051,13.8703704 L5.76446655,13.8703704 C2.66907776,13.8703704 0.16681736,11.3703704 0.16681736,8.27777778 L0.16681736,5.75925926 C0.16681736,2.66666667 2.66907776,0.166666667 5.76446655,0.166666667 L14.3462929,0.166666667 L14.3462929,1.27777778 L5.76446655,1.27777778 C3.29927667,1.27777778 1.27893309,3.2962963 1.27893309,5.75925926 L1.27893309,8.27777778 C1.27893309,10.7407407 3.29927667,12.7592593 5.76446655,12.7592593 L14.1424051,12.7592593 L14.1424051,13.8703704 Z" fill="#EBE7FC"></path>
                            </g>
                        </g>
                        <g transform="translate(15.384268, 101.851852)">
                            <g>
                                <path d="M22.4832731,13.2777778 L5.72739602,13.2777778 C2.94710669,13.2777778 0.685804702,11.0185185 0.685804702,8.24074074 L0.685804702,5.74074074 C0.685804702,2.96296296 2.94710669,0.703703704 5.72739602,0.703703704 L22.4832731,0.703703704 C25.2635624,0.703703704 27.5248644,2.96296296 27.5248644,5.74074074 L27.5248644,8.25925926 C27.5063291,11.037037 25.2635624,13.2777778 22.4832731,13.2777778 Z" id="Path" fill="#FFFFFF"></path>
                                <path d="M22.4832731,13.8333333 L5.72739602,13.8333333 C2.63200723,13.8333333 0.129746835,11.3333333 0.129746835,8.24074074 L0.129746835,5.74074074 C0.129746835,2.64814815 2.63200723,0.148148148 5.72739602,0.148148148 L22.4832731,0.148148148 C25.5786618,0.148148148 28.0809222,2.64814815 28.0809222,5.74074074 L28.0809222,8.25925926 C28.062387,11.3333333 25.5415913,13.8333333 22.4832731,13.8333333 Z M5.72739602,1.25925926 C3.26220615,1.25925926 1.24186257,3.27777778 1.24186257,5.74074074 L1.24186257,8.24074074 C1.24186257,10.7037037 3.26220615,12.7222222 5.72739602,12.7222222 L22.4832731,12.7222222 C24.9484629,12.7222222 26.9502712,10.7222222 26.9688065,8.25925926 L26.9688065,5.74074074 C26.9688065,3.27777778 24.9484629,1.25925926 22.4832731,1.25925926 L5.72739602,1.25925926 Z" id="Shape" fill="#EBE7FC"></path>
                            </g>
                            <g transform="translate(26.876130, 0.000000)">
                                <path d="M22.4276673,13.2777778 L5.67179024,13.2777778 C2.8915009,13.2777778 0.630198915,11.0185185 0.630198915,8.24074074 L0.630198915,5.74074074 C0.630198915,2.96296296 2.8915009,0.703703704 5.67179024,0.703703704 L22.4276673,0.703703704 C25.2079566,0.703703704 27.4692586,2.96296296 27.4692586,5.74074074 L27.4692586,8.25925926 C27.4507233,11.037037 25.2079566,13.2777778 22.4276673,13.2777778 Z" id="Path" fill="#FFFFFF"></path>
                                <path d="M22.4276673,13.8333333 L5.67179024,13.8333333 C2.57640145,13.8333333 0.0741410488,11.3333333 0.0741410488,8.24074074 L0.0741410488,5.74074074 C0.0741410488,2.64814815 2.57640145,0.148148148 5.67179024,0.148148148 L22.4276673,0.148148148 C25.5230561,0.148148148 28.0253165,2.64814815 28.0253165,5.74074074 L28.0253165,8.25925926 C28.0067812,11.3333333 25.4859855,13.8333333 22.4276673,13.8333333 Z M5.67179024,1.25925926 C3.20660036,1.25925926 1.18625678,3.27777778 1.18625678,5.74074074 L1.18625678,8.24074074 C1.18625678,10.7037037 3.20660036,12.7222222 5.67179024,12.7222222 L22.4276673,12.7222222 C24.8928571,12.7222222 26.8946655,10.7222222 26.9132007,8.25925926 L26.9132007,5.74074074 C26.9132007,3.27777778 24.8928571,1.25925926 22.4276673,1.25925926 L5.67179024,1.25925926 Z" id="Shape" fill="#EBE7FC"></path>
                            </g>
                            <g transform="translate(53.752260, 0.000000)">
                                <path d="M22.3720615,13.2777778 L5.61618445,13.2777778 C2.83589512,13.2777778 0.574593128,11.0185185 0.574593128,8.24074074 L0.574593128,5.74074074 C0.574593128,2.96296296 2.83589512,0.703703704 5.61618445,0.703703704 L22.3720615,0.703703704 C25.1523508,0.703703704 27.4136528,2.96296296 27.4136528,5.74074074 L27.4136528,8.25925926 C27.4136528,11.037037 25.1523508,13.2777778 22.3720615,13.2777778 Z" id="Path" fill="#FFFFFF"></path>
                                <path d="M22.3720615,13.8333333 L5.61618445,13.8333333 C2.52079566,13.8333333 0.0185352622,11.3333333 0.0185352622,8.24074074 L0.0185352622,5.74074074 C0.0185352622,2.64814815 2.52079566,0.148148148 5.61618445,0.148148148 L22.3720615,0.148148148 C25.4674503,0.148148148 27.9697107,2.64814815 27.9697107,5.74074074 L27.9697107,8.25925926 C27.9697107,11.3333333 25.4674503,13.8333333 22.3720615,13.8333333 Z M5.61618445,1.25925926 C3.15099458,1.25925926 1.13065099,3.27777778 1.13065099,5.74074074 L1.13065099,8.24074074 C1.13065099,10.7037037 3.15099458,12.7222222 5.61618445,12.7222222 L22.3720615,12.7222222 C24.8372514,12.7222222 26.8575949,10.7222222 26.8575949,8.25925926 L26.8575949,5.74074074 C26.8575949,3.27777778 24.8372514,1.25925926 22.3720615,1.25925926 L5.61618445,1.25925926 Z" id="Shape" fill="#EBE7FC"></path>
                            </g>
                            <g transform="translate(80.443038, 0.000000)">
                                <path d="M22.5018083,13.2777778 L5.74593128,13.2777778 C2.96564195,13.2777778 0.704339964,11.0185185 0.704339964,8.24074074 L0.704339964,5.74074074 C0.704339964,2.96296296 2.96564195,0.703703704 5.74593128,0.703703704 L22.5018083,0.703703704 C25.2820976,0.703703704 27.5433996,2.96296296 27.5433996,5.74074074 L27.5433996,8.25925926 C27.5433996,11.037037 25.2820976,13.2777778 22.5018083,13.2777778 Z" id="Path" fill="#FFFFFF"></path>
                                <path d="M22.5018083,13.8333333 L5.74593128,13.8333333 C2.6505425,13.8333333 0.148282098,11.3333333 0.148282098,8.24074074 L0.148282098,5.74074074 C0.148282098,2.64814815 2.6505425,0.148148148 5.74593128,0.148148148 L22.5018083,0.148148148 C25.5971971,0.148148148 28.0994575,2.64814815 28.0994575,5.74074074 L28.0994575,8.25925926 C28.0994575,11.3333333 25.5971971,13.8333333 22.5018083,13.8333333 Z M5.74593128,1.25925926 C3.28074141,1.25925926 1.26039783,3.27777778 1.26039783,5.74074074 L1.26039783,8.24074074 C1.26039783,10.7037037 3.28074141,12.7222222 5.74593128,12.7222222 L22.5018083,12.7222222 C24.9669982,12.7222222 26.9873418,10.7222222 26.9873418,8.25925926 L26.9873418,5.74074074 C26.9873418,3.27777778 24.9669982,1.25925926 22.5018083,1.25925926 L5.74593128,1.25925926 Z" id="Shape" fill="#EBE7FC"></path>
                            </g>
                            <g transform="translate(107.319168, 0.000000)">
                                <path d="M22.4647378,13.2777778 L5.70886076,13.2777778 C2.92857143,13.2777778 0.667269439,11.0185185 0.667269439,8.24074074 L0.667269439,5.74074074 C0.667269439,2.96296296 2.92857143,0.703703704 5.70886076,0.703703704 L22.4647378,0.703703704 C25.2450271,0.703703704 27.5063291,2.96296296 27.5063291,5.74074074 L27.5063291,8.25925926 C27.4877939,11.037037 25.2450271,13.2777778 22.4647378,13.2777778 Z" id="Path" fill="#FFFFFF"></path>
                                <path d="M22.4647378,13.8333333 L5.70886076,13.8333333 C2.61347197,13.8333333 0.111211573,11.3333333 0.111211573,8.24074074 L0.111211573,5.74074074 C0.111211573,2.64814815 2.61347197,0.148148148 5.70886076,0.148148148 L22.4647378,0.148148148 C25.5601266,0.148148148 28.062387,2.64814815 28.062387,5.74074074 L28.062387,8.25925926 C28.0438517,11.3333333 25.5230561,13.8333333 22.4647378,13.8333333 Z M5.70886076,1.25925926 C3.24367089,1.25925926 1.22332731,3.27777778 1.22332731,5.74074074 L1.22332731,8.24074074 C1.22332731,10.7037037 3.24367089,12.7222222 5.70886076,12.7222222 L22.4647378,12.7222222 C24.9299277,12.7222222 26.931736,10.7222222 26.9502712,8.25925926 L26.9502712,5.74074074 C26.9502712,3.27777778 24.9299277,1.25925926 22.4647378,1.25925926 L5.70886076,1.25925926 Z" id="Shape" fill="#EBE7FC"></path>
                            </g>
                        </g>
                        <g transform="translate(82.481917, 64.259259)">
                            <g>
                                <path d="M22.4462025,13.1851852 L5.6903255,13.1851852 C2.91003617,13.1851852 0.648734177,10.9259259 0.648734177,8.14814815 L0.648734177,5.62962963 C0.648734177,2.85185185 2.91003617,0.592592593 5.6903255,0.592592593 L22.4462025,0.592592593 C25.2264919,0.592592593 27.4877939,2.85185185 27.4877939,5.62962963 L27.4877939,8.14814815 C27.4692586,10.9259259 25.2264919,13.1851852 22.4462025,13.1851852 Z" id="Path" fill="#FFFFFF"></path>
                                <path d="M22.4462025,13.7407407 L5.6903255,13.7407407 C2.59493671,13.7407407 0.092676311,11.2407407 0.092676311,8.14814815 L0.092676311,5.62962963 C0.092676311,2.53703704 2.59493671,0.037037037 5.6903255,0.037037037 L22.4462025,0.037037037 C25.5415913,0.037037037 28.0438517,2.53703704 28.0438517,5.62962963 L28.0438517,8.14814815 C28.0253165,11.2407407 25.5045208,13.7407407 22.4462025,13.7407407 Z M5.6903255,1.14814815 C3.22513562,1.14814815 1.20479204,3.16666667 1.20479204,5.62962963 L1.20479204,8.14814815 C1.20479204,10.6111111 3.22513562,12.6296296 5.6903255,12.6296296 L22.4462025,12.6296296 C24.9113924,12.6296296 26.9132007,10.6111111 26.931736,8.14814815 L26.931736,5.62962963 C26.931736,3.16666667 24.9113924,1.14814815 22.4462025,1.14814815 L5.6903255,1.14814815 Z" id="Shape" fill="#EBE7FC"></path>
                            </g>
                            <g transform="translate(26.876130, 0.000000)">
                                <path d="M22.3905967,13.1851852 L5.63471971,13.1851852 C2.85443038,13.1851852 0.593128391,10.9259259 0.593128391,8.14814815 L0.593128391,5.62962963 C0.593128391,2.85185185 2.85443038,0.592592593 5.63471971,0.592592593 L22.3905967,0.592592593 C25.1708861,0.592592593 27.4321881,2.85185185 27.4321881,5.62962963 L27.4321881,8.14814815 C27.4321881,10.9259259 25.1708861,13.1851852 22.3905967,13.1851852 Z" id="Path" fill="#FFFFFF"></path>
                                <path d="M22.3905967,13.7407407 L5.63471971,13.7407407 C2.53933092,13.7407407 0.0370705244,11.2407407 0.0370705244,8.14814815 L0.0370705244,5.62962963 C0.0370705244,2.53703704 2.53933092,0.037037037 5.63471971,0.037037037 L22.3905967,0.037037037 C25.4859855,0.037037037 27.9882459,2.53703704 27.9882459,5.62962963 L27.9882459,8.14814815 C27.9882459,11.2407407 25.4859855,13.7407407 22.3905967,13.7407407 Z M5.63471971,1.14814815 C3.16952984,1.14814815 1.14918626,3.16666667 1.14918626,5.62962963 L1.14918626,8.14814815 C1.14918626,10.6111111 3.16952984,12.6296296 5.63471971,12.6296296 L22.3905967,12.6296296 C24.8557866,12.6296296 26.8761302,10.6111111 26.8761302,8.14814815 L26.8761302,5.62962963 C26.8761302,3.16666667 24.8557866,1.14814815 22.3905967,1.14814815 L5.63471971,1.14814815 Z" id="Shape" fill="#EBE7FC"></path>
                            </g>
                            <g transform="translate(53.566908, 0.000000)" id="Path">
                                <path d="M14.1424051,13.1851852 L5.76446655,13.1851852 C2.98417722,13.1851852 0.722875226,10.9259259 0.722875226,8.14814815 L0.722875226,5.62962963 C0.722875226,2.85185185 2.98417722,0.592592593 5.76446655,0.592592593 L14.3462929,0.592592593" fill="#FFFFFF"></path>
                                <path d="M14.1424051,13.7407407 L5.76446655,13.7407407 C2.66907776,13.7407407 0.16681736,11.2407407 0.16681736,8.14814815 L0.16681736,5.62962963 C0.16681736,2.53703704 2.66907776,0.037037037 5.76446655,0.037037037 L14.3462929,0.037037037 L14.3462929,1.14814815 L5.76446655,1.14814815 C3.29927667,1.14814815 1.27893309,3.16666667 1.27893309,5.62962963 L1.27893309,8.14814815 C1.27893309,10.6111111 3.29927667,12.6296296 5.76446655,12.6296296 L14.1424051,12.6296296 L14.1424051,13.7407407 Z" fill="#EBE7FC"></path>
                            </g>
                        </g>
                        <g transform="translate(69.136528, 76.851852)">
                            <g>
                                <path d="M22.3720615,13.1481481 L5.61618445,13.1481481 C2.83589512,13.1481481 0.574593128,10.8888889 0.574593128,8.11111111 L0.574593128,5.59259259 C0.574593128,2.81481481 2.83589512,0.555555556 5.61618445,0.555555556 L22.3720615,0.555555556 C25.1523508,0.555555556 27.4136528,2.81481481 27.4136528,5.59259259 L27.4136528,8.11111111 C27.4136528,10.9074074 25.1523508,13.1481481 22.3720615,13.1481481 Z" id="Path" fill="#FFFFFF"></path>
                                <path d="M22.3720615,13.7037037 L5.61618445,13.7037037 C2.52079566,13.7037037 0.0185352622,11.2037037 0.0185352622,8.11111111 L0.0185352622,5.59259259 C0.0185352622,2.5 2.52079566,-1.13686838e-13 5.61618445,-1.13686838e-13 L22.3720615,-1.13686838e-13 C25.4674503,-1.13686838e-13 27.9697107,2.5 27.9697107,5.59259259 L27.9697107,8.11111111 C27.9697107,11.2037037 25.4674503,13.7037037 22.3720615,13.7037037 Z M5.61618445,1.11111111 C3.15099458,1.11111111 1.13065099,3.12962963 1.13065099,5.59259259 L1.13065099,8.11111111 C1.13065099,10.5740741 3.15099458,12.5925926 5.61618445,12.5925926 L22.3720615,12.5925926 C24.8372514,12.5925926 26.8575949,10.5740741 26.8575949,8.11111111 L26.8575949,5.59259259 C26.8575949,3.12962963 24.8372514,1.11111111 22.3720615,1.11111111 L5.61618445,1.11111111 Z" id="Shape" fill="#EBE7FC"></path>
                            </g>
                            <g transform="translate(26.690778, 0.000000)">
                                <path d="M22.5018083,13.1481481 L5.74593128,13.1481481 C2.96564195,13.1481481 0.704339964,10.8888889 0.704339964,8.11111111 L0.704339964,5.59259259 C0.704339964,2.81481481 2.96564195,0.555555556 5.74593128,0.555555556 L22.5018083,0.555555556 C25.2820976,0.555555556 27.5433996,2.81481481 27.5433996,5.59259259 L27.5433996,8.11111111 C27.5433996,10.9074074 25.2820976,13.1481481 22.5018083,13.1481481 Z" id="Path" fill="#FFFFFF"></path>
                                <path d="M22.5018083,13.7037037 L5.74593128,13.7037037 C2.6505425,13.7037037 0.148282098,11.2037037 0.148282098,8.11111111 L0.148282098,5.59259259 C0.148282098,2.5 2.6505425,-1.13686838e-13 5.74593128,-1.13686838e-13 L22.5018083,-1.13686838e-13 C25.5971971,-1.13686838e-13 28.0994575,2.5 28.0994575,5.59259259 L28.0994575,8.11111111 C28.0994575,11.2037037 25.5971971,13.7037037 22.5018083,13.7037037 Z M5.74593128,1.11111111 C3.28074141,1.11111111 1.26039783,3.12962963 1.26039783,5.59259259 L1.26039783,8.11111111 C1.26039783,10.5740741 3.28074141,12.5925926 5.74593128,12.5925926 L22.5018083,12.5925926 C24.9669982,12.5925926 26.9873418,10.5740741 26.9873418,8.11111111 L26.9873418,5.59259259 C26.9873418,3.12962963 24.9669982,1.11111111 22.5018083,1.11111111 L5.74593128,1.11111111 Z" id="Shape" fill="#EBE7FC"></path>
                            </g>
                            <g transform="translate(53.566908, 0.000000)">
                                <path d="M22.4647378,13.1481481 L5.70886076,13.1481481 C2.92857143,13.1481481 0.667269439,10.8888889 0.667269439,8.11111111 L0.667269439,5.59259259 C0.667269439,2.81481481 2.92857143,0.555555556 5.70886076,0.555555556 L22.4647378,0.555555556 C25.2450271,0.555555556 27.5063291,2.81481481 27.5063291,5.59259259 L27.5063291,8.11111111 C27.4877939,10.9074074 25.2450271,13.1481481 22.4647378,13.1481481 Z" id="Path" fill="#FFFFFF"></path>
                                <path d="M22.4647378,13.7037037 L5.70886076,13.7037037 C2.61347197,13.7037037 0.111211573,11.2037037 0.111211573,8.11111111 L0.111211573,5.59259259 C0.111211573,2.5 2.61347197,-1.13686838e-13 5.70886076,-1.13686838e-13 L22.4647378,-1.13686838e-13 C25.5601266,-1.13686838e-13 28.062387,2.5 28.062387,5.59259259 L28.062387,8.11111111 C28.0438517,11.2037037 25.5230561,13.7037037 22.4647378,13.7037037 Z M5.70886076,1.11111111 C3.24367089,1.11111111 1.22332731,3.12962963 1.22332731,5.59259259 L1.22332731,8.11111111 C1.22332731,10.5740741 3.24367089,12.5925926 5.70886076,12.5925926 L22.4647378,12.5925926 C24.9299277,12.5925926 26.931736,10.5740741 26.9502712,8.11111111 L26.9502712,5.59259259 C26.9502712,3.12962963 24.9299277,1.11111111 22.4647378,1.11111111 L5.70886076,1.11111111 Z" id="Shape" fill="#EBE7FC"></path>
                            </g>
                        </g>
                    </g>
                    <g id="Group" transform="translate(75.598553, 12.111111)">
                        <path d="M60.4805606,6.57407407 L75.7536166,24.537037 C78.0149186,27.2037037 77.6998192,31.2037037 75.0307414,33.4814815 C74.1410488,34.2407407 73.1030741,34.7037037 72.0280289,34.8888889 L71.5646474,34.962963 L57.9783002,37.3148148 C54.3824593,37.9444444 50.9534358,35.5185185 50.3232369,31.9259259 C49.693038,28.3333333 52.1211573,24.9074074 55.7169982,24.2777778 L69.3033454,21.9259259 L65.0958409,32.3518519 L51.8801989,11.537037" id="Path" fill="#B9EEF1"></path>
                        <path d="M51.8801989,11.5555556 L50.7866184,9.81481481 C49.3779385,7.59259259 50.0266727,4.64814815 52.2694394,3.24074074 C54.3083183,1.94444444 56.9403255,2.38888889 58.460217,4.18518519 L60.4990958,6.57407407" id="Path" fill="#FDC068"></path>
                        <path d="M43.0944846,10.3333333 L42.0750452,11.462963 C41.8711573,11.6851852 41.8896926,12.037037 42.130651,12.2407407 L43.0944846,12.8888889" id="Path" fill="#FDC068"></path>
                        <path d="M43.0944846,13.1111111 C43.0574141,13.1111111 43.0018083,13.0925926 42.9647378,13.0740741 L41.9823689,12.4074074 C41.8155515,12.2777778 41.7228752,12.0740741 41.70434,11.8703704 C41.6858047,11.6666667 41.7599458,11.462963 41.9082278,11.3148148 L42.9276673,10.1851852 C43.0018083,10.0925926 43.1500904,10.0925926 43.2427667,10.1666667 C43.335443,10.2407407 43.335443,10.3888889 43.261302,10.4814815 L42.2418626,11.6111111 C42.1862568,11.6666667 42.1491863,11.7592593 42.1677215,11.8333333 C42.1677215,11.9259259 42.204792,12 42.2789331,12.0555556 L43.2242315,12.7037037 C43.335443,12.7777778 43.3539783,12.9074074 43.2798373,13.0185185 C43.2427667,13.0740741 43.1686257,13.1111111 43.0944846,13.1111111 Z" id="Path" fill="#2B2B2B"></path>
                        <path d="M47.5985533,19.8888889 L52.2323689,20.0555556 C54.6234177,20.1481481 56.6437613,18.2592593 56.7179024,15.8703704 L56.9588608,8.88888889 C57.0886076,5.05555556 54.1044304,1.85185185 50.2676311,1.7037037 L50.2676311,1.7037037 C46.4308318,1.57407407 43.2242315,4.55555556 43.0759494,8.38888889 L42.8535262,14.7777778 C42.7608499,17.5185185 44.8924051,19.7962963 47.5985533,19.8888889 Z" id="SVGID_258_" fill="#FDC068"></path>
                        <path d="M43.6320072,10.4074074 C43.6320072,10.7962963 43.3539783,11.1111111 42.9832731,11.1666667 L43.0388788,9.64814815 C43.3725136,9.72222222 43.6320072,10.037037 43.6320072,10.4074074 Z" id="Path" fill="#2B2B2B"></path>
                        <path d="M50.9719711,27.9259259 L56.9959313,25.9444444 L56.8291139,12.7407407 L49.4520796,12.4814815 L48.284358,25.7962963 C48.1546112,27.2592593 49.5632911,28.3888889 50.9719711,27.9259259 Z" id="Path" fill="#FDC068"></path>
                        <polygon id="Path" fill="#2B2B2B" points="48.7848101 19.9259259 51.8060579 20.037037 48.5253165 22.9074074"></polygon>
                        <path d="M40.9629295,45.6111111 C41.0185353,38.9259259 45.6152803,39.2592593 43.8915009,34.7592593 C42.1677215,30.2592593 44.2436709,23.962963 49.3779385,24 C53.3444846,24.037037 53.6225136,23.8888889 55.2906872,23.8888889 C63.6500904,23.8888889 61.926311,40.7962963 61.8892405,45.4074074 L40.9629295,45.6111111 Z" id="Path" fill="#B9EEF1"></path>
                        <g id="Path">
                            <use fill="#3717E8" xlink:href="#path-3"></use>
                            <use fill="url(#linearGradient-2)" style="mix-blend-mode: soft-light;" xlink:href="#path-3"></use>
                        </g>
                        <path d="M51.0090416,138.148148 L71.5275769,138.074074 C72.6026221,138.074074 73.4737794,137.203704 73.4923146,136.12963 L73.5479204,133.537037 L60.5732369,133.722222 L50.7495479,136.185185 C49.6003617,136.462963 49.8227848,138.148148 51.0090416,138.148148 Z" id="Path" fill="#2B2B2B"></path>
                        <g id="Path">
                            <use fill="#3717E8" xlink:href="#path-5"></use>
                            <use fill="url(#linearGradient-4)" style="mix-blend-mode: soft-light;" xlink:href="#path-5"></use>
                        </g>
                        <path d="M61.9448463,45.2962963 C61.9077758,48.8333333 58.1821881,54.0925926 52.028481,54.0925926 L51.0275769,54.037037 C45.4113924,54.037037 40.9443942,49.4259259 40.9629295,45.6111111 L61.9448463,45.2962963 Z" id="Path" fill="url(#linearGradient-6)"></path>
                        <polygon id="Path" fill="#2B2B2B" points="45.1889693 48.1481481 62.20434 48.1481481 61.9448463 45.2962963 46.301085 45.2962963"></polygon>
                        <path d="M1.01943942,138.148148 L21.5379747,138.074074 C22.6130199,138.074074 23.4841772,137.203704 23.5027125,136.12963 L23.5583183,133.537037 L10.5836347,133.722222 L0.75994575,136.185185 C-0.370705244,136.462963 -0.16681736,138.148148 1.01943942,138.148148 Z" id="Path" fill="#2B2B2B"></path>
                        <path d="M43.1315552,7.75925926 L46.5420434,7.75925926 L46.5420434,12.4814815 L47.7097649,12.4814815 L48.6921338,15.2592593 C49.1369801,16.5185185 50.3232369,17.3518519 51.6392405,17.3518519 L54.3268535,17.3518519 C56.0506329,17.3518519 56.8847197,15.9444444 56.8847197,14.2222222 L56.9959313,8.16666667 C56.9959313,4.53703704 53.937613,1.59259259 50.3047016,1.59259259 L49.2852622,1.59259259 C45.874774,1.59259259 43.1130199,4.35185185 43.1315552,7.75925926 L43.1315552,7.75925926 Z" id="Path" fill="#2B2B2B"></path>
                        <path d="M49.9525316,0.0185185185 C43.0018083,0.0185185185 43.0944846,5.57407407 41.5560579,8.25925926 L49.9525316,8.25925926 L58.3490054,8.25925926 C56.7920434,5.57407407 56.903255,0.0185185185 49.9525316,0.0185185185 Z" id="Path" fill="#FDE545"></path>
                        <path d="M47.9692586,13.5925926 L47.9692586,13.5925926 C47.431736,13.5925926 47.005425,13.1666667 47.005425,12.6296296 L47.005425,11.037037 C47.005425,10.5 47.431736,10.0740741 47.9692586,10.0740741 L47.9692586,10.0740741 C48.5067812,10.0740741 48.9330922,10.5 48.9330922,11.037037 L48.9330922,12.6296296 C48.9330922,13.1666667 48.5067812,13.5925926 47.9692586,13.5925926 Z" id="Path" fill="#FDC068"></path>
                        <path d="M32.8444846,63.5740741 L29.8973779,66.462963 C28.0067812,68.3148148 24.9855335,68.2777778 23.1505425,66.3888889 C21.4823689,64.6851852 21.3526221,62.037037 22.7427667,60.1851852 L25.6713382,56.2962963 L32.8444846,63.5740741 Z" id="Path" fill="#FDC068"></path>
                        <path d="M25.6528029,56.2777778 L37.4783002,40.5925926 L36.3847197,42.3148148 L42.0565099,29.2592593 C43.5207957,25.9074074 47.4132007,24.3703704 50.7680832,25.8333333 C54.1229656,27.2962963 55.6613924,31.1851852 54.1971067,34.537037 L48.5253165,47.5925926 L48.3584991,47.962963 C48.1360759,48.4814815 47.8024412,48.9444444 47.4132007,49.3148148 L32.8259494,63.5740741 L25.6528029,56.2777778 Z" id="Path" fill="#B9EEF1"></path>
                        <path d="M49.2111212,82.6666667 C49.1740506,82.6666667 49.1369801,82.6666667 49.0999096,82.6481481 C48.9516275,82.5925926 48.8960217,82.4259259 48.9516275,82.2777778 L56.8291139,63.1851852 C56.8847197,63.037037 57.0515371,62.9814815 57.1998192,63.037037 C57.3481013,63.0925926 57.4037071,63.2592593 57.3481013,63.4074074 L49.4706148,82.5 C49.415009,82.6111111 49.3223327,82.6666667 49.2111212,82.6666667 Z" id="Path" fill="#2B2B2B"></path>
                        <path d="M59.5537975,23.9074074 C59.4240506,23.9074074 59.2943038,23.8148148 59.2757685,23.6851852 C59.2572333,23.537037 59.3499096,23.3888889 59.4981917,23.3703704 L66.7269439,22.1296296 C66.875226,22.1111111 67.0235081,22.2037037 67.0420434,22.3518519 C67.0605787,22.5 66.9679024,22.6481481 66.8196203,22.6666667 L59.590868,23.9074074 C59.590868,23.9074074 59.5723327,23.9074074 59.5537975,23.9074074 Z" id="Path" fill="#2B2B2B"></path>
                        <path d="M62.0745931,37.7037037 C61.926311,37.7037037 61.7965642,37.5740741 61.7965642,37.4259259 L61.7965642,32.962963 C61.7965642,32.8148148 61.926311,32.6851852 62.0745931,32.6851852 C62.2228752,32.6851852 62.3526221,32.8148148 62.3526221,32.962963 L62.3526221,37.4259259 C62.3526221,37.5740741 62.2228752,37.7037037 62.0745931,37.7037037 Z" id="Path" fill="#2B2B2B"></path>
                        <path d="M36.6627486,43.9814815 C36.5144665,43.9814815 36.3847197,43.8518519 36.3847197,43.7037037 L36.3847197,41.6851852 C36.3847197,41.537037 36.5144665,41.4074074 36.6627486,41.4074074 C36.8110307,41.4074074 36.9407776,41.537037 36.9407776,41.6851852 L36.9407776,43.7037037 C36.9407776,43.8518519 36.8110307,43.9814815 36.6627486,43.9814815 Z" id="Path" fill="#2B2B2B"></path>
                        <path d="M49.5447559,45.5185185 C49.5076854,45.5185185 49.4706148,45.5185185 49.4335443,45.5 C49.2852622,45.4444444 49.2296564,45.2777778 49.2852622,45.1296296 L52.3621157,38.037037 C52.4177215,37.8888889 52.5845389,37.8333333 52.732821,37.8888889 C52.8811031,37.9444444 52.9367089,38.1111111 52.8811031,38.2592593 L49.8042495,45.3518519 C49.7486438,45.462963 49.6559675,45.5185185 49.5447559,45.5185185 Z" id="Path" fill="#2B2B2B"></path>
                    </g>
                    <g id="Group" transform="translate(24.070524, 121.185185)">
                        <path d="M102,29.1257068 C113.491863,29.1257068 118.737342,12.2923735 132.286618,13.9220031 C136.345841,14.4034846 140.88698,6.08866978 142.740506,2.95904015 C145.81736,-2.24466355 153.972875,-0.152070961 153.972875,5.86644756 L153.972875,29.1257068 L102,29.1257068 Z" id="Path" fill="url(#linearGradient-7)"></path>
                        <path d="M49.3779385,29.2777778 C42.9462025,29.2777778 38.8684448,23.1666667 32.9371609,19.4444444 C22.3905967,12.8333333 23.5027125,19.0740741 6.11663653,13.8888889 C-1.22332731,11.7037037 -2.48372514,19.0740741 6.26491863,29.2777778 L49.3779385,29.2777778 Z" id="Path" fill="url(#linearGradient-8)"></path>
                    </g>
                    <path d="M161.731917,64.8333333 L160.638336,63.3333333 C163.177667,61.5 164.864376,57.5555556 166.643761,53.4074074 C169.016275,47.8518519 171.703888,41.5555556 177.190325,38.962963 L177.987342,40.6296296 C173.131103,42.9259259 170.702984,48.6296296 168.349005,54.1296296 C166.476944,58.5185185 164.697559,62.6851852 161.731917,64.8333333 Z" id="Path" fill="#EBE7FC"></path>
                </g>
            </g>
        </g>
    </g>
</svg>