<?xml version="1.0" encoding="UTF-8"?>
<svg width="54px" height="54px" viewBox="0 0 54 54" version="1.1" xmlns="http://www.w3.org/2000/svg" xmlns:xlink="http://www.w3.org/1999/xlink">
    <!-- Generator: Sketch 53.2 (72643) - https://sketchapp.com -->
    <title>automation-icon</title>
    <desc>Created with Sketch.</desc>
    <g id="Designs" stroke="none" stroke-width="1" fill="none" fill-rule="evenodd" stroke-linecap="round" stroke-linejoin="round">
        <g id="Desktop-HD" transform="translate(-180.000000, -997.000000)" stroke-width="2">
            <g id="Group-10" transform="translate(180.000000, 893.000000)">
                <g id="Group-8" transform="translate(0.000000, 104.000000)">
                    <g id="automation-icon" transform="translate(1.000000, 1.000000)">
                        <path d="M13.562,23.752 C14.057914,24.2995776 14.7622362,24.6119433 15.501,24.6119433 C16.2397638,24.6119433 16.944086,24.2995776 17.44,23.752 L18.694,22.352 C19.4348547,21.5327381 20.6109532,21.268054 21.6313566,21.69094 C22.65176,22.1138261 23.2958503,23.1328516 23.24,24.236 L23.146,26.104 C23.1043948,26.8431948 23.3798968,27.5650692 23.9034138,28.0885862 C24.4269308,28.6121032 25.1488052,28.8876052 25.888,28.846 L27.756,28.752 C28.8598707,28.6946274 29.8801765,29.338837 30.3029851,30.3601377 C30.7257937,31.3814384 30.459405,32.5583271 29.638,33.298 L28.25,34.552 C27.7012793,35.0472614 27.3880923,35.751826 27.3880923,36.491 C27.3880923,37.230174 27.7012793,37.9347386 28.25,38.43 L29.638,39.684 C30.459405,40.4236729 30.7257937,41.6005616 30.3029851,42.6218623 C29.8801765,43.643163 28.8598707,44.2873726 27.756,44.23 L25.888,44.136 C25.1496759,44.0976117 24.4297098,44.3741514 23.9069306,44.8969306 C23.3841514,45.4197098 23.1076117,46.1396759 23.146,46.878 L23.24,48.746 C23.2958503,49.8491484 22.65176,50.8681739 21.6313566,51.29106 C20.6109532,51.713946 19.4348547,51.4492619 18.694,50.63 L17.44,49.23 C16.944086,48.6824224 16.2397638,48.3700567 15.501,48.3700567 C14.7622362,48.3700567 14.057914,48.6824224 13.562,49.23 L12.308,50.63 C11.5671453,51.4492619 10.3910468,51.713946 9.37064343,51.29106 C8.35024002,50.8681739 7.70614965,49.8491484 7.762,48.746 L7.856,46.878 C7.89311499,46.140023 7.61616482,45.4208113 7.09367676,44.8983232 C6.57118869,44.3758352 5.85197699,44.098885 5.114,44.136 L3.246,44.23 C2.14285156,44.2858503 1.12382611,43.64176 0.700940046,42.6213566 C0.278053985,41.6009532 0.542738091,40.4248547 1.362,39.684 L2.752,38.43 C3.29957758,37.934086 3.61194334,37.2297638 3.61194334,36.491 C3.61194334,35.7522362 3.29957758,35.047914 2.752,34.552 L1.362,33.298 C0.542738091,32.5571453 0.278053985,31.3810468 0.700940046,30.3606434 C1.12382611,29.34024 2.14285156,28.6961497 3.246,28.752 L5.114,28.846 C5.85232412,28.8843883 6.57229025,28.6078486 7.09506944,28.0850694 C7.61784863,27.5622902 7.89438827,26.8423241 7.856,26.104 L7.762,24.236 C7.70614965,23.1328516 8.35024002,22.1138261 9.37064343,21.69094 C10.3910468,21.268054 11.5671453,21.5327381 12.308,22.352 L13.562,23.752 Z" id="Path" stroke="#3717E8"></path>
                        <circle id="Oval" stroke="#3717E8" cx="15.5" cy="36.502" r="3.75"></circle>
                        <path d="M36.276,15 C35.8617864,15 35.526,15.3357864 35.526,15.75 C35.526,16.1642136 35.8617864,16.5 36.276,16.5 C36.6902136,16.5 37.026,16.1642136 37.026,15.75 C37.026,15.3357864 36.6902136,15 36.276,15 L36.276,15" id="Path" stroke="#3717E8"></path>
                        <path d="M41.388,8.696 C41.9424721,8.48013004 42.5721223,8.61240378 42.9928593,9.03314072 C43.4135962,9.45387765 43.54587,10.0835279 43.33,10.638 L42.33,13.21 C42.0925301,13.8194571 42.2779418,14.5125241 42.788,14.922 L44.938,16.65 C45.4016004,17.0222564 45.6015746,17.6331976 45.4478129,18.2075299 C45.2940513,18.7818621 44.8155796,19.2111681 44.228,19.302 L41.502,19.724 C40.8555158,19.8228531 40.3478848,20.3296745 40.248,20.976 L39.826,23.704 C39.7351681,24.2915796 39.3058621,24.7700513 38.7315299,24.9238129 C38.1571976,25.0775746 37.5462564,24.8776004 37.174,24.414 L35.446,22.264 C35.0363064,21.7543485 34.3439578,21.5683202 33.734,21.804 L31.162,22.804 C30.6075279,23.01987 29.9778777,22.8875962 29.5571407,22.4668593 C29.1364038,22.0461223 29.00413,21.4164721 29.22,20.862 L30.22,18.29 C30.4574699,17.6805429 30.2720582,16.9874759 29.762,16.578 L27.612,14.848 C27.1492918,14.4760447 26.9499008,13.8659329 27.1036502,13.2925127 C27.2573996,12.7190925 27.7352752,12.2905741 28.322,12.2 L31.048,11.778 C31.6944944,11.677711 32.201711,11.1704944 32.302,10.524 L32.724,7.8 C32.8138767,7.21228731 33.2428172,6.73335142 33.8171073,6.57948501 C34.3913974,6.4256186 35.0023295,6.62594711 35.374,7.09 L37.104,9.24 C37.5138433,9.74949456 38.206506,9.93479802 38.816,9.698 L41.388,8.696 Z" id="Path" stroke="#3717E8"></path>
                        <path d="M17.3355215,2.16761397 C17.8899935,1.95174402 18.5196438,2.08401776 18.9403807,2.50475469 C19.3611177,2.92549162 19.4933914,3.55514188 19.2775215,4.10961397 L18.2775215,6.68161397 C18.0400516,7.29107109 18.2254632,7.98413808 18.7355215,8.39361397 L20.8855215,10.121614 C21.3491219,10.4938704 21.549096,11.1048115 21.3953344,11.6791438 C21.2415727,12.2534761 20.763101,12.6827821 20.1755215,12.773614 L17.4495215,13.195614 C16.8030373,13.294467 16.2954063,13.8012884 16.1955215,14.447614 L15.7735215,17.175614 C15.6826895,17.7631936 15.2533836,18.2416652 14.6790513,18.3954269 C14.104719,18.5491885 13.4937779,18.3492144 13.1215215,17.885614 L11.3935215,15.735614 C10.9838279,15.2259624 10.2914793,15.0399342 9.68152145,15.275614 L7.10952145,16.275614 C6.55504936,16.4914839 5.9253991,16.3592102 5.50466217,15.9384733 C5.08392524,15.5177363 4.95165149,14.8880861 5.16752145,14.333614 L6.16752145,11.761614 C6.40499131,11.1521568 6.21957969,10.4590899 5.70952145,10.049614 L3.55952145,8.31961397 C3.09681326,7.94765864 2.89742225,7.3375469 3.05117163,6.76412667 C3.20492102,6.19070644 3.68279668,5.76218811 4.26952145,5.67161397 L6.99552145,5.24961397 C7.64201587,5.14932501 8.14923249,4.64210839 8.24952145,3.99561397 L8.67152145,1.27161397 C8.76139812,0.68390128 9.19033863,0.204965392 9.76462875,0.0510989801 C10.3389189,-0.102767432 10.949851,0.0975610791 11.3215215,0.561613972 L13.0515215,2.71161397 C13.4613647,3.22110853 14.1540275,3.40641199 14.7635215,3.16961397 L17.3355215,2.16761397 Z" id="Path" stroke="#EBE7FC"></path>
                        <path d="M12,8.25 C11.5857864,8.25 11.25,8.58578644 11.25,9 C11.25,9.41421356 11.5857864,9.75 12,9.75 C12.4142136,9.75 12.75,9.41421356 12.75,9 C12.75,8.58578644 12.4142136,8.25 12,8.25 L12,8.25" id="Path" stroke="#EBE7FC"></path>
                    </g>
                </g>
            </g>
        </g>
    </g>
</svg>