<?xml version="1.0" encoding="UTF-8"?>
<svg width="54px" height="54px" viewBox="0 0 54 54" version="1.1" xmlns="http://www.w3.org/2000/svg" xmlns:xlink="http://www.w3.org/1999/xlink">
    <!-- Generator: Sketch 53.2 (72643) - https://sketchapp.com -->
    <title>dependency-icon</title>
    <desc>Created with Sketch.</desc>
    <g id="Designs" stroke="none" stroke-width="1" fill="none" fill-rule="evenodd" stroke-linecap="round" stroke-linejoin="round">
        <g id="Desktop-HD" transform="translate(-915.000000, -997.000000)" stroke-width="2.18181818">
            <g id="Group-10" transform="translate(180.000000, 893.000000)">
                <g id="Group-7" transform="translate(735.000000, 104.000000)">
                    <g id="human-resources-hierarchy" transform="translate(2.000000, 3.000000)">
                        <path d="M6.54545455,36.8538333 L6.54545455,31.4371667 C6.54545455,30.8388582 7.03387118,30.3538333 7.63636364,30.3538333 L40.3636364,30.3538333 C40.9661288,30.3538333 41.4545455,30.8388582 41.4545455,31.4371667 L41.4545455,36.8538333" id="Path" stroke="#C1B9E4"></path>
                        <path d="M24,23.8538333 L24,36.8538333" id="Path" stroke="#C1B9E4"></path>
                        <ellipse id="Oval" stroke="#3717E8" cx="6.54545455" cy="43.3538333" rx="6.54545455" ry="6.5"></ellipse>
                        <ellipse id="Oval" stroke="#3717E8" cx="24" cy="43.3538333" rx="6.54545455" ry="6.5"></ellipse>
                        <ellipse id="Oval" stroke="#3717E8" cx="41.4545455" cy="43.3538333" rx="6.54545455" ry="6.5"></ellipse>
                        <path d="M14.1818182,23.8538333 C14.1818182,18.469057 18.5775679,14.1038333 24,14.1038333 C29.4224321,14.1038333 33.8181818,18.469057 33.8181818,23.8538333 L14.1818182,23.8538333 Z" id="Path" stroke="#3717E8"></path>
                        <ellipse id="Oval" stroke="#3717E8" cx="24" cy="5.97883333" rx="6" ry="5.95833333"></ellipse>
                    </g>
                </g>
            </g>
        </g>
    </g>
</svg>