<?xml version="1.0" encoding="UTF-8"?>
<svg width="24px" height="24px" viewBox="0 0 24 24" version="1.1" xmlns="http://www.w3.org/2000/svg" xmlns:xlink="http://www.w3.org/1999/xlink">
    <!-- Generator: Sketch 53.2 (72643) - https://sketchapp.com -->
    <title>dribbble-icon-dark</title>
    <desc>Created with Sketch.</desc>
    <g id="Designs" stroke="none" stroke-width="1" fill="none" fill-rule="evenodd">
        <g id="Desktop-HD" transform="translate(-980.000000, -2948.000000)" fill="#305B5D">
            <g id="Group-18" transform="translate(180.000000, 2691.000000)">
                <g id="Group-16" transform="translate(554.000000, 105.000000)">
                    <g id="social-24px-glyph-1-logo-dribbble" transform="translate(246.000000, 152.000000)">
                        <path d="M12,24 C5.38317,24 0,18.61683 0,12 C0,5.38317 5.38317,0 12,0 C18.61683,0 24,5.38317 24,12 C24,18.61683 18.61683,24 12,24 Z M22.12021,13.64263 C21.76956,13.53193 18.94765,12.69032 15.73569,13.20447 C17.07633,16.88847 17.6219,19.88898 17.72693,20.51249 C20.0264,18.95764 21.66338,16.49461 22.12021,13.64263 Z M16.00379,21.45088 C15.85133,20.55161 15.25623,17.41753 13.8172,13.67806 C13.79466,13.68574 13.77213,13.69305 13.74959,13.7009 C7.96832,15.71543 5.893,19.72467 5.70855,20.10175 C7.44645,21.45696 9.63049,22.26548 12,22.26548 C13.41987,22.26548 14.77314,21.97509 16.00379,21.45088 Z M4.38514,18.86899 C4.61733,18.47154 7.43037,13.81386 12.71661,12.10515 C12.85021,12.06197 12.98492,12.0214 13.12051,11.9832 C12.86322,11.40093 12.58296,10.818 12.28951,10.24374 C7.17085,11.77562 2.20382,11.71163 1.75537,11.70243 C1.75223,11.8065 1.75015,11.91081 1.75015,12.01562 C1.75015,14.64821 2.7481,17.05186 4.38514,18.86899 Z M1.96665,9.91634 C2.4251,9.92239 6.64799,9.94072 11.4425,8.66751 C9.74417,5.64848 7.91253,3.11025 7.64231,2.73967 C4.77475,4.09222 2.63131,6.73572 1.96665,9.91634 Z M9.59805,2.05071 C9.88137,2.43006 11.74297,4.96517 13.42256,8.05109 C17.06729,6.68501 18.6102,4.61115 18.79455,4.34857 C16.9845,2.74267 14.60437,1.76577 12,1.76577 C11.173,1.76577 10.36883,1.86492 9.59805,2.05071 Z M19.93403,5.53385 C19.71795,5.82615 18.00036,8.02802 14.21061,9.57526 C14.44911,10.06349 14.67777,10.56005 14.89063,11.0599 C14.96608,11.23706 15.03956,11.41337 15.11145,11.58886 C18.52196,11.16001 21.9107,11.84732 22.24863,11.9188 C22.22608,9.49955 21.36158,7.27802 19.93403,5.53385 Z" id="dribbble-icon-dark"></path>
                    </g>
                </g>
            </g>
        </g>
    </g>
</svg>