<?xml version="1.0" encoding="UTF-8"?>
<svg width="29px" height="28px" viewBox="0 0 29 28" version="1.1" xmlns="http://www.w3.org/2000/svg" xmlns:xlink="http://www.w3.org/1999/xlink">
    <!-- Generator: Sketch 53.2 (72643) - https://sketchapp.com -->
    <title>Fill 4</title>
    <desc>Created with Sketch.</desc>
    <g id="Designs" stroke="none" stroke-width="1" fill="none" fill-rule="evenodd">
        <g id="Desktop-HD" transform="translate(-204.000000, -506.000000)" fill="#FFFFFF">
            <g id="Group-3" transform="translate(180.000000, 492.000000)">
                <path d="M38.3529791,14 C30.4274699,14 24,20.4265887 24,28.3547415 C24,34.6967351 28.1125585,40.0764586 33.8165636,41.9745626 C34.5347412,42.1067425 34.7964575,41.6634991 34.7964575,41.2828209 C34.7964575,40.9426778 34.7841207,40.0394483 34.7770711,38.841898 C30.7843557,39.7089984 29.9419289,36.9173581 29.9419289,36.9173581 C29.28896,35.2589404 28.3478388,34.8174594 28.3478388,34.8174594 C27.0445446,33.9274478 28.4465332,33.9450718 28.4465332,33.9450718 C29.8872945,34.0464098 30.6451262,35.4246059 30.6451262,35.4246059 C31.9255092,37.6179117 34.0051403,36.9843292 34.8228935,36.616869 C34.9533111,35.689847 35.3242961,35.0571457 35.7340539,34.6984975 C32.5467549,34.3363244 29.1955529,33.1044074 29.1955529,27.6039595 C29.1955529,26.0371866 29.7551146,24.7550411 30.6733246,23.752236 C30.5252831,23.3891818 30.0326925,21.929034 30.8143165,19.9533845 C30.8143165,19.9533845 32.0189164,19.5674191 34.7612095,21.4249879 C35.9058878,21.1059936 37.1342801,20.9473777 38.3547415,20.9412093 C39.5743218,20.9473777 40.8018328,21.1059936 41.9482735,21.4249879 C44.6888043,19.5674191 45.8916417,19.9533845 45.8916417,19.9533845 C46.6750282,21.929034 46.1824376,23.3891818 46.0352773,23.752236 C46.9552496,24.7550411 47.5104054,26.0371866 47.5104054,27.6039595 C47.5104054,33.1185066 44.1539161,34.3319184 40.9569239,34.6870419 C41.4715445,35.1302853 41.9306495,36.0061977 41.9306495,37.3456211 C41.9306495,39.2639926 41.9130255,40.8122603 41.9130255,41.2828209 C41.9130255,41.6670239 42.1720982,42.1137921 42.8999691,41.9736814 C48.5995681,40.0711714 52.7086018,34.6949727 52.7086018,28.3547415 C52.7086018,20.4265887 46.2811319,14 38.3529791,14" id="Fill-4"></path>
            </g>
        </g>
    </g>
</svg>