<?xml version="1.0" encoding="UTF-8"?>
<svg width="25px" height="25px" viewBox="0 0 25 25" version="1.1" xmlns="http://www.w3.org/2000/svg" xmlns:xlink="http://www.w3.org/1999/xlink">
    <!-- Generator: Sketch 53.2 (72643) - https://sketchapp.com -->
    <title>goal-icon-3</title>
    <desc>Created with Sketch.</desc>
    <g id="Designs" stroke="none" stroke-width="1" fill="none" fill-rule="evenodd" stroke-linecap="round" stroke-linejoin="round">
        <g id="Desktop-HD" transform="translate(-184.000000, -2349.000000)" stroke="#3717E8">
            <g id="Group-13" transform="translate(180.000000, 2084.000000)">
                <g id="goal-icon-3" transform="translate(4.000000, 265.000000)">
                    <path d="M1.651,7.5 C2.36874799,4.01084815 5.43779336,1.50516408 9,1.5 L13.5,1.5" id="Path"></path>
                    <path d="M13.5,16.5 L9,16.5 C5.05561558,16.495594 1.78699552,13.4401354 1.517,9.505" id="Path"></path>
                    <path d="M17.5,21.5 L17.5,19.063 C17.4979491,17.8652184 16.6681172,16.8279285 15.5,16.563" id="Path"></path>
                    <path d="M15.5,11.521 C19.4454974,11.8199003 22.495629,15.1061993 22.5,19.063 L22.5,21.5" id="Path"></path>
                    <path d="M6.549,9.5 C6.78846772,10.6634696 7.81214278,11.4987817 9,11.5 L13.5,11.5" id="Path"></path>
                    <path d="M13.5,6.5 L9,6.5 C8.21486677,6.50157145 7.47607931,6.87189098 7.005,7.5" id="Path"></path>
                    <path d="M15.5,6.5 C15.5,7.05228475 15.0522847,7.5 14.5,7.5 C13.9477153,7.5 13.5,7.05228475 13.5,6.5 L13.5,1.5 C13.5,0.94771525 13.9477153,0.5 14.5,0.5 C15.0522847,0.5 15.5,0.94771525 15.5,1.5 L15.5,6.5 Z" id="Path"></path>
                    <path d="M15.5,16.5 C15.5,17.0522847 15.0522847,17.5 14.5,17.5 C13.9477153,17.5 13.5,17.0522847 13.5,16.5 L13.5,11.5 C13.5,10.9477153 13.9477153,10.5 14.5,10.5 C15.0522847,10.5 15.5,10.9477153 15.5,11.5 L15.5,16.5 Z" id="Path"></path>
                    <path d="M17.5,23.5 C16.9477153,23.5 16.5,23.0522847 16.5,22.5 C16.5,21.9477153 16.9477153,21.5 17.5,21.5 L22.5,21.5 C23.0522847,21.5 23.5,21.9477153 23.5,22.5 C23.5,23.0522847 23.0522847,23.5 22.5,23.5 L17.5,23.5 Z" id="Path"></path>
                    <path d="M8,8.5 C8,9.05228475 7.55228475,9.5 7,9.5 L1.5,9.5 C0.94771525,9.5 0.5,9.05228475 0.5,8.5 C0.5,7.94771525 0.94771525,7.5 1.5,7.5 L7,7.5 C7.55228475,7.5 8,7.94771525 8,8.5 Z" id="Path"></path>
                </g>
            </g>
        </g>
    </g>
</svg>