<?xml version="1.0" encoding="UTF-8"?>
<svg width="180px" height="152px" viewBox="0 0 180 152" version="1.1" xmlns="http://www.w3.org/2000/svg" xmlns:xlink="http://www.w3.org/1999/xlink">
    <!-- Generator: Sketch 53.2 (72643) - https://sketchapp.com -->
    <title>marginalia-bad-gateway</title>
    <desc>Created with Sketch.</desc>
    <defs>
        <linearGradient x1="49.999893%" y1="17.9151378%" x2="49.999893%" y2="96.7425365%" id="linearGradient-1">
            <stop stop-color="#FFE272" offset="0%"></stop>
            <stop stop-color="#FFFFFF" offset="99.58%"></stop>
        </linearGradient>
        <linearGradient x1="50%" y1="-14.6329621%" x2="50%" y2="115.093058%" id="linearGradient-2">
            <stop stop-color="#E5A0C1" offset="0%"></stop>
            <stop stop-color="#F3D1E1" offset="48.046875%"></stop>
            <stop stop-color="#FFFFFF" offset="100%"></stop>
        </linearGradient>
        <path d="M0.126582278,9.60555556 C0.126582278,4.76666667 6.81735986,1.75138889 9.40325497,5.85 C24.0325497,29.1055556 38.7522604,16.7194444 45.641953,28.4194444 C57.2151899,48.0819444 65.6781193,43.1527778 81.5370705,52.5416667 C97.3960217,61.9305556 92.079566,79.6972222 116.654611,83.2722222 L0.126582278,83.8319444 L0.126582278,9.60555556 L0.126582278,9.60555556 Z" id="path-3"></path>
        <linearGradient x1="50%" y1="14.1655184%" x2="50%" y2="76.4611719%" id="linearGradient-4">
            <stop stop-color="#FFE272" offset="0%"></stop>
            <stop stop-color="#FFFFFF" offset="99.58%"></stop>
        </linearGradient>
        <linearGradient x1="49.9999945%" y1="-64.4214546%" x2="49.9999945%" y2="77.4057739%" id="linearGradient-5">
            <stop stop-color="#FFE272" offset="0%"></stop>
            <stop stop-color="#FFFFFF" offset="99.58%"></stop>
        </linearGradient>
        <linearGradient x1="8.16760645%" y1="-32.9592674%" x2="66.101959%" y2="101.327333%" id="linearGradient-6">
            <stop stop-color="#FFE272" offset="0%"></stop>
            <stop stop-color="#FFFFFF" offset="99.58%"></stop>
        </linearGradient>
        <linearGradient x1="-0.0352201169%" y1="-31.1911306%" x2="74.0689195%" y2="95.7436285%" id="linearGradient-7">
            <stop stop-color="#FFE272" offset="0%"></stop>
            <stop stop-color="#FFFFFF" offset="99.58%"></stop>
        </linearGradient>
        <linearGradient x1="49.9999689%" y1="-10.5197143%" x2="49.9999689%" y2="69.5554455%" id="linearGradient-8">
            <stop stop-color="#77879D" offset="0%"></stop>
            <stop stop-color="#A1978E" offset="8.927408%"></stop>
            <stop stop-color="#C9A780" offset="18.83%"></stop>
            <stop stop-color="#E5B275" offset="27.91%"></stop>
            <stop stop-color="#F7B96F" offset="35.78%"></stop>
            <stop stop-color="#FDBB6D" offset="41.55%"></stop>
            <stop stop-color="#FDBB9F" offset="49.89%"></stop>
            <stop stop-color="#D1D2D1" offset="59.9%"></stop>
            <stop stop-color="#FECEAA" offset="100%"></stop>
        </linearGradient>
        <path d="M1.73598553,71.5541667 C2.35081374,69.0986111 3.00180832,66.6611111 3.67088608,64.2416667 C4.91862568,59.7277778 6.25678119,55.2319444 7.66726944,50.7541667 L7.920434,49.9236111 C7.97468354,49.7791667 8.01084991,49.6347222 8.04701627,49.5083333 L8.19168174,49.0930556 L8.80650995,47.45 C9.20433996,46.3486111 9.63833635,45.2652778 10.0542495,44.1638889 C10.9041591,41.9791667 11.7540687,39.7944444 12.6401447,37.6277778 C13.5262206,35.4611111 14.4303797,33.2944444 15.3707052,31.1458333 C15.840868,30.0805556 16.3110307,28.9972222 16.7992767,27.9319444 L17.5406872,26.3430556 C17.7938517,25.8194444 18.0470163,25.2777778 18.3001808,24.7541667 C20.0180832,21.3055556 24.2133816,19.9152778 27.6672694,21.6486111 C30.8137432,23.2194444 32.2423146,26.8305556 31.1754069,30.0625 L31.1754069,30.0625 C30.994575,30.6041667 30.79566,31.1458333 30.596745,31.7055556 L30,33.3305556 C29.60217,34.4138889 29.1862568,35.4972222 28.7703436,36.5625 C27.920434,38.7111111 27.0524412,40.8416667 26.1482821,42.9722222 C25.2622061,45.1027778 24.3218807,47.2152778 23.3996383,49.3277778 C22.9294756,50.375 22.4593128,51.4402778 21.9710669,52.4875 L21.2477396,54.0583333 L21.0669078,54.4555556 C21.0126582,54.5819444 20.9584087,54.7263889 20.9041591,54.8527778 L20.596745,55.6652778 C18.9511754,59.9805556 17.2332731,64.2597222 15.4249548,68.5208333 C14.2676311,71.2472222 13.074141,73.9916667 11.8444846,76.7 L1.73598553,71.5541667 Z" id="path-9"></path>
        <linearGradient x1="50%" y1="-24.5881939%" x2="50%" y2="187.482194%" id="linearGradient-10">
            <stop stop-color="#77879D" offset="0%"></stop>
            <stop stop-color="#A1978E" offset="8.927408%"></stop>
            <stop stop-color="#C9A780" offset="18.83%"></stop>
            <stop stop-color="#E5B275" offset="27.91%"></stop>
            <stop stop-color="#F7B96F" offset="35.78%"></stop>
            <stop stop-color="#FDBB6D" offset="41.55%"></stop>
            <stop stop-color="#FDBB9F" offset="49.89%"></stop>
            <stop stop-color="#D1D2D1" offset="59.9%"></stop>
            <stop stop-color="#FECEAA" offset="100%"></stop>
        </linearGradient>
        <path d="M15.4611212,42.1055556 C16.0759494,35.1 20.8679928,35.8402778 19.4394213,30.9652778 C18.0108499,26.0902778 20.7233273,19.6805556 26.1121157,20.15 C30.2712477,20.5111111 30.5786618,20.3666667 32.3146474,20.5291667 C37.8481013,21.0166667 40.9041591,29.7916667 41.6636528,43.9652778 L15.4611212,42.1055556 Z" id="path-11"></path>
        <linearGradient x1="50%" y1="104.359559%" x2="50%" y2="0.85328215%" id="linearGradient-12">
            <stop stop-color="#9774AC" offset="0%"></stop>
            <stop stop-color="#47A6D3" offset="40.1%"></stop>
            <stop stop-color="#A7A7AE" offset="50.11%"></stop>
            <stop stop-color="#E89AC0" offset="59.08%"></stop>
            <stop stop-color="#BFE7D1" offset="100%"></stop>
        </linearGradient>
        <path d="M35.2983725,48.3708333 L30.6509946,88.9958333 L30.7052441,88.1111111 L29.4936709,136.193056 L15.9855335,135.85 C15.1898734,131.823611 14.6473779,127.797222 14.0867993,123.770833 C13.5443038,119.744444 13.1103074,115.718056 12.6943942,111.709722 C12.5135624,109.705556 12.2965642,107.683333 12.1518987,105.679167 L11.8987342,102.663889 L11.681736,99.6486111 C11.3924051,95.6222222 11.1573237,91.6138889 10.9584087,87.6055556 L11.0126582,86.7388889 C11.1392405,83.3263889 11.3381555,79.9138889 11.5551537,76.5194444 C11.8083183,73.125 15.5515371,42.1236111 15.5515371,42.1236111 L35.2983725,48.3708333 Z" id="path-13"></path>
        <linearGradient x1="50%" y1="108.569102%" x2="50%" y2="-1.12981885%" id="linearGradient-14">
            <stop stop-color="#9774AC" offset="0%"></stop>
            <stop stop-color="#47A6D3" offset="40.1%"></stop>
            <stop stop-color="#A7A7AE" offset="50.11%"></stop>
            <stop stop-color="#E89AC0" offset="59.08%"></stop>
            <stop stop-color="#BFE7D1" offset="100%"></stop>
        </linearGradient>
        <path d="M24.3330573,51.6585757 C18.9441211,50.6921363 15.1556821,45.4411957 15.4972875,41.6722222 L41.6455696,43.9833333 L49.5479204,67.6 L52.676311,78.7583333 L54.2314647,84.3375 L55.0090416,87.1180556 L55.4068716,88.5083333 C55.5334539,88.9777778 55.6962025,89.4291667 55.840868,89.8805556 L68.3725136,127.941667 L55.5877034,132.690278 C55.0632911,131.841667 48.2278481,120.647222 46.5461121,117.090278 C43.1826401,109.994444 40.0361664,102.808333 37.034358,95.5680556 C36.8535262,95.1166667 36.6546112,94.6652778 36.4737794,94.2138889 L35.9855335,92.8416667 L35.0271248,90.0791667 C34.7197107,89.1583333 34.3761302,88.2375 34.0867993,87.3166667 L33.164557,84.5361111 L32.7124774,83.1458333 L32.278481,81.7555556 L31.3924051,78.975 L30.5424955,76.1763889 L30.1265823,74.7680556 L29.7106691,73.3597222 C28.6075949,69.6222222 27.5768535,65.8486111 26.636528,62.075 C26.4014467,61.1361111 26.1844485,60.1791667 25.9493671,59.2222222 C25.7323689,58.2652778 25.4972875,57.3263889 25.2983725,56.3694444 L24.6835443,53.4986111 L24.4122966,52.0541667 L24.3330573,51.6585757 Z" id="path-15"></path>
        <linearGradient x1="50.0000219%" y1="39.3541214%" x2="50.0000219%" y2="176.270822%" id="linearGradient-16">
            <stop stop-color="#77879D" offset="0%"></stop>
            <stop stop-color="#A1978E" offset="8.927408%"></stop>
            <stop stop-color="#C9A780" offset="18.83%"></stop>
            <stop stop-color="#E5B275" offset="27.91%"></stop>
            <stop stop-color="#F7B96F" offset="35.78%"></stop>
            <stop stop-color="#FDBB6D" offset="41.55%"></stop>
            <stop stop-color="#FDBB9F" offset="49.89%"></stop>
            <stop stop-color="#D1D2D1" offset="59.9%"></stop>
            <stop stop-color="#FECEAA" offset="100%"></stop>
        </linearGradient>
        <path d="M38.4086799,4.80277778 L61.8625678,19.4458333 C64.7377939,21.8111111 65.1537071,26.0361111 62.7848101,28.9069444 C61.7902351,30.0986111 60.4882459,30.875 59.0777577,31.2 L58.6437613,31.2902778 L38.0108499,35.9847222 C34.2676311,36.8333333 30.5244123,34.4861111 29.6745027,30.7486111 C28.8245931,27.0111111 31.1754069,23.2736111 34.9186257,22.425 L55.5515371,17.7305556 L52.3327306,29.6111111 L32.0072333,13.1986111 L38.4086799,4.80277778 Z" id="path-17"></path>
        <linearGradient x1="23.7947262%" y1="-40.9149209%" x2="61.0918821%" y2="106.844711%" id="linearGradient-18">
            <stop stop-color="#FFE272" offset="0%"></stop>
            <stop stop-color="#FFFFFF" offset="99.58%"></stop>
        </linearGradient>
    </defs>
    <g id="Versions" stroke="none" stroke-width="1" fill="none" fill-rule="evenodd">
        <g id="0.2" transform="translate(-917.000000, -969.000000)" fill-rule="nonzero">
            <g id="Group-10" transform="translate(180.000000, 843.000000)">
                <g id="marginalia-bad-gateway" transform="translate(737.000000, 130.000000)">
                    <g id="Group" opacity="0.3" transform="translate(0.562387, 0.902778)" fill="#C4ECFE">
                        <g id="Shape">
                            <path d="M172.097649,0.668055556 L172.097649,145.888889 L0.68716094,145.888889 L0.68716094,0.668055556 L172.097649,0.668055556 L172.097649,0.668055556 Z M172.658228,0.108333333 L0.126582278,0.108333333 L0.126582278,146.448611 L172.658228,146.448611 L172.658228,0.108333333 L172.658228,0.108333333 Z"></path>
                        </g>
                        <g transform="translate(0.000000, 20.041667)" id="Rectangle">
                            <rect x="0.126582278" y="83.8138889" width="172.531646" height="1"></rect>
                            <rect x="0.126582278" y="62.8513889" width="172.531646" height="1"></rect>
                            <rect x="0.126582278" y="83.8138889" width="172.531646" height="1"></rect>
                            <rect x="0.126582278" y="104.758333" width="172.531646" height="1"></rect>
                            <rect x="0.126582278" y="41.9069444" width="172.531646" height="1"></rect>
                            <rect x="0.126582278" y="20.9444444" width="172.531646" height="1"></rect>
                            <rect x="0.126582278" y="0" width="172.531646" height="1"></rect>
                        </g>
                    </g>
                    <g id="Group" transform="translate(0.562387, 11.375000)">
                        <path d="M121.699819,83.2722222 C132.911392,83.2722222 138.028933,66.8597222 151.24774,68.4486111 C155.207957,68.9180556 159.638336,60.8111111 161.446655,57.7597222 C164.448463,52.6861111 172.405063,54.7263889 172.405063,60.5944444 L172.405063,83.2722222 L121.699819,83.2722222 Z" id="Path" fill="url(#linearGradient-1)"></path>
                        <g transform="translate(6.148282, 0.000000)" fill="#BFD9FF" id="Oval">
                            <ellipse cx="71.8083183" cy="38.7833333" rx="1" ry="1"></ellipse>
                            <ellipse cx="154.394213" cy="82.1166667" rx="1" ry="1"></ellipse>
                            <ellipse cx="153.652803" cy="3.79166667" rx="1" ry="1"></ellipse>
                            <ellipse cx="60.994575" cy="0.740277778" rx="1" ry="1"></ellipse>
                            <ellipse cx="0.867992767" cy="2.63611111" rx="1" ry="1"></ellipse>
                            <ellipse cx="114.213382" cy="100.298611" rx="1" ry="1"></ellipse>
                            <ellipse transform="translate(3.416005, 81.290621) rotate(-22.618543) translate(-3.416005, -81.290621) " cx="3.41600542" cy="81.2906214" rx="1" ry="1"></ellipse>
                        </g>
                        <g id="Path">
                            <use fill="#A5D1D7" xlink:href="#path-3"></use>
                            <use fill="url(#linearGradient-2)" xlink:href="#path-3"></use>
                        </g>
                        <path d="M0.126582278,37.5736111 C8.46292948,40.4444444 7.34177215,50.1763889 14.4122966,55.9722222 C21.482821,61.7680556 45.8770344,58.3375 47.522604,73.2694444 C49.1681736,88.2013889 58.8426763,93.6541667 58.8426763,93.6541667 L0.126582278,80.0041667 L0.126582278,37.5736111 Z" id="Path" fill="url(#linearGradient-4)"></path>
                        <path d="M87.522604,80.8527778 C68.8426763,76.9166667 71.6274864,61.3527778 62.0072333,54.8527778 C57.7938517,52.0180556 50.4339964,51.7291667 44.6292948,39.2347222 C42.0072333,33.5833333 33.1464738,35.5152778 31.681736,41.5638889 C30.4339964,46.6916667 30.5786618,52.4513889 34.5931284,57.3263889 C44.6112116,69.4958333 46.4737794,73.6125 35.9674503,81.3944444 L87.522604,80.8527778 Z" id="Path" fill="url(#linearGradient-5)"></path>
                        <path d="M10,30.5138889 C9.27667269,28.3291667 9.81916817,22.7319444 13.3453888,24.3388889 C15.0813743,25.1333333 16.1482821,30.2611111 17.2875226,31.8680556 C18.3905967,33.4208333 12.0614828,36.7611111 10,30.5138889 Z" id="Path" fill="url(#linearGradient-6)"></path>
                        <path d="M76.039783,59.2583333 C75.1717902,57.8861111 74.0506329,53.7513889 76.6907776,54.5097222 C77.9746835,54.8888889 79.9095841,57.9944444 80.2169982,59.3666667 C80.5244123,60.6666667 78.5533454,63.1763889 76.039783,59.2583333 Z" id="Path" fill="url(#linearGradient-7)"></path>
                    </g>
                    <g id="Group" transform="translate(0.743219, 88.833333)">
                        <rect id="Rectangle" fill="#FFFFFF" x="18.9330922" y="1.02916667" width="56.7992767" height="4.74861111"></rect>
                        <path d="M75.7323689,6.68055556 L18.9330922,6.68055556 C18.4267631,6.68055556 18.0289331,6.28333333 18.0289331,5.77777778 L18.0289331,1.02916667 C18.0289331,0.523611111 18.4267631,0.126388889 18.9330922,0.126388889 L75.7323689,0.126388889 C76.238698,0.126388889 76.636528,0.523611111 76.636528,1.02916667 L76.636528,5.77777778 C76.636528,6.28333333 76.238698,6.68055556 75.7323689,6.68055556 Z M19.8372514,4.875 L74.8282098,4.875 L74.8282098,1.93194444 L19.8372514,1.93194444 L19.8372514,4.875 Z" id="Shape" fill="#2B2B2B"></path>
                        <rect id="Rectangle" fill="#FFFFFF" x="75.7504521" y="1.02916667" width="56.7992767" height="4.74861111"></rect>
                        <path d="M132.549729,6.68055556 L75.7504521,6.68055556 C75.244123,6.68055556 74.8462929,6.28333333 74.8462929,5.77777778 L74.8462929,1.02916667 C74.8462929,0.523611111 75.244123,0.126388889 75.7504521,0.126388889 L132.549729,0.126388889 C133.056058,0.126388889 133.453888,0.523611111 133.453888,1.02916667 L133.453888,5.77777778 C133.453888,6.28333333 133.056058,6.68055556 132.549729,6.68055556 Z M76.6546112,4.875 L131.64557,4.875 L131.64557,1.93194444 L76.6546112,1.93194444 L76.6546112,4.875 Z" id="Shape" fill="#2B2B2B"></path>
                        <rect id="Rectangle" fill="#FFFFFF" x="114.593128" y="1.02916667" width="56.7992767" height="4.74861111"></rect>
                        <path d="M171.392405,6.68055556 L114.593128,6.68055556 C114.086799,6.68055556 113.688969,6.28333333 113.688969,5.77777778 L113.688969,1.02916667 C113.688969,0.523611111 114.086799,0.126388889 114.593128,0.126388889 L171.392405,0.126388889 C171.898734,0.126388889 172.296564,0.523611111 172.296564,1.02916667 L172.296564,5.77777778 C172.296564,6.28333333 171.898734,6.68055556 171.392405,6.68055556 Z M115.497288,4.875 L170.488246,4.875 L170.488246,1.93194444 L115.497288,1.93194444 L115.497288,4.875 Z" id="Shape" fill="#2B2B2B"></path>
                        <rect id="Rectangle" fill="#FFFFFF" x="0.922242315" y="5.77777778" width="170.470163" height="51.7652778"></rect>
                        <path d="M171.392405,58.4458333 L0.922242315,58.4458333 C0.415913201,58.4458333 0.0180831826,58.0486111 0.0180831826,57.5430556 L0.0180831826,5.77777778 C0.0180831826,5.27222222 0.415913201,4.875 0.922242315,4.875 L171.392405,4.875 C171.898734,4.875 172.296564,5.27222222 172.296564,5.77777778 L172.296564,57.5430556 C172.296564,58.0486111 171.898734,58.4458333 171.392405,58.4458333 Z M1.82640145,56.6402778 L170.488246,56.6402778 L170.488246,6.68055556 L1.82640145,6.68055556 L1.82640145,56.6402778 Z" id="Shape" fill="#2B2B2B"></path>
                        <path d="M57.5587703,57.5430556 L28.1012658,57.5430556 L28.1012658,24.1041667 C28.1012658,15.9791667 34.7016275,9.38888889 42.8390597,9.38888889 L42.8390597,9.38888889 C50.9764919,9.38888889 57.5768535,15.9791667 57.5768535,24.1041667 L57.5768535,57.5430556 L57.5587703,57.5430556 Z" id="Path" fill="#2B2B2B"></path>
                        <path d="M58.4810127,58.4458333 L27.1971067,58.4458333 L27.1971067,24.1041667 C27.1971067,15.4916667 34.2133816,8.48611111 42.8390597,8.48611111 C51.4647378,8.48611111 58.4810127,15.4916667 58.4810127,24.1041667 L58.4810127,58.4458333 Z M29.005425,56.6402778 L56.6726944,56.6402778 L56.6726944,24.1041667 C56.6726944,16.4847222 50.4701627,10.2916667 42.8390597,10.2916667 C35.2079566,10.2916667 29.005425,16.4847222 29.005425,24.1041667 L29.005425,56.6402778 Z" id="Shape" fill="#2B2B2B"></path>
                        <rect id="Rectangle" fill="#FFFFFF" x="5.6238698" y="9.44305556" width="8.60759494" height="41.0763889"></rect>
                        <path d="M14.2314647,51.4222222 L5.6238698,51.4222222 C5.11754069,51.4222222 4.71971067,51.025 4.71971067,50.5194444 L4.71971067,9.44305556 C4.71971067,8.9375 5.11754069,8.54027778 5.6238698,8.54027778 L14.2314647,8.54027778 C14.7377939,8.54027778 15.1356239,8.9375 15.1356239,9.44305556 L15.1356239,50.5194444 C15.1356239,51.025 14.7377939,51.4222222 14.2314647,51.4222222 Z M6.52802893,49.6166667 L13.3273056,49.6166667 L13.3273056,10.3458333 L6.52802893,10.3458333 L6.52802893,49.6166667 Z" id="Shape" fill="#2B2B2B"></path>
                        <rect id="Rectangle" fill="#FFFFFF" x="0.922242315" y="1.02916667" width="18.0108499" height="4.74861111"></rect>
                        <path d="M18.9330922,6.68055556 L0.922242315,6.68055556 C0.415913201,6.68055556 0.0180831826,6.28333333 0.0180831826,5.77777778 L0.0180831826,1.02916667 C0.0180831826,0.523611111 0.415913201,0.126388889 0.922242315,0.126388889 L18.9330922,0.126388889 C19.4394213,0.126388889 19.8372514,0.523611111 19.8372514,1.02916667 L19.8372514,5.77777778 C19.8372514,6.28333333 19.4394213,6.68055556 18.9330922,6.68055556 Z M1.82640145,4.875 L18.0289331,4.875 L18.0289331,1.93194444 L1.82640145,1.93194444 L1.82640145,4.875 Z" id="Shape" fill="#2B2B2B"></path>
                        <rect id="Rectangle" fill="#FFFFFF" x="3.90596745" y="5.77777778" width="12.0614828" height="4.74861111"></rect>
                        <path d="M15.9674503,11.4291667 L3.90596745,11.4291667 C3.39963834,11.4291667 3.00180832,11.0319444 3.00180832,10.5263889 L3.00180832,5.77777778 C3.00180832,5.27222222 3.39963834,4.875 3.90596745,4.875 L15.9674503,4.875 C16.4737794,4.875 16.8716094,5.27222222 16.8716094,5.77777778 L16.8716094,10.5263889 C16.8716094,11.0319444 16.4737794,11.4291667 15.9674503,11.4291667 Z M4.81012658,9.62361111 L15.0632911,9.62361111 L15.0632911,6.68055556 L4.81012658,6.68055556 C4.81012658,6.68055556 4.81012658,9.62361111 4.81012658,9.62361111 Z" id="Shape" fill="#2B2B2B"></path>
                        <rect id="Rectangle" fill="#FFFFFF" x="0.922242315" y="52.7944444" width="18.0108499" height="4.74861111"></rect>
                        <path d="M18.9330922,58.4458333 L0.922242315,58.4458333 C0.415913201,58.4458333 0.0180831826,58.0486111 0.0180831826,57.5430556 L0.0180831826,52.7944444 C0.0180831826,52.2888889 0.415913201,51.8916667 0.922242315,51.8916667 L18.9330922,51.8916667 C19.4394213,51.8916667 19.8372514,52.2888889 19.8372514,52.7944444 L19.8372514,57.5430556 C19.8372514,58.0486111 19.4394213,58.4458333 18.9330922,58.4458333 Z M1.82640145,56.6402778 L18.0289331,56.6402778 L18.0289331,53.6972222 L1.82640145,53.6972222 L1.82640145,56.6402778 Z" id="Shape" fill="#2B2B2B"></path>
                        <rect id="Rectangle" fill="#FFFFFF" x="3.90596745" y="48.0458333" width="12.0614828" height="4.74861111"></rect>
                        <path d="M15.9674503,53.6972222 L3.90596745,53.6972222 C3.39963834,53.6972222 3.00180832,53.3 3.00180832,52.7944444 L3.00180832,48.0458333 C3.00180832,47.5402778 3.39963834,47.1430556 3.90596745,47.1430556 L15.9674503,47.1430556 C16.4737794,47.1430556 16.8716094,47.5402778 16.8716094,48.0458333 L16.8716094,52.7944444 C16.8716094,53.3 16.4737794,53.6972222 15.9674503,53.6972222 Z M4.81012658,51.8916667 L15.0632911,51.8916667 L15.0632911,48.9486111 L4.81012658,48.9486111 C4.81012658,48.9486111 4.81012658,51.8916667 4.81012658,51.8916667 Z" id="Shape" fill="#2B2B2B"></path>
                        <rect id="Rectangle" fill="#2B2B2B" x="9.02350814" y="14.3902778" width="1.80831826" height="30.4416667"></rect>
                        <rect id="Rectangle" fill="#FFFFFF" x="71.4466546" y="9.44305556" width="8.60759494" height="41.0763889"></rect>
                        <path d="M80.0542495,51.4222222 L71.4466546,51.4222222 C70.9403255,51.4222222 70.5424955,51.025 70.5424955,50.5194444 L70.5424955,9.44305556 C70.5424955,8.9375 70.9403255,8.54027778 71.4466546,8.54027778 L80.0542495,8.54027778 C80.5605787,8.54027778 80.9584087,8.9375 80.9584087,9.44305556 L80.9584087,50.5194444 C80.9584087,51.025 80.5605787,51.4222222 80.0542495,51.4222222 Z M72.3508137,49.6166667 L79.1500904,49.6166667 L79.1500904,10.3458333 L72.3508137,10.3458333 L72.3508137,49.6166667 Z" id="Shape" fill="#2B2B2B"></path>
                        <rect id="Rectangle" fill="#FFFFFF" x="66.7450271" y="1.02916667" width="18.0108499" height="4.74861111"></rect>
                        <path d="M84.755877,6.68055556 L66.7450271,6.68055556 C66.238698,6.68055556 65.840868,6.28333333 65.840868,5.77777778 L65.840868,1.02916667 C65.840868,0.523611111 66.238698,0.126388889 66.7450271,0.126388889 L84.755877,0.126388889 C85.2622061,0.126388889 85.6600362,0.523611111 85.6600362,1.02916667 L85.6600362,5.77777778 C85.6600362,6.28333333 85.2622061,6.68055556 84.755877,6.68055556 Z M67.6491863,4.875 L83.8517179,4.875 L83.8517179,1.93194444 L67.6491863,1.93194444 L67.6491863,4.875 Z" id="Shape" fill="#2B2B2B"></path>
                        <rect id="Rectangle" fill="#FFFFFF" x="69.7106691" y="5.77777778" width="12.0614828" height="4.74861111"></rect>
                        <path d="M81.7721519,11.4291667 L69.7106691,11.4291667 C69.20434,11.4291667 68.8065099,11.0319444 68.8065099,10.5263889 L68.8065099,5.77777778 C68.8065099,5.27222222 69.20434,4.875 69.7106691,4.875 L81.7721519,4.875 C82.278481,4.875 82.676311,5.27222222 82.676311,5.77777778 L82.676311,10.5263889 C82.676311,11.0319444 82.278481,11.4291667 81.7721519,11.4291667 Z M70.6148282,9.62361111 L80.8679928,9.62361111 L80.8679928,6.68055556 L70.6148282,6.68055556 L70.6148282,9.62361111 L70.6148282,9.62361111 Z" id="Shape" fill="#2B2B2B"></path>
                        <rect id="Rectangle" fill="#FFFFFF" x="66.7450271" y="52.7944444" width="18.0108499" height="4.74861111"></rect>
                        <path d="M84.755877,58.4458333 L66.7450271,58.4458333 C66.238698,58.4458333 65.840868,58.0486111 65.840868,57.5430556 L65.840868,52.7944444 C65.840868,52.2888889 66.238698,51.8916667 66.7450271,51.8916667 L84.755877,51.8916667 C85.2622061,51.8916667 85.6600362,52.2888889 85.6600362,52.7944444 L85.6600362,57.5430556 C85.6600362,58.0486111 85.2622061,58.4458333 84.755877,58.4458333 Z M67.6491863,56.6402778 L83.8517179,56.6402778 L83.8517179,53.6972222 L67.6491863,53.6972222 L67.6491863,56.6402778 Z" id="Shape" fill="#2B2B2B"></path>
                        <rect id="Rectangle" fill="#FFFFFF" x="69.7106691" y="48.0458333" width="12.0614828" height="4.74861111"></rect>
                        <path d="M81.7721519,53.6972222 L69.7106691,53.6972222 C69.20434,53.6972222 68.8065099,53.3 68.8065099,52.7944444 L68.8065099,48.0458333 C68.8065099,47.5402778 69.20434,47.1430556 69.7106691,47.1430556 L81.7721519,47.1430556 C82.278481,47.1430556 82.676311,47.5402778 82.676311,48.0458333 L82.676311,52.7944444 C82.676311,53.3 82.278481,53.6972222 81.7721519,53.6972222 Z M70.6148282,51.8916667 L80.8679928,51.8916667 L80.8679928,48.9486111 L70.6148282,48.9486111 L70.6148282,51.8916667 L70.6148282,51.8916667 Z" id="Shape" fill="#2B2B2B"></path>
                        <rect id="Rectangle" fill="#2B2B2B" x="74.8462929" y="14.3902778" width="1.80831826" height="30.4416667"></rect>
                        <rect id="Rectangle" fill="#FFFFFF" x="137.251356" y="9.44305556" width="8.60759494" height="41.0763889"></rect>
                        <path d="M145.858951,51.4222222 L137.251356,51.4222222 C136.745027,51.4222222 136.347197,51.025 136.347197,50.5194444 L136.347197,9.44305556 C136.347197,8.9375 136.745027,8.54027778 137.251356,8.54027778 L145.858951,8.54027778 C146.36528,8.54027778 146.76311,8.9375 146.76311,9.44305556 L146.76311,50.5194444 C146.76311,51.025 146.36528,51.4222222 145.858951,51.4222222 Z M138.155515,49.6166667 L144.954792,49.6166667 L144.954792,10.3458333 L138.155515,10.3458333 L138.155515,49.6166667 Z" id="Shape" fill="#2B2B2B"></path>
                        <rect id="Rectangle" fill="#FFFFFF" x="132.549729" y="1.02916667" width="18.0108499" height="4.74861111"></rect>
                        <path d="M150.560579,6.68055556 L132.549729,6.68055556 C132.0434,6.68055556 131.64557,6.28333333 131.64557,5.77777778 L131.64557,1.02916667 C131.64557,0.523611111 132.0434,0.126388889 132.549729,0.126388889 L150.560579,0.126388889 C151.066908,0.126388889 151.464738,0.523611111 151.464738,1.02916667 L151.464738,5.77777778 C151.464738,6.28333333 151.066908,6.68055556 150.560579,6.68055556 Z M133.453888,4.875 L149.65642,4.875 L149.65642,1.93194444 L133.453888,1.93194444 L133.453888,4.875 Z" id="Shape" fill="#2B2B2B"></path>
                        <rect id="Rectangle" fill="#FFFFFF" x="135.515371" y="5.77777778" width="12.0614828" height="4.74861111"></rect>
                        <path d="M147.576854,11.4291667 L135.515371,11.4291667 C135.009042,11.4291667 134.611212,11.0319444 134.611212,10.5263889 L134.611212,5.77777778 C134.611212,5.27222222 135.009042,4.875 135.515371,4.875 L147.576854,4.875 C148.083183,4.875 148.481013,5.27222222 148.481013,5.77777778 L148.481013,10.5263889 C148.481013,11.0319444 148.083183,11.4291667 147.576854,11.4291667 Z M136.41953,9.62361111 L146.672694,9.62361111 L146.672694,6.68055556 L136.41953,6.68055556 L136.41953,9.62361111 Z" id="Shape" fill="#2B2B2B"></path>
                        <rect id="Rectangle" fill="#FFFFFF" x="132.549729" y="52.7944444" width="18.0108499" height="4.74861111"></rect>
                        <path d="M150.560579,58.4458333 L132.549729,58.4458333 C132.0434,58.4458333 131.64557,58.0486111 131.64557,57.5430556 L131.64557,52.7944444 C131.64557,52.2888889 132.0434,51.8916667 132.549729,51.8916667 L150.560579,51.8916667 C151.066908,51.8916667 151.464738,52.2888889 151.464738,52.7944444 L151.464738,57.5430556 C151.464738,58.0486111 151.066908,58.4458333 150.560579,58.4458333 Z M133.453888,56.6402778 L149.65642,56.6402778 L149.65642,53.6972222 L133.453888,53.6972222 L133.453888,56.6402778 Z" id="Shape" fill="#2B2B2B"></path>
                        <rect id="Rectangle" fill="#FFFFFF" x="135.515371" y="48.0458333" width="12.0614828" height="4.74861111"></rect>
                        <path d="M147.576854,53.6972222 L135.515371,53.6972222 C135.009042,53.6972222 134.611212,53.3 134.611212,52.7944444 L134.611212,48.0458333 C134.611212,47.5402778 135.009042,47.1430556 135.515371,47.1430556 L147.576854,47.1430556 C148.083183,47.1430556 148.481013,47.5402778 148.481013,48.0458333 L148.481013,52.7944444 C148.481013,53.3 148.083183,53.6972222 147.576854,53.6972222 Z M136.41953,51.8916667 L146.672694,51.8916667 L146.672694,48.9486111 L136.41953,48.9486111 L136.41953,51.8916667 Z" id="Shape" fill="#2B2B2B"></path>
                        <rect id="Rectangle" fill="#2B2B2B" x="140.650995" y="14.3902778" width="1.80831826" height="30.4416667"></rect>
                        <rect id="Rectangle" fill="#FFFFFF" x="23.8517179" y="52.7944444" width="37.9566004" height="4.74861111"></rect>
                        <path d="M61.8083183,58.4458333 L23.8517179,58.4458333 C23.3453888,58.4458333 22.9475588,58.0486111 22.9475588,57.5430556 L22.9475588,52.7944444 C22.9475588,52.2888889 23.3453888,51.8916667 23.8517179,51.8916667 L61.8083183,51.8916667 C62.3146474,51.8916667 62.7124774,52.2888889 62.7124774,52.7944444 L62.7124774,57.5430556 C62.7124774,58.0486111 62.3146474,58.4458333 61.8083183,58.4458333 Z M24.755877,56.6402778 L60.9041591,56.6402778 L60.9041591,53.6972222 L24.755877,53.6972222 L24.755877,56.6402778 Z" id="Shape" fill="#2B2B2B"></path>
                        <rect id="Rectangle" fill="#FFFFFF" x="28.1012658" y="48.0458333" width="29.4575045" height="4.74861111"></rect>
                        <path d="M57.5587703,53.6972222 L28.1012658,53.6972222 C27.5949367,53.6972222 27.1971067,53.3 27.1971067,52.7944444 L27.1971067,48.0458333 C27.1971067,47.5402778 27.5949367,47.1430556 28.1012658,47.1430556 L57.5587703,47.1430556 C58.0650995,47.1430556 58.4629295,47.5402778 58.4629295,48.0458333 L58.4629295,52.7944444 C58.4629295,53.3 58.0650995,53.6972222 57.5587703,53.6972222 Z M29.005425,51.8916667 L56.6546112,51.8916667 L56.6546112,48.9486111 L29.005425,48.9486111 L29.005425,51.8916667 Z" id="Shape" fill="#2B2B2B"></path>
                        <rect id="Rectangle" fill="#2B2B2B" x="89.5479204" y="11.7902778" width="5.42495479" height="1.80555556"></rect>
                        <rect id="Rectangle" fill="#2B2B2B" x="86.835443" y="33.7097222" width="5.42495479" height="1.80555556"></rect>
                        <rect id="Rectangle" fill="#2B2B2B" x="110.994575" y="20.4388889" width="5.42495479" height="1.80555556"></rect>
                        <rect id="Rectangle" fill="#2B2B2B" x="95.1537071" y="21.3416667" width="1.80831826" height="2.70833333"></rect>
                        <rect id="Rectangle" fill="#2B2B2B" x="117.775769" y="33.7097222" width="2.7124774" height="1.80555556"></rect>
                        <rect id="Rectangle" fill="#2B2B2B" x="63.074141" y="40.4444444" width="2.7124774" height="1.80555556"></rect>
                        <rect id="Rectangle" fill="#2B2B2B" x="154.792043" y="16.6111111" width="2.7124774" height="1.80555556"></rect>
                        <rect id="Rectangle" fill="#2B2B2B" x="99.4213382" y="41.6541667" width="2.7124774" height="1.80555556"></rect>
                        <rect id="Rectangle" fill="#2B2B2B" x="122.531646" y="48.5333333" width="1.80831826" height="2.70833333"></rect>
                        <rect id="Rectangle" fill="#2B2B2B" x="160.126582" y="35.7861111" width="1.80831826" height="2.70833333"></rect>
                        <rect id="Rectangle" fill="#2B2B2B" x="19.4755877" y="25.6930556" width="1.80831826" height="2.70833333"></rect>
                    </g>
                    <rect id="Rectangle" fill="#2B2B2B" x="97.5424955" y="146.593056" width="72.875226" height="1"></rect>
                    <g id="Group" transform="translate(96.945750, 6.680556)">
                        <path d="M5.76853526,140.490278 L27.3598553,140.4 C28.4810127,140.4 29.403255,139.497222 29.4394213,138.359722 L29.4936709,135.633333 L15.840868,135.831944 L5.49728752,138.413889 C4.30379747,138.720833 4.53887884,140.490278 5.76853526,140.490278 Z" id="Path" fill="#2B2B2B"></path>
                        <path d="M11.8625678,76.6638889 C11.1754069,78.1805556 10.4520796,79.6791667 9.72875226,81.1777778 L9.72875226,81.1777778 C8.49909584,83.6694444 5.47920434,84.7166667 2.96564195,83.4888889 C0.849909584,82.4416667 -0.216998192,80.1125 0.253164557,77.8916667 C0.705244123,75.7611111 1.21157324,73.6486111 1.73598553,71.5361111 L11.8625678,76.6638889 Z" id="Path" fill="#FDC068"></path>
                        <g id="Path">
                            <use fill="#B9EEF1" xlink:href="#path-9"></use>
                            <use fill="url(#linearGradient-8)" style="mix-blend-mode: soft-light;" xlink:href="#path-9"></use>
                        </g>
                        <polygon id="Path" fill="#2B2B2B" points="15.3887884 43.2972222 7.83001808 74.5694444 11.8625678 76.6638889 17.2875226 52.3972222"></polygon>
                        <polygon id="Rectangle" fill="#2B2B2B" transform="translate(6.669761, 74.044427) rotate(-63.096728) translate(-6.669761, -74.044427) " points="6.39544545 68.5485172 6.93729901 68.5488516 6.94407716 79.5403364 6.40222359 79.540002"></polygon>
                        <g id="Path">
                            <use fill="#B9EEF1" xlink:href="#path-11"></use>
                            <use fill="url(#linearGradient-10)" style="mix-blend-mode: soft-light;" xlink:href="#path-11"></use>
                        </g>
                        <g id="Path">
                            <use fill="#3717E8" xlink:href="#path-13"></use>
                            <use fill="url(#linearGradient-12)" style="mix-blend-mode: soft-light;" xlink:href="#path-13"></use>
                        </g>
                        <g id="Combined-Shape">
                            <use fill="#3717E8" xlink:href="#path-15"></use>
                            <use fill="url(#linearGradient-14)" style="mix-blend-mode: soft-light;" xlink:href="#path-15"></use>
                        </g>
                        <g transform="translate(21.338156, 12.638889)" id="Path">
                            <path d="M3.8517179,7.49305556 C3.8517179,7.49305556 1.39240506,7.54722222 0.162748644,9.17222222 L4.30379747,11.4833333 L3.8517179,7.49305556 Z" fill="#2B2B2B"></path>
                            <path d="M6.41952984,11.9166667 L12.7486438,9.84027778 L9.92766727,0.379166667 L2.15189873,0.108333333 L3.58047016,9.67777778 C3.45388788,11.2125 4.93670886,12.3861111 6.41952984,11.9166667 Z" fill="#FDC068"></path>
                            <polygon fill="#2B2B2B" points="2.96564195 5.50694444 6.72694394 4.225 3.58047016 9.65972222"></polygon>
                        </g>
                        <g id="Path">
                            <use fill="#B9EEF1" xlink:href="#path-17"></use>
                            <use fill="url(#linearGradient-16)" style="mix-blend-mode: soft-light;" xlink:href="#path-17"></use>
                        </g>
                        <path d="M32.0072333,13.1986111 L29.2585895,11.1944444 C27.0162749,9.56944444 26.5280289,6.42777778 28.1555154,4.18888889 C29.6564195,2.13055556 32.4412297,1.55277778 34.6292948,2.74444444 L38.4267631,4.82083333 L32.0072333,13.1986111 Z" id="Path" fill="#FDC068"></path>
                        <path d="M47.6672694,140.490278 L67.9746835,133.177778 C69.0415913,132.798611 69.60217,131.643056 69.2405063,130.559722 L68.3725136,127.977778 L55.5877034,132.726389 L46.7269439,138.630556 C45.6962025,139.316667 46.4918626,140.905556 47.6672694,140.490278 Z" id="Path" fill="#2B2B2B"></path>
                        <path d="M47.9023508,26.2888889 C47.8481013,26.2888889 47.7757685,26.2708333 47.7396022,26.2347222 L41.482821,21.1972222 C41.3743219,21.1069444 41.3562387,20.9263889 41.4466546,20.8180556 C41.5370705,20.7097222 41.7179024,20.6916667 41.8264014,20.7819444 L48.0831826,25.8194444 C48.1916817,25.9097222 48.2097649,26.0902778 48.119349,26.1986111 C48.0650995,26.2527778 47.9746835,26.2888889 47.9023508,26.2888889 Z" id="Path" fill="#2B2B2B"></path>
                        <path d="M40.8137432,35.3708333 L36.925859,36.1833333 L41.6455696,43.9833333 C41.6455696,43.9833333 41.5009042,39.3069444 40.8137432,35.3708333 Z" id="Path" fill="#2B2B2B"></path>
                        <path d="M15.4972875,41.9611111 C15.4972875,41.9611111 15.4792043,41.9611111 15.4972875,41.9611111 C15.3345389,41.9430556 15.2079566,41.8166667 15.2260398,41.6722222 C15.3526221,39.6680556 18.6980108,33.3125 18.8426763,33.0416667 C18.915009,32.9152778 19.0777577,32.8611111 19.20434,32.9333333 C19.3309222,33.0055556 19.3851718,33.1680556 19.3128391,33.2944444 C19.2766727,33.3666667 15.8770344,39.8125 15.7685353,41.7083333 C15.7504521,41.8527778 15.641953,41.9611111 15.4972875,41.9611111 Z" id="Path" fill="#2B2B2B"></path>
                        <path d="M31.5551537,79.7694444 C31.4466546,79.7694444 31.3381555,79.6972222 31.3019892,79.5708333 L27.9566004,68.1597222 C27.920434,68.0152778 27.9927667,67.8708333 28.1374322,67.8166667 C28.2820976,67.7805556 28.4267631,67.8527778 28.4810127,67.9972222 L31.8264014,79.4083333 C31.8625678,79.5527778 31.7902351,79.6972222 31.6455696,79.7513889 C31.6094033,79.7694444 31.5732369,79.7694444 31.5551537,79.7694444 Z" id="Path" fill="#2B2B2B"></path>
                        <path d="M55.0271248,93.9069444 C54.8824593,93.9069444 54.755877,93.7805556 54.755877,93.6361111 L54.755877,87.1180556 C54.755877,86.9736111 54.8824593,86.8472222 55.0271248,86.8472222 C55.1717902,86.8472222 55.2983725,86.9736111 55.2983725,87.1180556 L55.2983725,93.6361111 C55.2983725,93.7805556 55.1717902,93.9069444 55.0271248,93.9069444 Z" id="Path" fill="#2B2B2B"></path>
                        <path d="M30.39783,97.0486111 C30.3254973,97.0486111 30.2350814,97.0125 30.1808318,96.9583333 L28.4086799,94.8458333 C28.318264,94.7375 28.3363472,94.5569444 28.4448463,94.4666667 C28.5533454,94.3763889 28.7341772,94.3944444 28.8245931,94.5027778 L30.596745,96.6152778 C30.6871609,96.7236111 30.6690778,96.9041667 30.5605787,96.9944444 C30.5244123,97.0305556 30.4520796,97.0486111 30.39783,97.0486111 Z" id="Path" fill="#2B2B2B"></path>
                        <polygon id="Rectangle" fill="#2B2B2B" transform="translate(35.204864, 9.014886) rotate(-52.712980) translate(-35.204864, -9.014886) " points="29.929553 8.73990593 40.4797763 8.74768231 40.4801758 9.2898663 29.9299524 9.28208991"></polygon>
                        <g transform="translate(13.200723, 0.000000)">
                            <g transform="translate(0.723327, 0.000000)">
                                <path d="M9.49367089,19.3375 L14.0867993,17.6944444 C16.4556962,16.8458333 17.7034358,14.2277778 16.8535262,11.8625 L14.3761302,4.94722222 C13.0198915,1.15555556 8.82459313,-0.830555556 5.02712477,0.541666667 L5.02712477,0.541666667 C1.22965642,1.89583333 -0.759493671,6.08472222 0.61482821,9.87638889 L2.89330922,16.2138889 C3.83363472,18.9041667 6.79927667,20.3125 9.49367089,19.3375 Z" id="SVGID_303_" fill="#FDC068"></path>
                                <path d="M1.98915009,11.9166667 C1.98915009,12.2055556 1.82640145,12.4763889 1.59132007,12.6208333 L1.04882459,11.1041667 C1.08499096,11.1041667 1.12115732,11.1041667 1.15732369,11.1041667 C1.60940325,11.0861111 1.98915009,11.4652778 1.98915009,11.9166667 Z" id="Path" fill="#2B2B2B"></path>
                            </g>
                            <path d="M4.55696203,13.6680556 C4.53887884,13.6680556 4.52079566,13.6680556 4.50271248,13.6680556 L3.68896926,13.5055556 C3.47197107,13.4333333 3.29113924,13.2708333 3.20072333,13.0722222 C3.09222423,12.8736111 3.09222423,12.6388889 3.16455696,12.4222222 L3.72513562,10.9055556 C3.77938517,10.7611111 3.92405063,10.6888889 4.06871609,10.7430556 C4.21338156,10.7972222 4.28571429,10.9416667 4.23146474,11.0861111 L3.67088608,12.6027778 C3.65280289,12.675 3.65280289,12.7652778 3.68896926,12.8375 C3.72513562,12.9097222 3.77938517,12.9638889 3.8517179,12.9819444 L4.61121157,13.1263889 C4.75587703,13.1625 4.86437613,13.2888889 4.82820976,13.4333333 C4.7920434,13.5777778 4.6835443,13.6680556 4.55696203,13.6680556 Z" id="Path" fill="#2B2B2B"></path>
                            <path d="M5.35262206,17.5138889 C5.3164557,17.5138889 5.26220615,17.4958333 5.22603978,17.4777778 C5.0994575,17.4055556 5.04520796,17.2430556 5.11754069,17.1166667 C5.38878843,16.6291667 6.22061483,15.8347222 7.48643761,16.3944444 C7.63110307,16.4486111 7.68535262,16.6111111 7.63110307,16.7555556 C7.57685353,16.9 7.41410488,16.9541667 7.26943942,16.9 C6.1482821,16.3944444 5.6238698,17.3333333 5.58770344,17.3694444 C5.53345389,17.4597222 5.44303797,17.5138889 5.35262206,17.5138889 Z" id="Path" fill="#2B2B2B"></path>
                            <ellipse id="Oval" fill="#2B2B2B" cx="6.36528029" cy="10.3638889" rx="1" ry="1"></ellipse>
                            <path d="M6.47377939,8.34166667 C6.4556962,8.34166667 6.43761302,8.34166667 6.41952984,8.34166667 L4.33996383,7.9625 C4.19529837,7.94444444 4.08679928,7.8 4.12296564,7.65555556 C4.14104882,7.51111111 4.28571429,7.40277778 4.43037975,7.43888889 L6.50994575,7.81805556 C6.65461121,7.83611111 6.76311031,7.98055556 6.72694394,8.125 C6.70886076,8.25138889 6.60036166,8.34166667 6.47377939,8.34166667 Z" id="Path" fill="#2B2B2B"></path>
                            <path d="M0.289330922,10.6527778 C0.235081374,10.6527778 0.180831826,10.6347222 0.126582278,10.5986111 C-3.46944695e-18,10.5083333 -0.0180831826,10.3458333 0.0723327306,10.2194444 L1.17540687,8.72083333 C1.26582278,8.59444444 1.42857143,8.57638889 1.55515371,8.66666667 C1.68173599,8.75694444 1.69981917,8.91944444 1.60940325,9.04583333 L0.506329114,10.5444444 C0.452079566,10.6166667 0.379746835,10.6527778 0.289330922,10.6527778 Z" id="Path" fill="#2B2B2B"></path>
                            <path d="M0.976491863,6.30138889 C0.976491863,8.19722222 4.6835443,6.3375 6.65461121,4.56805556 C7.12477396,4.13472222 7.88426763,4.29722222 8.15551537,4.85694444 L9.74683544,8.125 C10.0361664,8.70277778 10.6148282,9.1 11.2658228,9.13611111 L12.8571429,9.24444444 L14.7739602,12.1875 C15.5334539,13.3611111 17.034358,13.8486111 18.3544304,13.325 L18.3544304,13.325 C18.3544304,13.325 15.8951175,6.87916667 14.8101266,4.11666667 C13.7251356,1.35416667 10.1265823,-0.975 5.75045208,0.505555556 C1.37432188,1.98611111 0.976491863,6.30138889 0.976491863,6.30138889 Z" id="Path" fill="#565656"></path>
                            <path d="M13.3273056,10.5805556 L13.3273056,10.5805556 C12.676311,10.8152778 11.9710669,10.4902778 11.7359855,9.84027778 L11.1211573,8.16111111 C10.8860759,7.51111111 11.2115732,6.80694444 11.8625678,6.57222222 L11.8625678,6.57222222 C12.5135624,6.3375 13.2188065,6.6625 13.4538879,7.3125 L14.0687161,8.99166667 C14.3037975,9.64166667 13.9783002,10.3458333 13.3273056,10.5805556 Z" id="Path" fill="#FDC068"></path>
                        </g>
                    </g>
                    <path d="M28.9529837,26.2888889 C24.1971067,24.2125 20.0198915,20.1138889 19.1699819,14.8236111 C18.6274864,11.4111111 20.4900542,3.17777778 25.4267631,6.30138889 C27.8499096,7.83611111 27.2350814,11.9708333 28.6094033,14.6069444 C29.965642,17.1347222 36.6383363,29.6472222 28.9529837,26.2888889 Z" id="Path" fill="url(#linearGradient-18)"></path>
                    <path d="M61.3761302,36.3277778 C58.1030741,35.6236111 55.6075949,32.3194444 53.2025316,29.1416667 C50.9783002,26.2166667 48.681736,23.1833333 46.005425,22.5152778 L46.4394213,20.7638889 C49.7486438,21.5763889 52.244123,24.8625 54.6491863,28.0402778 C56.8553345,30.9652778 59.1518987,33.9805556 61.7739602,34.5402778 L61.3761302,36.3277778 Z" id="Path" fill="#F9D5FF"></path>
                    <path d="M95.0650995,49.5263889 C91.3037975,48.2986111 88.2115732,44.0916667 85.3544304,39.8666667 L86.8553345,38.8555556 C89.4050633,42.6291667 92.4068716,46.7458333 95.6256781,47.7930556 L95.0650995,49.5263889 Z" id="Path" fill="#F9D5FF"></path>
                </g>
            </g>
        </g>
    </g>
</svg>