<?xml version="1.0" encoding="UTF-8"?>
<svg width="180px" height="152px" viewBox="0 0 180 152" version="1.1" xmlns="http://www.w3.org/2000/svg" xmlns:xlink="http://www.w3.org/1999/xlink">
    <!-- Generator: Sketch 53.2 (72643) - https://sketchapp.com -->
    <title>marginalia-delivery</title>
    <desc>Created with Sketch.</desc>
    <defs>
        <linearGradient x1="84.1157995%" y1="9.03264395%" x2="31.3743169%" y2="75.9972587%" id="linearGradient-1">
            <stop stop-color="#C0DDFC" offset="0%"></stop>
            <stop stop-color="#FFFFFF" offset="99.58%"></stop>
        </linearGradient>
        <linearGradient x1="6.45068303e-15%" y1="49.9999984%" x2="100%" y2="49.9999984%" id="linearGradient-2">
            <stop stop-color="#FFD8A1" offset="0%"></stop>
            <stop stop-color="#FFFFFF" offset="99.58%"></stop>
        </linearGradient>
        <linearGradient x1="6.53625314e-05%" y1="49.9999586%" x2="100%" y2="49.9999586%" id="linearGradient-3">
            <stop stop-color="#FFD8A1" offset="0%"></stop>
            <stop stop-color="#FFFFFF" offset="99.58%"></stop>
        </linearGradient>
        <linearGradient x1="-2.66300141e-05%" y1="49.9999741%" x2="100%" y2="49.9999741%" id="linearGradient-4">
            <stop stop-color="#FFD8A1" offset="0%"></stop>
            <stop stop-color="#FFFFFF" offset="99.58%"></stop>
        </linearGradient>
        <linearGradient x1="50.0000189%" y1="-73.8646716%" x2="50.0000189%" y2="121.27293%" id="linearGradient-5">
            <stop stop-color="#77879D" offset="0%"></stop>
            <stop stop-color="#A1978E" offset="8.927408%"></stop>
            <stop stop-color="#C9A780" offset="18.83%"></stop>
            <stop stop-color="#E5B275" offset="27.91%"></stop>
            <stop stop-color="#F7B96F" offset="35.78%"></stop>
            <stop stop-color="#FDBB6D" offset="41.55%"></stop>
            <stop stop-color="#FDBB9F" offset="49.89%"></stop>
            <stop stop-color="#D1D2D1" offset="59.9%"></stop>
            <stop stop-color="#FECEAA" offset="100%"></stop>
        </linearGradient>
        <path d="M67.7396022,22.5694444 C61.9349005,22.5152778 61.2115732,17.7305556 56.1482821,15.6180556 C51.084991,13.4875 49.2224231,17.6402778 43.1283906,10.8152778 C37.034358,3.99027778 28.6256781,9.1 33.8517179,15.6180556 C36.0036166,18.3083333 36.1844485,21.5402778 36.1844485,21.5402778 L67.7396022,22.5694444 Z" id="path-6"></path>
        <linearGradient x1="49.9999749%" y1="-15.6092316%" x2="49.9999749%" y2="111.417288%" id="linearGradient-7">
            <stop stop-color="#77879D" offset="0%"></stop>
            <stop stop-color="#A1978E" offset="8.927408%"></stop>
            <stop stop-color="#C9A780" offset="18.83%"></stop>
            <stop stop-color="#E5B275" offset="27.91%"></stop>
            <stop stop-color="#F7B96F" offset="35.78%"></stop>
            <stop stop-color="#FDBB6D" offset="41.55%"></stop>
            <stop stop-color="#FDBB9F" offset="49.89%"></stop>
            <stop stop-color="#D1D2D1" offset="59.9%"></stop>
            <stop stop-color="#FECEAA" offset="100%"></stop>
        </linearGradient>
        <path d="M76.8173599,22.2083333 C76.8173599,22.2083333 71.4285714,12.4041667 64.9367089,10.7069444 C58.4448463,9.02777778 56.9620253,1.44444444 51.6636528,0.234722222 C47.5587703,-0.704166667 41.8083183,3.30416667 45.8951175,11.2125 C49.9819168,19.1208333 52.9837251,23.1291667 52.9837251,23.1291667 L76.8173599,22.2083333 Z" id="path-8"></path>
        <linearGradient x1="49.9999514%" y1="94.3299098%" x2="49.9999514%" y2="-13.7246242%" id="linearGradient-9">
            <stop stop-color="#FFE0C2" offset="0%"></stop>
            <stop stop-color="#7AAEFC" offset="40.1%"></stop>
            <stop stop-color="#B8C1FC" offset="59.08%"></stop>
            <stop stop-color="#D2D4D4" offset="100%"></stop>
        </linearGradient>
        <path d="M36.8716094,0 L36.9801085,0.523611111 L37.0705244,1.04722222 L37.2513562,2.09444444 C37.3598553,2.79861111 37.4502712,3.50277778 37.5406872,4.20694444 C37.6311031,4.91111111 37.7034358,5.61527778 37.7757685,6.31944444 L37.9746835,8.43194444 C38.2278481,11.2486111 38.3725136,14.0652778 38.4810127,16.8819444 C38.5895118,19.6986111 38.6075949,22.5333333 38.6075949,25.35 C38.5714286,28.1666667 38.517179,31.0013889 38.3905967,33.8361111 L38.2459313,37.2847222 L37.3598553,38.7111111 C35.5696203,41.6 33.7432188,44.4527778 31.8625678,47.2875 L30.4520796,49.4180556 L29.0235081,51.5305556 C28.0831826,52.9388889 27.0886076,54.3291667 26.1121157,55.7375 C24.1410488,58.5180556 22.1157324,61.2986111 20.0361664,64.025 C18.9873418,65.3791667 17.9385172,66.7513889 16.835443,68.0875 L15.1898734,70.0916667 C14.6292948,70.7597222 14.0687161,71.4277778 13.4900542,72.0777778 L1.42857143,66.0111111 L19.6925859,29.8277778 L18.6437613,34.775 L17.034358,0.956944444 L36.8716094,0 Z" id="path-10"></path>
        <linearGradient x1="49.9999921%" y1="109.535916%" x2="49.9999921%" y2="-0.845583853%" id="linearGradient-11">
            <stop stop-color="#9774AC" offset="0%"></stop>
            <stop stop-color="#47A6D3" offset="40.1%"></stop>
            <stop stop-color="#A7A7AE" offset="50.11%"></stop>
            <stop stop-color="#E89AC0" offset="59.08%"></stop>
            <stop stop-color="#BFE7D1" offset="100%"></stop>
        </linearGradient>
        <linearGradient x1="49.9999953%" y1="107.50879%" x2="49.9999953%" y2="4.98684865%" id="linearGradient-12">
            <stop stop-color="#9774AC" offset="0%"></stop>
            <stop stop-color="#47A6D3" offset="40.1%"></stop>
            <stop stop-color="#A7A7AE" offset="50.11%"></stop>
            <stop stop-color="#E89AC0" offset="59.08%"></stop>
            <stop stop-color="#BFE7D1" offset="100%"></stop>
        </linearGradient>
        <path d="M85.244123,50.0680556 C87.4502712,43.3875 82.7486438,42.1777778 86.0036166,38.2777778 C89.2585895,34.3777778 89.3128391,27.4083333 84.1772152,25.7111111 C80.2169982,24.4111111 80,24.1583333 78.318264,23.5986111 C73.0379747,21.8652778 65.3887884,25.2777778 65.2260398,30.8388889 C65.2260398,30.8388889 61.9529837,36.8513889 60.4339964,41.4375 L85.244123,50.0680556 Z" id="path-13"></path>
        <linearGradient x1="49.9999755%" y1="127.349683%" x2="49.9999755%" y2="-2.72068134%" id="linearGradient-14">
            <stop stop-color="#FFE0C2" offset="0%"></stop>
            <stop stop-color="#7AAEFC" offset="40.1%"></stop>
            <stop stop-color="#B8C1FC" offset="59.08%"></stop>
            <stop stop-color="#D2D4D4" offset="100%"></stop>
        </linearGradient>
        <path d="M3.23688969,0.108333333 L13.0379747,0.234722222 C13.0379747,0.234722222 16.5822785,1.33611111 17.2875226,1.51666667 C17.2875226,1.51666667 41.3019892,9.51527778 43.9783002,10.6166667 L45.5877034,11.2847222 C50,13.1083333 52.1518987,18.1097222 50.5063291,22.5513889 C49.3309222,25.7291667 48.119349,28.9069444 46.8535262,32.0486111 L44.9186257,36.7791667 C44.2676311,38.35 40.1084991,47.7208333 38.6075949,50.8083333 C37.8481013,52.3611111 37.0886076,53.8958333 36.2929476,55.4305556 L35.0813743,57.7236111 C34.6654611,58.4819444 34.2495479,59.2402778 33.8155515,59.9986111 L20.7775769,56.4597222 L31.4285714,17.3694444 L38.0470163,29.4486111 L7.34177215,19.825 C1.53707052,18.0013889 -1.46473779,11.6097222 0.831826401,5.99444444 L3.23688969,0.108333333 Z" id="path-15"></path>
        <linearGradient x1="49.9999953%" y1="107.50879%" x2="49.9999953%" y2="4.98684865%" id="linearGradient-16">
            <stop stop-color="#9774AC" offset="0%"></stop>
            <stop stop-color="#47A6D3" offset="40.1%"></stop>
            <stop stop-color="#A7A7AE" offset="50.11%"></stop>
            <stop stop-color="#E89AC0" offset="59.08%"></stop>
            <stop stop-color="#BFE7D1" offset="100%"></stop>
        </linearGradient>
        <path d="M111.98915,49.5444444 L90.5244123,58.6083333 C87.8300181,59.7458333 84.7739602,58.8611111 83.074141,56.6583333 L82.7848101,56.2791667 L66.4014467,35.0819444 C64.0506329,32.0486111 64.6112116,27.6791667 67.6672694,25.3319444 C70.7052441,22.9847222 75.0813743,23.5444444 77.4321881,26.5958333 L93.8155515,47.7930556 L86.0578662,45.4638889 L107.703436,39.8305556" id="path-17"></path>
        <linearGradient x1="50.0000426%" y1="-49.3759016%" x2="50.0000426%" y2="259.890282%" id="linearGradient-18">
            <stop stop-color="#77879D" offset="0%"></stop>
            <stop stop-color="#A1978E" offset="8.927408%"></stop>
            <stop stop-color="#C9A780" offset="18.83%"></stop>
            <stop stop-color="#E5B275" offset="27.91%"></stop>
            <stop stop-color="#F7B96F" offset="35.78%"></stop>
            <stop stop-color="#FDBB6D" offset="41.55%"></stop>
            <stop stop-color="#FDBB9F" offset="49.89%"></stop>
            <stop stop-color="#D1D2D1" offset="59.9%"></stop>
            <stop stop-color="#FECEAA" offset="100%"></stop>
        </linearGradient>
        <path d="M24.0867993,10.6347222 C18.4086799,10.6347222 20.3435805,7.78194444 14.0687161,6.53611111 C8.89692586,5.50694444 10.9584087,0.451388889 14.0867993,1.26388889 C20.4701627,2.90694444 20.9403255,5.57916667 25.8770344,5.79583333 C28.5352622,5.92222222 28.6437613,10.6347222 24.0867993,10.6347222 Z" id="path-19"></path>
    </defs>
    <g id="Versions" stroke="none" stroke-width="1" fill="none" fill-rule="evenodd">
        <g id="0.2" transform="translate(-549.000000, -969.000000)" fill-rule="nonzero">
            <g id="Group-10" transform="translate(180.000000, 843.000000)">
                <g id="marginalia-delivery" transform="translate(368.000000, 130.000000)">
                    <g id="Group" opacity="0.3" transform="translate(0.562387, 0.902778)" fill="#C4ECFE">
                        <g id="Shape">
                            <path d="M172.097649,0.668055556 L172.097649,145.888889 L0.68716094,145.888889 L0.68716094,0.668055556 L172.097649,0.668055556 L172.097649,0.668055556 Z M172.658228,0.108333333 L0.126582278,0.108333333 L0.126582278,146.448611 L172.658228,146.448611 L172.658228,0.108333333 L172.658228,0.108333333 Z"></path>
                        </g>
                        <g transform="translate(0.000000, 20.041667)" id="Rectangle">
                            <rect x="0.126582278" y="83.8138889" width="172.531646" height="1"></rect>
                            <rect x="0.126582278" y="62.8513889" width="172.531646" height="1"></rect>
                            <rect x="0.126582278" y="83.8138889" width="172.531646" height="1"></rect>
                            <rect x="0.126582278" y="104.758333" width="172.531646" height="1"></rect>
                            <rect x="0.126582278" y="41.9069444" width="172.531646" height="1"></rect>
                            <rect x="0.126582278" y="20.9444444" width="172.531646" height="1"></rect>
                            <rect x="0.126582278" y="0" width="172.531646" height="1"></rect>
                        </g>
                    </g>
                    <g id="Group" transform="translate(11.412297, 4.513889)" fill="#BFD9FF">
                        <ellipse id="Oval" cx="0.886075949" cy="64.2777778" rx="1" ry="1"></ellipse>
                        <ellipse id="Oval" cx="79.8191682" cy="113.840278" rx="1" ry="1"></ellipse>
                        <ellipse id="Oval" cx="137.685353" cy="0.830555556" rx="1" ry="1"></ellipse>
                        <ellipse id="Oval" cx="107.287523" cy="23.7972222" rx="1" ry="1"></ellipse>
                        <ellipse id="Oval" cx="1.62748644" cy="11.6097222" rx="1" ry="1"></ellipse>
                        <ellipse id="Oval" cx="146.238698" cy="68.7555556" rx="1" ry="1"></ellipse>
                        <ellipse id="Oval" cx="25.1175407" cy="88.5805556" rx="1" ry="1"></ellipse>
                    </g>
                    <g id="Group" transform="translate(0.562387, 83.236111)">
                        <path d="M76.2567812,63.3569444 C69.0777577,63.3569444 64.2133816,45.0666667 53.363472,41.0041667 C42.5135624,36.9416667 31.2296564,39.2527778 28.1916817,18.9944444 C26.3110307,6.5 17.920434,4.80277778 10.6329114,0.975 C5.85895118,-1.51666667 0.144665461,1.93194444 0.144665461,7.3125 L0.144665461,64.0972222 L76.2567812,63.3569444 Z" id="Path" fill="url(#linearGradient-1)"></path>
                        <path d="M39.9638336,63.7361111 C29.6383363,63.7361111 22.4954792,55.8819444 18.1012658,51.9638889 C13.7070524,48.0277778 12.2603978,51.8736111 7.73960217,47.3055556 C6.5641953,46.1138889 5.47920434,44.9222222 4.53887884,43.7847222 C3.03797468,41.9972222 0.126582278,43.0625 0.126582278,45.3916667 L0.126582278,64.1152778 L39.9638336,63.7361111 Z" id="Path" fill="url(#linearGradient-2)"></path>
                        <path d="M97.1428571,64.1152778 C89.4936709,64.1152778 85.8770344,55.7916667 81.6274864,54.7083333 C77.3779385,53.625 72.5858951,58.8791667 77.9566004,64.1152778 L97.1428571,64.1152778 Z" id="Path" fill="url(#linearGradient-3)"></path>
                        <path d="M169.855335,64.1152778 C151.681736,64.1152778 147.775769,48.1361111 135.660036,46.7097222 C119.511754,44.8138889 124.520796,38.5125 110.994575,32.5 C105.913201,30.2430556 93.9240506,35.1361111 98.8065099,44.9583333 C101.265823,49.9236111 109.493671,63.2125 110.162749,64.1152778 L169.855335,64.1152778 L169.855335,64.1152778 Z" id="Path" fill="url(#linearGradient-4)"></path>
                    </g>
                    <rect id="Rectangle" fill="#2B2B2B" x="16.6202532" y="146.593056" width="153.797468" height="1"></rect>
                    <g id="Group" transform="translate(9.423146, 3.611111)">
                        <g id="Path">
                            <use fill="#511DF1" xlink:href="#path-6"></use>
                            <use fill="url(#linearGradient-5)" style="mix-blend-mode: soft-light;" xlink:href="#path-6"></use>
                        </g>
                        <g id="Path">
                            <use fill="#511DF1" xlink:href="#path-8"></use>
                            <use fill="url(#linearGradient-7)" style="mix-blend-mode: soft-light;" xlink:href="#path-8"></use>
                        </g>
                        <path d="M77.5949367,21.5583333 L61.1211573,57.9583333 C59.7287523,61.0458333 56.636528,63.0319444 53.2549729,63.0319444 L32.6401447,63.0319444 C25.3526221,63.0319444 20.5244123,55.5027778 23.5804702,48.8944444 L36.2025316,21.5222222 L77.5949367,21.5583333 Z" id="Path" fill="#2B2B2B"></path>
                        <polygon id="Path" fill="#EBE7FC" points="33.4719711 27.4263889 74.954792 27.4263889 72.4050633 33.0236111 30.8860759 33.0236111"></polygon>
                        <g transform="translate(46.473779, 42.972222)" id="Path">
                            <g>
                                <use fill="#3717E8" xlink:href="#path-10"></use>
                                <use fill="url(#linearGradient-9)" style="mix-blend-mode: soft-light;" xlink:href="#path-10"></use>
                            </g>
                            <polygon fill="#2B2B2B" points="17.3779385 8.57638889 18.0470163 22.6416667 38.5895118 28.2208333 38.3363472 13.6680556"></polygon>
                            <path d="M21.1392405,80.0763889 L1.33815552,71.4638889 C0.307414105,71.0125 -0.180831826,69.8208333 0.235081374,68.7736111 L1.26582278,66.2458333 L13.7251356,71.8069444 L22.1880651,78.2708333 C23.1826401,79.0291667 22.278481,80.5638889 21.1392405,80.0763889 Z" fill="#2B2B2B"></path>
                            <polygon fill="#EBE7FC" points="8.67992767 75.6347222 3.14647378 73.2333333 3.86980108 71.5722222 8.39059675 73.5402778 24.8462929 59.8361111 26.0036166 61.2083333"></polygon>
                        </g>
                        <g transform="translate(0.000000, 41.888889)">
                            <path d="M130.072333,101.851389 C111.374322,101.851389 96.1482821,86.6486111 96.1482821,67.9791667 C96.1482821,49.3097222 111.374322,34.1069444 130.072333,34.1069444 C148.770344,34.1069444 163.996383,49.3097222 163.996383,67.9791667 C163.996383,86.6486111 148.770344,101.851389 130.072333,101.851389 Z M130.072333,35.9125 C112.368897,35.9125 97.9566004,50.3027778 97.9566004,67.9791667 C97.9566004,85.6555556 112.368897,100.045833 130.072333,100.045833 C147.775769,100.045833 162.188065,85.6555556 162.188065,67.9791667 C162.188065,50.3027778 147.775769,35.9125 130.072333,35.9125 Z" id="Shape" fill="#2B2B2B"></path>
                            <path d="M34.0687161,101.851389 C15.3707052,101.851389 0.144665461,86.6486111 0.144665461,67.9791667 C0.144665461,49.3097222 15.3707052,34.1069444 34.0687161,34.1069444 C52.7667269,34.1069444 67.9927667,49.3097222 67.9927667,67.9791667 C67.9927667,86.6486111 52.7667269,101.851389 34.0687161,101.851389 Z M34.0687161,35.9125 C16.3652803,35.9125 1.95298373,50.3027778 1.95298373,67.9791667 C1.95298373,85.6555556 16.3652803,100.045833 34.0687161,100.045833 C51.7721519,100.045833 66.1844485,85.6555556 66.1844485,67.9791667 C66.1844485,50.3027778 51.7721519,35.9125 34.0687161,35.9125 Z" id="Shape" fill="#2B2B2B"></path>
                            <path d="M71.8987342,62.1111111 C71.7721519,62.1111111 71.6274864,62.075 71.5009042,62.0208333 C71.2296564,61.8944444 71.0307414,61.6236111 70.994575,61.3347222 L66.4556962,27.3361111 C66.4195298,27.0833333 66.4918626,26.8125 66.6726944,26.6138889 C66.835443,26.4152778 67.0886076,26.3069444 67.3598553,26.3069444 L112.477396,26.3069444 C112.83906,26.3069444 113.164557,26.5236111 113.309222,26.8486111 L116.672694,34.6486111 C116.853526,35.0638889 116.690778,35.5513889 116.311031,35.7861111 L72.3688969,61.9847222 C72.2242315,62.075 72.0614828,62.1111111 71.8987342,62.1111111 Z M68.3905967,28.1125 L72.6039783,59.7277778 L114.683544,34.6305556 L111.862568,28.0944444 L68.3905967,28.0944444 L68.3905967,28.1125 Z" id="Shape" fill="#EBE7FC"></path>
                            <g transform="translate(124.231465, 62.111111)" fill="#2B2B2B">
                                <ellipse id="Oval" cx="5.84086799" cy="5.86805556" rx="4.88245931" ry="4.875"></ellipse>
                                <path d="M5.84086799,11.6458333 C2.65822785,11.6458333 0.0542495479,9.04583333 0.0542495479,5.86805556 C0.0542495479,2.69027778 2.65822785,0.0902777778 5.84086799,0.0902777778 C9.02350814,0.0902777778 11.6274864,2.69027778 11.6274864,5.86805556 C11.6274864,9.04583333 9.02350814,11.6458333 5.84086799,11.6458333 Z M5.84086799,1.89583333 C3.65280289,1.89583333 1.86256781,3.68333333 1.86256781,5.86805556 C1.86256781,8.05277778 3.65280289,9.84027778 5.84086799,9.84027778 C8.02893309,9.84027778 9.81916817,8.05277778 9.81916817,5.86805556 C9.81916817,3.68333333 8.02893309,1.89583333 5.84086799,1.89583333 Z" id="Shape"></path>
                            </g>
                            <g transform="translate(28.209765, 62.111111)" fill="#2B2B2B">
                                <ellipse id="Oval" cx="5.85895118" cy="5.86805556" rx="4.88245931" ry="4.875"></ellipse>
                                <path d="M5.85895118,11.6458333 C2.67631103,11.6458333 0.0723327306,9.04583333 0.0723327306,5.86805556 C0.0723327306,2.69027778 2.67631103,0.0902777778 5.85895118,0.0902777778 C9.04159132,0.0902777778 11.6455696,2.69027778 11.6455696,5.86805556 C11.6455696,9.04583333 9.04159132,11.6458333 5.85895118,11.6458333 Z M5.85895118,1.89583333 C3.67088608,1.89583333 1.88065099,3.68333333 1.88065099,5.86805556 C1.88065099,8.05277778 3.67088608,9.84027778 5.85895118,9.84027778 C8.04701627,9.84027778 9.83725136,8.05277778 9.83725136,5.86805556 C9.83725136,3.68333333 8.04701627,1.89583333 5.85895118,1.89583333 Z" id="Shape"></path>
                            </g>
                            <path d="M130.072333,68.8819444 C129.728752,68.8819444 129.385172,68.6833333 129.240506,68.3402778 L105.641953,13.6680556 L104.303797,10.7069444 C103.254973,8.37777778 103.471971,5.70555556 104.846293,3.575 C106.238698,1.42638889 108.589512,0.1625 111.139241,0.1625 C114.159132,0.1625 116.853526,1.95 118.028933,4.73055556 L119.963834,9.28055556 C120.162749,9.73194444 119.94575,10.2736111 119.493671,10.4722222 C119.041591,10.6708333 118.499096,10.4541667 118.300181,10.0027778 L116.383363,5.41666667 C115.497288,3.32222222 113.435805,1.95 111.157324,1.95 C109.222423,1.95 107.432188,2.925 106.383363,4.55 C105.334539,6.175 105.17179,8.19722222 105.96745,9.96666667 L107.305606,12.9458333 L130.904159,67.6361111 C131.103074,68.0875 130.886076,68.6291667 130.433996,68.8277778 C130.307414,68.8638889 130.198915,68.8819444 130.072333,68.8819444 Z" id="Path" fill="#EBE7FC"></path>
                            <path d="M34.0687161,68.8819444 C33.761302,68.8819444 33.4538879,68.7194444 33.2911392,68.4305556 C33.0922242,68.1055556 33.1283906,67.6902778 33.363472,67.4013889 L66.6546112,26.6319444 C66.8896926,26.3611111 67.2513562,26.2347222 67.5949367,26.325 C67.9385172,26.4152778 68.1916817,26.7222222 68.2459313,27.0833333 L72.7848101,61.0819444 C72.8571429,61.5694444 72.5316456,62.0027778 72.0433996,62.0930556 L34.2133816,68.8638889 C34.1772152,68.8819444 34.1229656,68.8819444 34.0687161,68.8819444 Z M66.7450271,29.3944444 L36.3110307,66.6611111 L70.8860759,60.4680556 L66.7450271,29.3944444 Z" id="Shape" fill="#EBE7FC"></path>
                            <g transform="translate(62.206148, 52.000000)">
                                <ellipse id="Oval" fill="#FFFFFF" cx="9.6925859" cy="9.60555556" rx="8.6437613" ry="8.63055556"></ellipse>
                                <path d="M9.6925859,19.1388889 C4.43037975,19.1388889 0.144665461,14.8597222 0.144665461,9.60555556 C0.144665461,4.35138889 4.43037975,0.0722222222 9.6925859,0.0722222222 C14.954792,0.0722222222 19.2405063,4.35138889 19.2405063,9.60555556 C19.2405063,14.8597222 14.954792,19.1388889 9.6925859,19.1388889 Z M9.6925859,1.87777778 C5.42495479,1.87777778 1.95298373,5.34444444 1.95298373,9.60555556 C1.95298373,13.8666667 5.42495479,17.3333333 9.6925859,17.3333333 C13.960217,17.3333333 17.4321881,13.8666667 17.4321881,9.60555556 C17.4321881,5.34444444 13.960217,1.87777778 9.6925859,1.87777778 Z" id="Shape" fill="#EBE7FC"></path>
                            </g>
                            <polygon id="Rectangle" fill="#EBE7FC" transform="translate(67.369971, 22.505027) rotate(-89.703456) translate(-67.369971, -22.505027) " points="62.097671 21.6008137 72.6422572 21.6008972 72.6422715 23.4092396 62.0976853 23.4091561"></polygon>
                            <path d="M76.4195298,18.6333333 C76.4195298,18.6333333 76.4014467,18.6333333 76.4014467,18.6333333 L58.2640145,18.4166667 C57.2694394,18.3986111 56.4737794,17.5861111 56.4737794,16.5930556 C56.4918626,15.6 57.3056058,14.8055556 58.3001808,14.8055556 L76.437613,15.0222222 C77.4321881,15.0402778 78.2278481,15.8527778 78.2278481,16.8458333 C78.2097649,17.8388889 77.4141049,18.6333333 76.4195298,18.6333333 Z" id="Path" fill="#EBE7FC"></path>
                        </g>
                        <path d="M106.781193,40.8055556 L110.596745,39.7583333 C113.273056,39.0180556 116.057866,40.6069444 116.781193,43.2791667 C117.432188,45.6263889 116.274864,48.0458333 114.177215,49.1111111 L110.904159,50.7541667" id="Path" fill="#FDC068"></path>
                        <path d="M110.886076,50.7541667 L96.4195298,57.9763889 C93.5081374,59.4208333 90.0180832,58.3916667 88.3544304,55.6833333 L88.0108499,55.1055556 L76.6003617,36.4902778 C74.5931284,33.2222222 75.6238698,28.9430556 78.8969259,26.9388889 C82.1699819,24.9347222 86.4556962,25.9638889 88.4629295,29.2319444 L99.8915009,47.8472222 L91.4647378,44.9763889 L106.781193,40.8055556" id="Path" fill="url(#linearGradient-11)"></path>
                        <g id="Path">
                            <use fill="#B9EEF1" xlink:href="#path-13"></use>
                            <use fill="url(#linearGradient-12)" style="mix-blend-mode: soft-light;" xlink:href="#path-13"></use>
                        </g>
                        <path d="M85.9312839,39.0180556 C85.8589512,39.0180556 85.7866184,38.9819444 85.7323689,38.9277778 C85.641953,38.8194444 85.641953,38.6388889 85.7504521,38.5486111 C87.6311031,36.9236111 87.6491863,34.5763889 87.6491863,34.5402778 C87.6491863,34.3958333 87.7757685,34.2694444 87.920434,34.2694444 C88.0650995,34.2694444 88.1916817,34.3958333 88.1916817,34.5402778 C88.1916817,34.6486111 88.1735986,37.1583333 86.1121157,38.9458333 C86.0578662,39 86.0036166,39.0180556 85.9312839,39.0180556 Z" id="Path" fill="#2B2B2B"></path>
                        <path d="M60.4520796,41.4375 C59.2766727,44.9583333 61.2296564,51.4583333 67.3779385,53.5527778 L72.3869801,55.0694444 C77.9746835,56.9652778 84.1410488,53.4625 85.4068716,49.6708333 L60.4520796,41.4375 Z" id="Path" fill="#4C7DE0"></path>
                        <g transform="translate(75.768535, 3.430556)">
                            <path d="M20.39783,8.54027778 L20.994575,12.7111111 C21.2296564,14.3361111 19.9638336,15.7986111 18.3001808,15.7986111 L15.0271248,15.7986111 L20.39783,8.54027778 Z" id="Path" fill="#2B2B2B"></path>
                            <g transform="translate(4.159132, 0.000000)">
                                <path d="M7.59493671,19.3013889 L3.05605787,17.5319444 C0.705244123,16.6111111 -0.452079566,13.975 0.452079566,11.6277778 L3.1283906,4.78472222 C4.59312839,1.02916667 8.82459313,-0.830555556 12.5858951,0.631944444 L12.5858951,0.631944444 C16.3471971,2.09444444 18.2097649,6.31944444 16.7450271,10.075 L14.3037975,16.3402778 C13.2549729,19.0125 10.2531646,20.3305556 7.59493671,19.3013889 Z" id="SVGID_288_" fill="#FDC068"></path>
                                <path d="M16.2748644,11.3027778 L15.6781193,12.8194444 C15.443038,12.675 15.2983725,12.4222222 15.2983725,12.1152778 C15.2983725,11.6638889 15.6781193,11.2847222 16.1301989,11.2847222 C16.1844485,11.2847222 16.2206148,11.2847222 16.2748644,11.3027778 Z" id="Path" fill="#2B2B2B"></path>
                            </g>
                            <path d="M7.2875226,26.0722222 L11.5913201,24.7361111 C11.5913201,24.7361111 9.54792043,21.775 7.2875226,21.9013889 L7.2875226,26.0722222 Z" id="Path" fill="#000000"></path>
                            <path d="M5.15370705,25.6569444 L0.162748644,21.2513889 L5.82278481,8.55833333 L13.074141,11.375 L8.6437613,24.7180556 C8.15551537,26.1805556 6.31103074,26.6861111 5.15370705,25.6569444 Z" id="Path" fill="#FDC068"></path>
                            <path d="M17.5949367,13.7222222 C17.4864376,13.7222222 17.3779385,13.6319444 17.3598553,13.5236111 C17.3417722,13.3972222 17.4321881,13.2708333 17.5587703,13.2527778 L18.318264,13.1263889 C18.4086799,13.0902778 18.4810127,13.0361111 18.517179,12.9638889 C18.5533454,12.8916667 18.5714286,12.8013889 18.5352622,12.7111111 L18.0108499,11.1944444 C17.9746835,11.0680556 18.0289331,10.9416667 18.1555154,10.8875 C18.2820976,10.8513889 18.4086799,10.9055556 18.4629295,11.0319444 L18.9873418,12.5486111 C19.0596745,12.7472222 19.0415913,12.9638889 18.9511754,13.1625 C18.8426763,13.3611111 18.6618445,13.5055556 18.4629295,13.5777778 L18.4267631,13.5777778 L17.6491863,13.7041667 C17.6130199,13.7222222 17.6130199,13.7222222 17.5949367,13.7222222 Z" id="Shape" fill="#2B2B2B"></path>
                            <polygon id="Path" fill="#2B2B2B" points="10.5786618 18.8319444 7.63110307 17.6944444 9.60216998 21.8111111"></polygon>
                            <ellipse id="Oval" fill="#2B2B2B" cx="15.8589512" cy="10.4180556" rx="1" ry="1"></ellipse>
                        </g>
                        <g transform="translate(58.227848, 38.638889)" id="Path">
                            <g>
                                <use fill="#3717E8" xlink:href="#path-15"></use>
                                <use fill="url(#linearGradient-14)" style="mix-blend-mode: soft-light;" xlink:href="#path-15"></use>
                            </g>
                            <path d="M33.6347197,19.4097222 L50.3435805,15.9972222 C50.3435805,15.9972222 49.5660036,13.8847222 47.3960217,12.2958333 L33.6347197,19.4097222 Z" fill="#2B2B2B"></path>
                            <path d="M43.5443038,64.5125 L22.2061483,61.2444444 C21.084991,61.0819444 20.3074141,60.0527778 20.4520796,58.9333333 L20.79566,56.225 L34.2676311,58.4277778 L44.1048825,62.5083333 C45.2622061,62.9958333 44.7739602,64.7111111 43.5443038,64.5125 Z" fill="#2B2B2B"></path>
                        </g>
                        <path d="M69.1500904,33.0236111 L69.1500904,33.0236111 C67.1971067,35.7138889 67.2875226,39.3791667 69.3670886,41.9611111 L82.6039783,58.3194444 C83.6528029,59.6013889 85.3345389,60.1611111 86.9439421,59.7638889 L93.7793852,57.2361111 L72.965642,37.1222222 L69.1500904,33.0236111 Z" id="Path" fill="#2B2B2B"></path>
                        <path d="M57.1790235,50.3208333 L57.124774,46.7097222 C62.2423146,46.6375 76.3652803,45.1569444 80.1446655,39.2888889 C82.4593128,35.6958333 80.5244123,33.0416667 77.034358,29.1236111 C75.0271248,26.8486111 73.1283906,24.7180556 73.1283906,22.2083333 L76.7450271,22.2083333 C76.7450271,23.3458333 78.2640145,25.0611111 79.7468354,26.7222222 C81.3200723,28.4916667 83.0922242,30.4958333 84.0506329,32.8069444 C85.244123,35.6777778 84.954792,38.5125 83.1826401,41.2388889 C80.7594937,44.9763889 75.6057866,47.6486111 67.8119349,49.1472222 C62.2603978,50.2305556 57.3960217,50.3208333 57.1790235,50.3208333 Z" id="Path" fill="#2B2B2B"></path>
                        <path d="M107.685353,39.8125 L112.0434,38.675 C114.737794,37.9708333 117.468354,39.5777778 118.173599,42.2680556 C118.80651,44.7055556 117.522604,47.1972222 115.262206,48.1541667 L111.971067,49.5444444" id="Path" fill="#FDC068"></path>
                        <g id="Path">
                            <use fill="#B9EEF1" xlink:href="#path-17"></use>
                            <use fill="url(#linearGradient-16)" style="mix-blend-mode: soft-light;" xlink:href="#path-17"></use>
                        </g>
                        <path d="M97.0162749,12.2777778 L97.1790235,9.67777778 C97.3417722,7.22222222 95.840868,4.96527778 93.5262206,4.15277778 L90.79566,3.19583333 C88.9692586,2.54583333 86.9439421,2.925 85.4611212,4.17083333 L85.4611212,4.17083333 C84.8101266,4.7125 84.3037975,5.39861111 83.960217,6.15694444 L83.3996383,7.45694444 L97.0162749,12.2777778 Z" id="Path" fill="#EBE7FC"></path>
                        <path d="M83.0560579,8.21527778 L96.8535262,13.0361111 L99.1500904,12.2416667 C101.084991,11.5736111 101.19349,8.88333333 99.3128391,8.05277778 L99.3128391,8.05277778 C98.7341772,7.8 98.0831826,7.8 97.5045208,8.05277778 L93.1103074,9.96666667 L83.7070524,6.78888889 L83.0560579,8.21527778 Z" id="Path" fill="#4C7DE0"></path>
                        <path d="M89.0235081,10.2916667 L84.0325497,14.6791667 C83.2911392,15.3291667 82.2603978,15.5819444 81.283906,15.3111111 L81.283906,15.3111111 C78.8607595,14.6430556 78.318264,11.4472222 80.39783,10.0208333 L83.0560579,8.19722222 L89.0235081,10.2916667 Z" id="Path" fill="#2B2B2B"></path>
                        <path d="M94.954792,17.9111111 L93.0379747,17.1527778 C91.9529837,16.7375 90.7594937,16.7736111 89.7106691,17.2791667 L88.1012658,18.0555556 L85.7142857,12.2777778 L82.9294756,15.2930556 L83.3815552,21.1069444 L87.9927667,22.8583333 C90.3254973,23.7430556 92.965642,22.6236111 93.9240506,20.3125 L94.954792,17.9111111 Z" id="Path" fill="#2B2B2B"></path>
                        <path d="M93.363472,19.1208333 C93.363472,19.1208333 91.6455696,21.1069444 90.8318264,18.2902778" id="Path" fill="#FFFFFF"></path>
                        <path d="M87.1428571,65.4875 C87.124774,65.4875 87.0886076,65.4875 87.0705244,65.4694444 C86.925859,65.4333333 86.835443,65.2888889 86.8716094,65.1444444 L87.6491863,62.2736111 C87.6853526,62.1291667 87.8300181,62.0388889 87.9746835,62.075 C88.119349,62.1111111 88.2097649,62.2555556 88.1735986,62.4 L87.3960217,65.2708333 C87.3779385,65.4152778 87.2694394,65.4875 87.1428571,65.4875 Z" id="Path" fill="#2B2B2B"></path>
                        <path d="M93.0198915,47.0527778 C92.9475588,47.0527778 92.8571429,47.0166667 92.8028933,46.9444444 L81.482821,32.3013889 C81.3924051,32.175 81.4104882,32.0125 81.5370705,31.9222222 C81.6636528,31.8319444 81.8264014,31.85 81.9168174,31.9763889 L93.2368897,46.6194444 C93.3273056,46.7458333 93.3092224,46.9083333 93.1826401,46.9986111 C93.1283906,47.0347222 93.074141,47.0527778 93.0198915,47.0527778 Z" id="Path" fill="#2B2B2B"></path>
                        <path d="M64.556962,82.3152778 C64.4122966,82.3152778 64.2857143,82.1888889 64.2857143,82.0444444 L64.2857143,75.9416667 C64.2857143,75.7972222 64.4122966,75.6708333 64.556962,75.6708333 C64.7016275,75.6708333 64.8282098,75.7972222 64.8282098,75.9416667 L64.8282098,82.0444444 C64.8282098,82.1888889 64.7016275,82.3152778 64.556962,82.3152778 Z" id="Path" fill="#2B2B2B"></path>
                        <g id="Path">
                            <use fill="#511DF1" xlink:href="#path-19"></use>
                            <use fill="url(#linearGradient-18)" style="mix-blend-mode: soft-light;" xlink:href="#path-19"></use>
                        </g>
                        <polygon id="Path" fill="#EBE7FC" points="72.1880651 104.343056 71.6094033 102.645833 81.6274864 99.1430556 90.9584087 100.894444 90.6329114 102.663889 81.7721519 101.020833"></polygon>
                        <path d="M81.6998192,85.3125 C81.681736,85.3125 81.6455696,85.3125 81.6274864,85.2944444 C81.482821,85.2583333 81.3924051,85.1138889 81.4466546,84.9694444 L84.5027125,73.9375 C84.5388788,73.7930556 84.6835443,73.7027778 84.8282098,73.7569444 C84.9728752,73.7930556 85.0632911,73.9375 85.0090416,74.0819444 L81.9529837,85.1138889 C81.9349005,85.2402778 81.8264014,85.3125 81.6998192,85.3125 Z" id="Path" fill="#2B2B2B"></path>
                        <polygon id="Rectangle" fill="#EBE7FC" transform="translate(113.913539, 72.426151) rotate(-23.239967) translate(-113.913539, -72.426151) " points="112.102868 67.548777 115.7188 67.5507804 115.72421 77.3035244 112.108277 77.3015209"></polygon>
                    </g>
                    <path d="M167.79566,64.3861111 C164.142857,64.3861111 158.283906,59.5291667 152.063291,54.3652778 C147.253165,50.375 142.298373,46.2583333 139.188065,45.2652778 L139.730561,43.55 C143.166365,44.6333333 148.048825,48.6958333 153.202532,52.975 C158.627486,57.4708333 164.775769,62.5805556 167.777577,62.5805556 L167.777577,64.3861111 L167.79566,64.3861111 Z" id="Path" fill="#EBE7FC"></path>
                    <path d="M24.7938517,42.1416667 C20.1103074,42.1416667 16.9638336,38.35 13.6546112,34.3597222 C10.5443038,30.6041667 7.01808318,26.3430556 1.59312839,24.2666667 L2.24412297,22.5875 C8.10307414,24.8444444 11.7920434,29.2861111 15.0470163,33.2222222 C18.5370705,37.4291667 21.3037975,40.7694444 25.5714286,40.3 L25.7703436,42.0875 C25.4267631,42.1236111 25.1012658,42.1416667 24.7938517,42.1416667 Z" id="Path" fill="#EBE7FC"></path>
                    <path d="M11.556962,53.8055556 C9.079566,53.8055556 6.65641953,52.1986111 4.52260398,50.7902778 C3.25678119,49.9597222 2.04520796,49.1652778 1.05063291,48.8222222 L1.61121157,47.1069444 C2.84086799,47.5222222 4.14285714,48.3708333 5.51717902,49.2736111 C7.54249548,50.6097222 9.64014467,51.9819444 11.556962,51.9819444 L11.556962,53.8055556 Z" id="Path" fill="#EBE7FC"></path>
                </g>
            </g>
        </g>
    </g>
</svg>