<?xml version="1.0" encoding="UTF-8"?>
<svg width="22px" height="24px" viewBox="0 0 22 24" version="1.1" xmlns="http://www.w3.org/2000/svg" xmlns:xlink="http://www.w3.org/1999/xlink">
    <!-- Generator: Sketch 53.2 (72643) - https://sketchapp.com -->
    <title>pacs-icon</title>
    <desc>Created with Sketch.</desc>
    <g id="Versions" stroke="none" stroke-width="1" fill="none" fill-rule="evenodd" stroke-linecap="round" stroke-linejoin="round">
        <g id="0.2.1" transform="translate(-212.000000, -2082.000000)" stroke="#FFFFFF" stroke-width="1.5">
            <g id="Group-12" transform="translate(200.000000, 2072.000000)">
                <g id="Find-packs">
                    <g id="Group-2">
                        <g id="pacs-icon" transform="translate(12.000000, 10.000000)">
                            <g id="Group-9" opacity="0.75" transform="translate(12.131000, 0.750000)">
                                <path d="M0.75,1.5 L6.75,3.75" id="Path"></path>
                                <path d="M-4.54747351e-13,22.5 L5.207,19.607 C6.15922041,19.0779548 6.74984303,18.0743174 6.75,16.985 L6.75,3.75 L9,2.25" id="Path"></path>
                                <polyline id="Path" points="0.75 6 0.75 1.5 3 0"></polyline>
                            </g>
                            <path d="M8.385,7.682 L13.448,10.269 C14.0236481,10.5672722 14.3839,11.1626725 14.381,11.811 L14.381,17.439 C14.3839,18.0873275 14.0236481,18.6827278 13.448,18.981 L8.385,21.568 C7.91134478,21.810985 7.34965522,21.810985 6.876,21.568 L1.813,18.981 C1.23790229,18.6822805 0.878136222,18.0870452 0.881,17.439 L0.881,11.811 C0.878100007,11.1626725 1.23835192,10.5672722 1.814,10.269 L6.876,7.682 C7.34965522,7.43901504 7.91134478,7.43901504 8.385,7.682 Z" id="Path"></path>
                            <polyline id="Path" points="1.147 10.881 7.631 14.194 14.114 10.881"></polyline>
                            <path d="M7.631,14.194 L7.631,21.75" id="Path"></path>
                        </g>
                    </g>
                </g>
            </g>
        </g>
    </g>
</svg>