<?xml version="1.0" encoding="UTF-8"?>
<svg width="54px" height="54px" viewBox="0 0 54 54" version="1.1" xmlns="http://www.w3.org/2000/svg" xmlns:xlink="http://www.w3.org/1999/xlink">
    <!-- Generator: Sketch 53.2 (72643) - https://sketchapp.com -->
    <title>scaffold-icon</title>
    <desc>Created with Sketch.</desc>
    <g id="Designs" stroke="none" stroke-width="1" fill="none" fill-rule="evenodd" stroke-linecap="round" stroke-linejoin="round">
        <g id="Desktop-HD" transform="translate(-548.000000, -997.000000)" stroke-width="2">
            <g id="Group-10" transform="translate(180.000000, 893.000000)">
                <g id="Group-7" transform="translate(368.000000, 104.000000)">
                    <g id="construction-house" transform="translate(0.000000, 6.000000)">
                        <path d="M1,13.83 L22.96,0.462 C23.5988013,0.0731100271 24.4011987,0.0731100271 25.04,0.462 L47,13.83" id="Path" stroke="#C1B9E4"></path>
                        <path d="M47,18.83 L47,45.83" id="Path" stroke="#3717E8"></path>
                        <path d="M35,18.83 L35,45.83" id="Path" stroke="#3717E8"></path>
                        <path d="M17,22.83 L17,45.83" id="Path" stroke="#3717E8"></path>
                        <path d="M35,20.83 L47,30.83" id="Path" stroke="#3717E8"></path>
                        <path d="M47,20.83 L35,30.83" id="Path" stroke="#3717E8"></path>
                        <path d="M35,33.83 L47,43.83" id="Path" stroke="#3717E8"></path>
                        <path d="M47,33.83 L35,43.83" id="Path" stroke="#3717E8"></path>
                        <path d="M47,31.83 L35,31.83" id="Path" stroke="#3717E8"></path>
                        <path d="M9,31.834 L9,8.96" id="Path" stroke="#C1B9E4"></path>
                        <path d="M31,45.83 L21,45.83" id="Path" stroke="#C1B9E4"></path>
                        <path d="M39,8.96 L39,16.83" id="Path" stroke="#C1B9E4"></path>
                        <path d="M1,27.83 L1,45.83" id="Path" stroke="#3717E8"></path>
                        <path d="M1,35.83 L17,35.83" id="Path" stroke="#3717E8"></path>
                        <path d="M1,36.83 L17,45.83" id="Path" stroke="#3717E8"></path>
                        <path d="M17,36.83 L1,45.83" id="Path" stroke="#3717E8"></path>
                        <rect id="Rectangle" stroke="#C1B9E4" x="21" y="11.83" width="6" height="6" rx="1"></rect>
                        <path d="M21,32.83 C22.5150882,31.6936838 24.5421478,31.510904 26.236068,32.357864 C27.9299881,33.2048241 29,34.9361397 29,36.83 L29,45.83" id="Path" stroke="#C1B9E4"></path>
                    </g>
                </g>
            </g>
        </g>
    </g>
</svg>